<svg version="1.1" xmlns="http://www.w3.org/2000/svg" xmlns:xlink="http://www.w3.org/1999/xlink" stroke-linecap="round" stroke-linejoin="round" stroke-width="0" fill-rule="evenodd" clip-rule="evenodd" id="fh6KqiAvias6YVbmdawE_bottom" viewBox="7620 81153 38100 22987" width="38.1mm" height="22.987mm" class="w-100 h-100"><defs><style>.fh6KqiAvias6YVbmdawE_fr4 {color: #666666;}
.fh6KqiAvias6YVbmdawE_cu {color: #cccccc;}
.fh6KqiAvias6YVbmdawE_cf {color: #cc9933;}
.fh6KqiAvias6YVbmdawE_sm {color: #004200; opacity: 0.75;}
.fh6KqiAvias6YVbmdawE_ss {color: #ffffff;}
.fh6KqiAvias6YVbmdawE_sp {color: #999999;}
.fh6KqiAvias6YVbmdawE_out {color: #000000;}</style><circle cx="0" cy="0" r="850" id="YV-xS-FdS6CrMQIweIVF_pad-11"/><rect x="-850" y="-850" width="1700" height="1700" id="YV-xS-FdS6CrMQIweIVF_pad-12"/><circle cx="0" cy="0" r="305" id="YV-xS-FdS6CrMQIweIVF_pad-13"/><circle cx="0" cy="0" r="900.8" id="pkKk4DCe7WlXlC3LeSDK_pad-10"/><circle cx="0" cy="0" r="850.5" id="Jpe8tmjU_eWG3OMSuomG_pad-1"/><circle cx="0" cy="0" r="153" id="R4q2nJFlQPk0hg4rX3n1_pad-1"/><circle cx="0" cy="0" r="550.5" id="R4q2nJFlQPk0hg4rX3n1_pad-2"/><g id="fh6KqiAvias6YVbmdawE_bottom_copper"><path d="M 40640 99695 40513 99822 36576 99822 33655 96901 20447 96901 9525 85979 9525 85725 M 12065 85725 22098 95758 40513 95758 M 32385 85725 32385 83185 M 29845 85725 29845 83185 M 32385 102234.74 32385 99694.74 M 29845 102234.74 29845 99694.74 M 27305 102234.74 27305 99694.74 M 24765 102234.74 24765 99694.74 M 22225 102234.74 22225 99694.74 M 19685 102234.74 19685 99694.74 M 17145 102234.74 17145 99694.74 M 14605 102234.74 14605 99694.74 M 12065 102234.74 12065 99694.74 M 9525 102234.74 9525 99694.74 M 27305 85725 27305 83185 M 27305 85725 31115 89535 40513 89535 M 12065 85725 12065 83185 M 14605 85725 14605 83185 M 14605 85725 23495 94615 40513 94615 M 17145 85725 17145 83185 M 17145 85725 25019 93599 40513 93599 M 19685 85725 19685 83185 M 19685 85725 26543 92583 40513 92583 M 22225 85725 22225 83185 M 22225 85725 28067 91567 40513 91567 M 24765 85725 24765 83185 M 24765 85725 29591 90551 40513 90551 M 9525 85725 9525 83185" fill="none" stroke-width="254"/><use xlink:href="#YV-xS-FdS6CrMQIweIVF_pad-11" x="9525" y="83185"/><use xlink:href="#YV-xS-FdS6CrMQIweIVF_pad-11" x="9525" y="85725"/><use xlink:href="#YV-xS-FdS6CrMQIweIVF_pad-11" x="12065" y="83185"/><use xlink:href="#YV-xS-FdS6CrMQIweIVF_pad-11" x="12065" y="85725"/><use xlink:href="#YV-xS-FdS6CrMQIweIVF_pad-11" x="14605" y="83185"/><use xlink:href="#YV-xS-FdS6CrMQIweIVF_pad-11" x="14605" y="85725"/><use xlink:href="#YV-xS-FdS6CrMQIweIVF_pad-11" x="17145" y="83185"/><use xlink:href="#YV-xS-FdS6CrMQIweIVF_pad-11" x="17145" y="85725"/><use xlink:href="#YV-xS-FdS6CrMQIweIVF_pad-11" x="19685" y="83185"/><use xlink:href="#YV-xS-FdS6CrMQIweIVF_pad-11" x="19685" y="85725"/><use xlink:href="#YV-xS-FdS6CrMQIweIVF_pad-11" x="22225" y="83185"/><use xlink:href="#YV-xS-FdS6CrMQIweIVF_pad-11" x="22225" y="85725"/><use xlink:href="#YV-xS-FdS6CrMQIweIVF_pad-11" x="24765" y="83185"/><use xlink:href="#YV-xS-FdS6CrMQIweIVF_pad-11" x="24765" y="85725"/><use xlink:href="#YV-xS-FdS6CrMQIweIVF_pad-11" x="27305" y="83185"/><use xlink:href="#YV-xS-FdS6CrMQIweIVF_pad-11" x="27305" y="85725"/><use xlink:href="#YV-xS-FdS6CrMQIweIVF_pad-11" x="29845" y="83185"/><use xlink:href="#YV-xS-FdS6CrMQIweIVF_pad-11" x="29845" y="85725"/><use xlink:href="#YV-xS-FdS6CrMQIweIVF_pad-11" x="32385" y="83185"/><use xlink:href="#YV-xS-FdS6CrMQIweIVF_pad-12" x="32385" y="85725"/><use xlink:href="#YV-xS-FdS6CrMQIweIVF_pad-11" x="9525" y="99694.74"/><use xlink:href="#YV-xS-FdS6CrMQIweIVF_pad-11" x="9525" y="102234.74"/><use xlink:href="#YV-xS-FdS6CrMQIweIVF_pad-11" x="12065" y="99694.74"/><use xlink:href="#YV-xS-FdS6CrMQIweIVF_pad-11" x="12065" y="102234.74"/><use xlink:href="#YV-xS-FdS6CrMQIweIVF_pad-11" x="14605" y="99694.74"/><use xlink:href="#YV-xS-FdS6CrMQIweIVF_pad-11" x="14605" y="102234.74"/><use xlink:href="#YV-xS-FdS6CrMQIweIVF_pad-11" x="17145" y="99694.74"/><use xlink:href="#YV-xS-FdS6CrMQIweIVF_pad-11" x="17145" y="102234.74"/><use xlink:href="#YV-xS-FdS6CrMQIweIVF_pad-11" x="19685" y="99694.74"/><use xlink:href="#YV-xS-FdS6CrMQIweIVF_pad-11" x="19685" y="102234.74"/><use xlink:href="#YV-xS-FdS6CrMQIweIVF_pad-11" x="22225" y="99694.74"/><use xlink:href="#YV-xS-FdS6CrMQIweIVF_pad-11" x="22225" y="102234.74"/><use xlink:href="#YV-xS-FdS6CrMQIweIVF_pad-11" x="24765" y="99694.74"/><use xlink:href="#YV-xS-FdS6CrMQIweIVF_pad-11" x="24765" y="102234.74"/><use xlink:href="#YV-xS-FdS6CrMQIweIVF_pad-11" x="27305" y="99694.74"/><use xlink:href="#YV-xS-FdS6CrMQIweIVF_pad-11" x="27305" y="102234.74"/><use xlink:href="#YV-xS-FdS6CrMQIweIVF_pad-11" x="29845" y="99694.74"/><use xlink:href="#YV-xS-FdS6CrMQIweIVF_pad-11" x="29845" y="102234.74"/><use xlink:href="#YV-xS-FdS6CrMQIweIVF_pad-11" x="32385" y="99694.74"/><use xlink:href="#YV-xS-FdS6CrMQIweIVF_pad-12" x="32385" y="102234.74"/><use xlink:href="#YV-xS-FdS6CrMQIweIVF_pad-13" x="40513" y="90551"/><use xlink:href="#YV-xS-FdS6CrMQIweIVF_pad-13" x="40513" y="91567"/><use xlink:href="#YV-xS-FdS6CrMQIweIVF_pad-13" x="40513" y="92583"/><use xlink:href="#YV-xS-FdS6CrMQIweIVF_pad-13" x="40513" y="93599"/><use xlink:href="#YV-xS-FdS6CrMQIweIVF_pad-13" x="40513" y="94615"/><use xlink:href="#YV-xS-FdS6CrMQIweIVF_pad-13" x="40513" y="95758"/><use xlink:href="#YV-xS-FdS6CrMQIweIVF_pad-13" x="40640" y="99695"/><use xlink:href="#YV-xS-FdS6CrMQIweIVF_pad-13" x="40513" y="89535"/></g><g id="fh6KqiAvias6YVbmdawE_bottom_soldermask"><use xlink:href="#pkKk4DCe7WlXlC3LeSDK_pad-10" x="9525" y="83185"/><use xlink:href="#pkKk4DCe7WlXlC3LeSDK_pad-10" x="9525" y="85725"/><use xlink:href="#pkKk4DCe7WlXlC3LeSDK_pad-10" x="12065" y="83185"/><use xlink:href="#pkKk4DCe7WlXlC3LeSDK_pad-10" x="12065" y="85725"/><use xlink:href="#pkKk4DCe7WlXlC3LeSDK_pad-10" x="14605" y="83185"/><use xlink:href="#pkKk4DCe7WlXlC3LeSDK_pad-10" x="14605" y="85725"/><use xlink:href="#pkKk4DCe7WlXlC3LeSDK_pad-10" x="17145" y="83185"/><use xlink:href="#pkKk4DCe7WlXlC3LeSDK_pad-10" x="17145" y="85725"/><use xlink:href="#pkKk4DCe7WlXlC3LeSDK_pad-10" x="19685" y="83185"/><use xlink:href="#pkKk4DCe7WlXlC3LeSDK_pad-10" x="19685" y="85725"/><use xlink:href="#pkKk4DCe7WlXlC3LeSDK_pad-10" x="22225" y="83185"/><use xlink:href="#pkKk4DCe7WlXlC3LeSDK_pad-10" x="22225" y="85725"/><use xlink:href="#pkKk4DCe7WlXlC3LeSDK_pad-10" x="24765" y="83185"/><use xlink:href="#pkKk4DCe7WlXlC3LeSDK_pad-10" x="24765" y="85725"/><use xlink:href="#pkKk4DCe7WlXlC3LeSDK_pad-10" x="27305" y="83185"/><use xlink:href="#pkKk4DCe7WlXlC3LeSDK_pad-10" x="27305" y="85725"/><use xlink:href="#pkKk4DCe7WlXlC3LeSDK_pad-10" x="29845" y="83185"/><use xlink:href="#pkKk4DCe7WlXlC3LeSDK_pad-10" x="29845" y="85725"/><use xlink:href="#pkKk4DCe7WlXlC3LeSDK_pad-10" x="32385" y="83185"/><path d="M 31534.09 84823.29 31534.98 84824.18 31519.74 84826.72 31504.5 84834.34 31494.34 84844.5 31486.72 84859.74 31484.18 84874.98 31483.29 84874.1 31483.29 86575.89 31484.18 86575.01 31486.72 86590.25 31494.34 86605.49 31504.5 86615.65 31519.74 86623.27 31534.98 86625.81 31534.09 86626.7 33235.9 86626.7 33235.01 86625.81 33250.25 86623.27 33265.49 86615.65 33275.65 86605.49 33283.27 86590.25 33285.81 86575.01 33286.7 86575.89 33286.7 84874.1 33285.81 84874.98 33283.27 84859.74 33275.65 84844.5 33265.49 84834.34 33250.25 84826.72 33235.01 84824.18 33235.9 84823.29"/><use xlink:href="#pkKk4DCe7WlXlC3LeSDK_pad-10" x="9525" y="99694.74"/><use xlink:href="#pkKk4DCe7WlXlC3LeSDK_pad-10" x="9525" y="102234.74"/><use xlink:href="#pkKk4DCe7WlXlC3LeSDK_pad-10" x="12065" y="99694.74"/><use xlink:href="#pkKk4DCe7WlXlC3LeSDK_pad-10" x="12065" y="102234.74"/><use xlink:href="#pkKk4DCe7WlXlC3LeSDK_pad-10" x="14605" y="99694.74"/><use xlink:href="#pkKk4DCe7WlXlC3LeSDK_pad-10" x="14605" y="102234.74"/><use xlink:href="#pkKk4DCe7WlXlC3LeSDK_pad-10" x="17145" y="99694.74"/><use xlink:href="#pkKk4DCe7WlXlC3LeSDK_pad-10" x="17145" y="102234.74"/><use xlink:href="#pkKk4DCe7WlXlC3LeSDK_pad-10" x="19685" y="99694.74"/><use xlink:href="#pkKk4DCe7WlXlC3LeSDK_pad-10" x="19685" y="102234.74"/><use xlink:href="#pkKk4DCe7WlXlC3LeSDK_pad-10" x="22225" y="99694.74"/><use xlink:href="#pkKk4DCe7WlXlC3LeSDK_pad-10" x="22225" y="102234.74"/><use xlink:href="#pkKk4DCe7WlXlC3LeSDK_pad-10" x="24765" y="99694.74"/><use xlink:href="#pkKk4DCe7WlXlC3LeSDK_pad-10" x="24765" y="102234.74"/><use xlink:href="#pkKk4DCe7WlXlC3LeSDK_pad-10" x="27305" y="99694.74"/><use xlink:href="#pkKk4DCe7WlXlC3LeSDK_pad-10" x="27305" y="102234.74"/><use xlink:href="#pkKk4DCe7WlXlC3LeSDK_pad-10" x="29845" y="99694.74"/><use xlink:href="#pkKk4DCe7WlXlC3LeSDK_pad-10" x="29845" y="102234.74"/><use xlink:href="#pkKk4DCe7WlXlC3LeSDK_pad-10" x="32385" y="99694.74"/><path d="M 31534.09 101333.29 31534.93 101333.98 31519.69 101336.52 31504.45 101344.14 31494.29 101354.3 31486.67 101369.54 31484.13 101384.78 31483.29 101384.1 31483.29 103085.89 31484.13 103084.8 31486.67 103100.04 31494.29 103115.28 31504.45 103125.44 31519.69 103133.06 31534.93 103135.6 31534.09 103136.7 33235.9 103136.7 33234.96 103135.6 33250.2 103133.06 33265.44 103125.44 33275.6 103115.28 33283.22 103100.04 33285.76 103084.8 33286.7 103085.89 33286.7 101384.1 33285.76 101384.78 33283.22 101369.54 33275.6 101354.3 33265.44 101344.14 33250.2 101336.52 33234.96 101333.98 33235.9 101333.29"/></g><g id="fh6KqiAvias6YVbmdawE_bottom_drill1"><use xlink:href="#Jpe8tmjU_eWG3OMSuomG_pad-1" x="40507" y="97510"/><use xlink:href="#Jpe8tmjU_eWG3OMSuomG_pad-1" x="40507" y="87910"/></g><g id="fh6KqiAvias6YVbmdawE_bottom_drill2"><use xlink:href="#R4q2nJFlQPk0hg4rX3n1_pad-1" x="40513" y="90551"/><use xlink:href="#R4q2nJFlQPk0hg4rX3n1_pad-1" x="40513" y="91567"/><use xlink:href="#R4q2nJFlQPk0hg4rX3n1_pad-1" x="40513" y="92583"/><use xlink:href="#R4q2nJFlQPk0hg4rX3n1_pad-1" x="40513" y="93599"/><use xlink:href="#R4q2nJFlQPk0hg4rX3n1_pad-1" x="40513" y="94615"/><use xlink:href="#R4q2nJFlQPk0hg4rX3n1_pad-1" x="40513" y="95758"/><use xlink:href="#R4q2nJFlQPk0hg4rX3n1_pad-1" x="40640" y="99695"/><use xlink:href="#R4q2nJFlQPk0hg4rX3n1_pad-1" x="40513" y="89535"/><use xlink:href="#R4q2nJFlQPk0hg4rX3n1_pad-2" x="9525" y="83185"/><use xlink:href="#R4q2nJFlQPk0hg4rX3n1_pad-2" x="9525" y="85725"/><use xlink:href="#R4q2nJFlQPk0hg4rX3n1_pad-2" x="12065" y="83185"/><use xlink:href="#R4q2nJFlQPk0hg4rX3n1_pad-2" x="12065" y="85725"/><use xlink:href="#R4q2nJFlQPk0hg4rX3n1_pad-2" x="14605" y="83185"/><use xlink:href="#R4q2nJFlQPk0hg4rX3n1_pad-2" x="14605" y="85725"/><use xlink:href="#R4q2nJFlQPk0hg4rX3n1_pad-2" x="17145" y="83185"/><use xlink:href="#R4q2nJFlQPk0hg4rX3n1_pad-2" x="17145" y="85725"/><use xlink:href="#R4q2nJFlQPk0hg4rX3n1_pad-2" x="19685" y="83185"/><use xlink:href="#R4q2nJFlQPk0hg4rX3n1_pad-2" x="19685" y="85725"/><use xlink:href="#R4q2nJFlQPk0hg4rX3n1_pad-2" x="22225" y="83185"/><use xlink:href="#R4q2nJFlQPk0hg4rX3n1_pad-2" x="22225" y="85725"/><use xlink:href="#R4q2nJFlQPk0hg4rX3n1_pad-2" x="24765" y="83185"/><use xlink:href="#R4q2nJFlQPk0hg4rX3n1_pad-2" x="24765" y="85725"/><use xlink:href="#R4q2nJFlQPk0hg4rX3n1_pad-2" x="27305" y="83185"/><use xlink:href="#R4q2nJFlQPk0hg4rX3n1_pad-2" x="27305" y="85725"/><use xlink:href="#R4q2nJFlQPk0hg4rX3n1_pad-2" x="29845" y="83185"/><use xlink:href="#R4q2nJFlQPk0hg4rX3n1_pad-2" x="29845" y="85725"/><use xlink:href="#R4q2nJFlQPk0hg4rX3n1_pad-2" x="32385" y="83185"/><use xlink:href="#R4q2nJFlQPk0hg4rX3n1_pad-2" x="32385" y="85725"/><use xlink:href="#R4q2nJFlQPk0hg4rX3n1_pad-2" x="9525" y="99695"/><use xlink:href="#R4q2nJFlQPk0hg4rX3n1_pad-2" x="9525" y="102235"/><use xlink:href="#R4q2nJFlQPk0hg4rX3n1_pad-2" x="12065" y="99695"/><use xlink:href="#R4q2nJFlQPk0hg4rX3n1_pad-2" x="12065" y="102235"/><use xlink:href="#R4q2nJFlQPk0hg4rX3n1_pad-2" x="14605" y="99695"/><use xlink:href="#R4q2nJFlQPk0hg4rX3n1_pad-2" x="14605" y="102235"/><use xlink:href="#R4q2nJFlQPk0hg4rX3n1_pad-2" x="17145" y="99695"/><use xlink:href="#R4q2nJFlQPk0hg4rX3n1_pad-2" x="17145" y="102235"/><use xlink:href="#R4q2nJFlQPk0hg4rX3n1_pad-2" x="19685" y="99695"/><use xlink:href="#R4q2nJFlQPk0hg4rX3n1_pad-2" x="19685" y="102235"/><use xlink:href="#R4q2nJFlQPk0hg4rX3n1_pad-2" x="22225" y="99695"/><use xlink:href="#R4q2nJFlQPk0hg4rX3n1_pad-2" x="22225" y="102235"/><use xlink:href="#R4q2nJFlQPk0hg4rX3n1_pad-2" x="24765" y="99695"/><use xlink:href="#R4q2nJFlQPk0hg4rX3n1_pad-2" x="24765" y="102235"/><use xlink:href="#R4q2nJFlQPk0hg4rX3n1_pad-2" x="27305" y="99695"/><use xlink:href="#R4q2nJFlQPk0hg4rX3n1_pad-2" x="27305" y="102235"/><use xlink:href="#R4q2nJFlQPk0hg4rX3n1_pad-2" x="29845" y="99695"/><use xlink:href="#R4q2nJFlQPk0hg4rX3n1_pad-2" x="29845" y="102235"/><use xlink:href="#R4q2nJFlQPk0hg4rX3n1_pad-2" x="32385" y="99695"/><use xlink:href="#R4q2nJFlQPk0hg4rX3n1_pad-2" x="32385" y="102235"/></g><clipPath id="fh6KqiAvias6YVbmdawE_bottom_outline"><path d="M 7620 104140 45720 104140 45720 81153 7620 81280 7620 104140" fill="none" stroke-width="254"/></clipPath><mask id="fh6KqiAvias6YVbmdawE_bottom_mech-mask"><g fill="#000" stroke="#000"><rect x="7620" y="81153" width="38100" height="22987" fill="#fff"/><use xlink:href="#fh6KqiAvias6YVbmdawE_bottom_drill1"/><use xlink:href="#fh6KqiAvias6YVbmdawE_bottom_drill2"/></g></mask><mask id="fh6KqiAvias6YVbmdawE_bottom_cf-mask"><g fill="#fff" stroke="#fff"><use xlink:href="#fh6KqiAvias6YVbmdawE_bottom_soldermask"/></g></mask><mask id="fh6KqiAvias6YVbmdawE_bottom_sm-mask"><g fill="#000" stroke="#000"><rect x="7620" y="81153" width="38100" height="22987" fill="#fff"/><use xlink:href="#fh6KqiAvias6YVbmdawE_bottom_soldermask"/></g></mask></defs><g transform="translate(0,185293) scale(1,-1)"><g mask="url(#fh6KqiAvias6YVbmdawE_bottom_mech-mask)" clip-path="url(#fh6KqiAvias6YVbmdawE_bottom_outline)" transform="translate(53340,0) scale(-1,1)"><rect x="7620" y="81153" width="38100" height="22987" fill="currentColor" class="fh6KqiAvias6YVbmdawE_fr4"/><use xlink:href="#fh6KqiAvias6YVbmdawE_bottom_copper" fill="currentColor" stroke="currentColor" class="fh6KqiAvias6YVbmdawE_cu"/><use xlink:href="#fh6KqiAvias6YVbmdawE_bottom_copper" fill="currentColor" stroke="currentColor" class="fh6KqiAvias6YVbmdawE_cf" mask="url(#fh6KqiAvias6YVbmdawE_bottom_cf-mask)"/><g mask="url(#fh6KqiAvias6YVbmdawE_bottom_sm-mask)"><rect x="7620" y="81153" width="38100" height="22987" fill="currentColor" class="fh6KqiAvias6YVbmdawE_sm"/></g></g></g></svg>