<svg version="1.1" xmlns="http://www.w3.org/2000/svg" xmlns:xlink="http://www.w3.org/1999/xlink" stroke-linecap="round" stroke-linejoin="round" stroke-width="0" fill-rule="evenodd" clip-rule="evenodd" id="fh6KqiAvias6YVbmdawE_top" viewBox="7620 81153 38100 22987" width="38.1mm" height="22.987mm" class="w-100 h-100"><defs><style>.fh6KqiAvias6YVbmdawE_fr4 {color: #666666;}
.fh6KqiAvias6YVbmdawE_cu {color: #cccccc;}
.fh6KqiAvias6YVbmdawE_cf {color: #cc9933;}
.fh6KqiAvias6YVbmdawE_sm {color: #004200; opacity: 0.75;}
.fh6KqiAvias6YVbmdawE_ss {color: #ffffff;}
.fh6KqiAvias6YVbmdawE_sp {color: #999999;}
.fh6KqiAvias6YVbmdawE_out {color: #000000;}</style><circle cx="0" cy="0" r="900.8" id="IRVVJaaPM0uMP0I8duMf_pad-10"/><rect x="-1000" y="-250" width="2000" height="500" id="jVa5FnKHRwNS5t49kzcT_pad-11"/><circle cx="0" cy="0" r="850" id="jVa5FnKHRwNS5t49kzcT_pad-12"/><rect x="-850" y="-850" width="1700" height="1700" id="jVa5FnKHRwNS5t49kzcT_pad-13"/><circle cx="0" cy="0" r="305" id="jVa5FnKHRwNS5t49kzcT_pad-14"/><rect x="-1000" y="-250" width="2000" height="500" id="zkasxHAAZyUm4CdvnQ8Q_pad-10"/><circle cx="0" cy="0" r="850.5" id="Jpe8tmjU_eWG3OMSuomG_pad-1"/><circle cx="0" cy="0" r="153" id="R4q2nJFlQPk0hg4rX3n1_pad-1"/><circle cx="0" cy="0" r="550.5" id="R4q2nJFlQPk0hg4rX3n1_pad-2"/><g id="fh6KqiAvias6YVbmdawE_top_soldermask"><path d="M 43405.93 89009.11 43390.69 89011.65 43375.45 89019.27 43365.29 89029.43 43357.67 89044.67 43355.13 89059.91 43355.25 89060.02 43355.25 89560.39 43355.13 89559.94 43357.67 89575.18 43365.29 89590.42 43375.45 89600.58 43390.69 89608.2 43405.93 89610.74 43406.06 89611.2 45405.04 89611.2 45405.92 89610.74 45421.16 89608.2 45436.4 89600.58 45446.56 89590.42 45454.18 89575.18 45456.72 89559.94 45455.84 89560.39 45455.84 89060.02 45456.72 89059.91 45454.18 89044.67 45446.56 89029.43 45436.4 89019.27 45421.16 89011.65 45405.92 89009.11 45405.04 89009.21 43406.06 89009.21"/><path d="M 43405.93 89809.21 43390.69 89811.75 43375.45 89819.37 43365.29 89829.53 43357.67 89844.77 43355.13 89860.01 43355.25 89860.12 43355.25 90360.5 43355.13 90360.04 43357.67 90375.28 43365.29 90390.52 43375.45 90400.68 43390.69 90408.3 43405.93 90410.84 43406.06 90411.29 45405.04 90411.29 45405.92 90410.84 45421.16 90408.3 45436.4 90400.68 45446.56 90390.52 45454.18 90375.28 45456.72 90360.04 45455.84 90360.5 45455.84 89860.12 45456.72 89860.01 45454.18 89844.77 45446.56 89829.53 45436.4 89819.37 45421.16 89811.75 45405.92 89809.21 45405.04 89809.31 43406.06 89809.31"/><path d="M 43405.93 90609.06 43390.69 90611.6 43375.45 90619.22 43365.29 90629.38 43357.67 90644.62 43355.13 90659.86 43355.25 90660.21 43355.25 91160.6 43355.13 91159.88 43357.67 91175.12 43365.29 91190.36 43375.45 91200.52 43390.69 91208.14 43405.93 91210.68 43406.06 91211.39 45405.04 91211.39 45405.92 91210.68 45421.16 91208.14 45436.4 91200.52 45446.56 91190.36 45454.18 91175.12 45456.72 91159.88 45455.84 91160.6 45455.84 90660.21 45456.72 90659.86 45454.18 90644.62 45446.56 90629.38 45436.4 90619.22 45421.16 90611.6 45405.92 90609.06 45405.04 90609.42 43406.06 90609.42"/><path d="M 43405.93 91409.16 43390.69 91411.7 43375.45 91419.32 43365.29 91429.48 43357.67 91444.72 43355.13 91459.96 43355.25 91460.31 43355.25 91960.7 43355.13 91959.98 43357.67 91975.22 43365.29 91990.46 43375.45 92000.62 43390.69 92008.24 43405.93 92010.78 43406.06 92011.5 45405.04 92011.5 45405.92 92010.78 45421.16 92008.24 45436.4 92000.62 45446.56 91990.46 45454.18 91975.22 45456.72 91959.98 45455.84 91960.7 45455.84 91460.31 45456.72 91459.96 45454.18 91444.72 45446.56 91429.48 45436.4 91419.32 45421.16 91411.7 45405.92 91409.16 45405.04 91409.52 43406.06 91409.52"/><path d="M 43405.93 92209.26 43390.69 92211.8 43375.45 92219.42 43365.29 92229.58 43357.67 92244.82 43355.13 92260.06 43355.25 92260.42 43355.25 92760.79 43355.13 92760.08 43357.67 92775.32 43365.29 92790.56 43375.45 92800.72 43390.69 92808.34 43405.93 92810.88 43406.06 92811.6 45405.04 92811.6 45405.92 92810.88 45421.16 92808.34 45436.4 92800.72 45446.56 92790.56 45454.18 92775.32 45456.72 92760.08 45455.84 92760.79 45455.84 92260.42 45456.72 92260.06 45454.18 92244.82 45446.56 92229.58 45436.4 92219.42 45421.16 92211.8 45405.92 92209.26 45405.04 92209.62 43406.06 92209.62"/><path d="M 43405.93 93009.11 43390.69 93011.65 43375.45 93019.27 43365.29 93029.43 43357.67 93044.67 43355.13 93059.91 43355.25 93060.52 43355.25 93560.89 43357.67 93575.17 43365.29 93590.41 43375.45 93600.57 43390.69 93608.19 43405.93 93610.73 43406.06 93611.7 45405.04 93611.7 45405.92 93610.73 45421.16 93608.19 45436.4 93600.57 45446.56 93590.41 45454.18 93575.17 45456.72 93559.93 45455.84 93560.89 45455.84 93060.52 45456.72 93059.91 45454.18 93044.67 45446.56 93029.43 45436.4 93019.27 45421.16 93011.65 45405.92 93009.11 45405.04 93009.71 43406.06 93009.71"/><path d="M 43405.93 93809.21 43390.69 93811.75 43375.45 93819.37 43365.29 93829.53 43357.67 93844.77 43355.13 93860.01 43355.25 93860.62 43355.25 94361 43357.67 94375.27 43365.29 94390.51 43375.45 94400.67 43390.69 94408.29 43405.93 94410.83 43406.06 94411.79 45405.04 94411.79 45405.92 94410.83 45421.16 94408.29 45436.4 94400.67 45446.56 94390.51 45454.18 94375.27 45456.72 94360.03 45455.84 94361 45455.84 93860.62 45456.72 93860.01 45454.18 93844.77 45446.56 93829.53 45436.4 93819.37 45421.16 93811.75 45405.92 93809.21 45405.04 93809.81 43406.06 93809.81"/><path d="M 43405.93 94609.05 43390.69 94611.59 43375.45 94619.21 43365.29 94629.37 43357.67 94644.61 43355.13 94659.85 43355.25 94660.71 43355.25 95161.1 43357.67 95175.12 43365.29 95190.36 43375.45 95200.52 43390.69 95208.14 43405.93 95210.68 43406.06 95211.89 45405.04 95211.89 45405.92 95210.68 45421.16 95208.14 45436.4 95200.52 45446.56 95190.36 45454.18 95175.12 45456.72 95159.88 45455.84 95161.1 45455.84 94660.71 45456.72 94659.85 45454.18 94644.61 45446.56 94629.37 45436.4 94619.21 45421.16 94611.59 45405.92 94609.05 45405.04 94609.92 43406.06 94609.92"/><path d="M 43405.93 95409.15 43390.69 95411.69 43375.45 95419.31 43365.29 95429.47 43357.67 95444.71 43355.13 95459.95 43355.25 95460.81 43355.25 95961.2 43357.67 95975.22 43365.29 95990.46 43375.45 96000.62 43390.69 96008.24 43405.93 96010.78 43406.06 96012 45405.04 96012 45405.92 96010.78 45421.16 96008.24 45436.4 96000.62 45446.56 95990.46 45454.18 95975.22 45456.72 95959.98 45455.84 95961.2 45455.84 95460.81 45456.72 95459.95 45454.18 95444.71 45446.56 95429.47 45436.4 95419.31 45421.16 95411.69 45405.92 95409.15 45405.04 95410.02 43406.06 95410.02"/><path d="M 43405.93 96209.25 43390.69 96211.79 43375.45 96219.41 43365.29 96229.57 43357.67 96244.81 43355.13 96260.05 43355.25 96260.92 43355.25 96761.29 43357.67 96775.32 43365.29 96790.56 43375.45 96800.72 43390.69 96808.34 43405.93 96810.88 43406.06 96812.1 45405.04 96812.1 45405.92 96810.88 45421.16 96808.34 45436.4 96800.72 45446.56 96790.56 45454.18 96775.32 45456.72 96760.08 45455.84 96761.29 45455.84 96260.92 45456.72 96260.05 45454.18 96244.81 45446.56 96229.57 45436.4 96219.41 45421.16 96211.79 45405.92 96209.25 45405.04 96210.12 43406.06 96210.12"/><path d="M 35112.95 95808.79 35112.07 95809.23 35096.83 95811.77 35081.59 95819.39 35071.43 95829.55 35063.81 95844.79 35061.27 95860.03 35062.15 95859.6 35062.15 96359.97 35061.27 96360.05 35063.81 96375.29 35071.43 96390.53 35081.59 96400.69 35096.83 96408.31 35112.07 96410.85 35112.95 96410.78 37111.93 96410.78 37112.06 96410.85 37127.3 96408.31 37142.54 96400.69 37152.7 96390.53 37160.32 96375.29 37162.86 96360.05 37162.74 96359.97 37162.74 95859.6 37162.86 95860.03 37160.32 95844.79 37152.7 95829.55 37142.54 95819.39 37127.3 95811.77 37112.06 95809.23 37111.93 95808.79"/><path d="M 35112.95 95008.7 35112.07 95009.13 35096.83 95011.67 35081.59 95019.29 35071.43 95029.45 35063.81 95044.69 35061.27 95059.93 35062.15 95059.5 35062.15 95559.87 35061.27 95559.95 35063.81 95575.19 35071.43 95590.43 35081.59 95600.59 35096.83 95608.21 35112.07 95610.75 35112.95 95610.68 37111.93 95610.68 37112.06 95610.75 37127.3 95608.21 37142.54 95600.59 37152.7 95590.43 37160.32 95575.19 37162.86 95559.95 37162.74 95559.87 37162.74 95059.5 37162.86 95059.93 37160.32 95044.69 37152.7 95029.45 37142.54 95019.29 37127.3 95011.67 37112.06 95009.13 37111.93 95008.7"/><path d="M 35112.95 94208.6 35112.07 94209.03 35096.83 94211.57 35081.59 94219.19 35071.43 94229.35 35063.81 94244.59 35061.27 94259.83 35062.15 94259.39 35062.15 94759.78 35061.27 94759.85 35063.81 94775.09 35071.43 94790.33 35081.59 94800.49 35096.83 94808.11 35112.07 94810.65 35112.95 94810.58 37111.93 94810.58 37112.06 94810.65 37127.3 94808.11 37142.54 94800.49 37152.7 94790.33 37160.32 94775.09 37162.86 94759.85 37162.74 94759.78 37162.74 94259.39 37162.86 94259.83 37160.32 94244.59 37152.7 94229.35 37142.54 94219.19 37127.3 94211.57 37112.06 94209.03 37111.93 94208.6"/><path d="M 35112.95 93408.5 35112.07 93409.18 35096.83 93411.72 35081.59 93419.34 35071.43 93429.5 35063.81 93444.74 35061.27 93459.98 35062.15 93459.29 35062.15 93959.68 35061.27 93960.01 35063.81 93975.25 35071.43 93990.49 35081.59 94000.65 35096.83 94008.27 35112.07 94010.81 35112.95 94010.47 37111.93 94010.47 37112.06 94010.81 37127.3 94008.27 37142.54 94000.65 37152.7 93990.49 37160.32 93975.25 37162.86 93960.01 37162.74 93959.68 37162.74 93459.29 37162.86 93459.98 37160.32 93444.74 37152.7 93429.5 37142.54 93419.34 37127.3 93411.72 37112.06 93409.18 37111.93 93408.5"/><path d="M 35112.95 92608.39 35112.07 92609.08 35096.83 92611.62 35081.59 92619.24 35071.43 92629.4 35063.81 92644.64 35061.27 92659.88 35062.15 92659.2 35062.15 93159.58 35061.27 93159.91 35063.81 93175.15 35071.43 93190.39 35081.59 93200.55 35096.83 93208.17 35112.07 93210.71 35112.95 93210.37 37111.93 93210.37 37112.06 93210.71 37127.3 93208.17 37142.54 93200.55 37152.7 93190.39 37160.32 93175.15 37162.86 93159.91 37162.74 93159.58 37162.74 92659.2 37162.86 92659.88 37160.32 92644.64 37152.7 92629.4 37142.54 92619.24 37127.3 92611.62 37112.06 92609.08 37111.93 92608.39"/><path d="M 35112.95 91808.29 35112.07 91809.23 35096.83 91811.77 35081.59 91819.39 35071.43 91829.55 35063.81 91844.79 35061.27 91860.03 35062.15 91859.1 35062.15 92359.47 35061.27 92360.06 35063.81 92375.3 35071.43 92390.54 35081.59 92400.7 35096.83 92408.32 35112.07 92410.86 35112.95 92410.28 37111.93 92410.28 37112.06 92410.86 37127.3 92408.32 37142.54 92400.7 37152.7 92390.54 37160.32 92375.3 37162.86 92360.06 37162.74 92359.47 37162.74 91859.1 37162.86 91860.03 37160.32 91844.79 37152.7 91829.55 37142.54 91819.39 37127.3 91811.77 37112.06 91809.23 37111.93 91808.29"/><path d="M 35112.95 91008.2 35112.07 91009.13 35096.83 91011.67 35081.59 91019.29 35071.43 91029.45 35063.81 91044.69 35061.27 91059.93 35062.15 91059 35062.15 91559.37 35061.27 91559.96 35063.81 91575.2 35071.43 91590.44 35081.59 91600.6 35096.83 91608.22 35112.07 91610.76 35112.95 91610.18 37111.93 91610.18 37112.06 91610.76 37127.3 91608.22 37142.54 91600.6 37152.7 91590.44 37160.32 91575.2 37162.86 91559.96 37162.74 91559.37 37162.74 91059 37162.86 91059.93 37160.32 91044.69 37152.7 91029.45 37142.54 91019.29 37127.3 91011.67 37112.06 91009.13 37111.93 91008.2"/><path d="M 35112.95 90208.1 35112.07 90209.03 35096.83 90211.57 35081.59 90219.19 35071.43 90229.35 35063.81 90244.59 35061.27 90259.83 35062.15 90258.89 35062.15 90759.28 35061.27 90759.86 35063.81 90775.1 35071.43 90790.34 35081.59 90800.5 35096.83 90808.12 35112.07 90810.66 35112.95 90810.08 37111.93 90810.08 37112.06 90810.66 37127.3 90808.12 37142.54 90800.5 37152.7 90790.34 37160.32 90775.1 37162.86 90759.86 37162.74 90759.28 37162.74 90258.89 37162.86 90259.83 37160.32 90244.59 37152.7 90229.35 37142.54 90219.19 37127.3 90211.57 37112.06 90209.03 37111.93 90208.1"/><path d="M 35112.95 89408 35112.07 89409.19 35096.83 89411.73 35081.59 89419.35 35071.43 89429.51 35063.81 89444.75 35061.27 89459.99 35062.15 89458.79 35062.15 89959.18 35061.27 89960.01 35063.81 89975.25 35071.43 89990.49 35081.59 90000.65 35096.83 90008.27 35112.07 90010.81 35112.95 90009.97 37111.93 90009.97 37112.06 90010.81 37127.3 90008.27 37142.54 90000.65 37152.7 89990.49 37160.32 89975.25 37162.86 89960.01 37162.74 89959.18 37162.74 89458.79 37162.86 89459.99 37160.32 89444.75 37152.7 89429.51 37142.54 89419.35 37127.3 89411.73 37112.06 89409.19 37111.93 89408"/><path d="M 35112.95 88607.89 35112.07 88609.17 35096.83 88611.7 35081.59 88619.33 35071.43 88629.49 35063.81 88644.72 35061.27 88659.96 35062.15 88658.7 35062.15 89159.08 35061.27 89159.99 35063.81 89175.23 35071.43 89190.47 35081.59 89200.63 35096.83 89208.25 35112.07 89210.79 35112.95 89209.87 37111.93 89209.87 37112.06 89210.79 37127.3 89208.25 37142.54 89200.63 37152.7 89190.47 37160.32 89175.23 37162.86 89159.99 37162.74 89159.08 37162.74 88658.7 37162.86 88659.96 37160.32 88644.72 37152.7 88629.49 37142.54 88619.33 37127.3 88611.7 37112.06 88609.17 37111.93 88607.89"/><use xlink:href="#IRVVJaaPM0uMP0I8duMf_pad-10" x="9525" y="83185"/><use xlink:href="#IRVVJaaPM0uMP0I8duMf_pad-10" x="9525" y="85725"/><use xlink:href="#IRVVJaaPM0uMP0I8duMf_pad-10" x="12065" y="83185"/><use xlink:href="#IRVVJaaPM0uMP0I8duMf_pad-10" x="12065" y="85725"/><use xlink:href="#IRVVJaaPM0uMP0I8duMf_pad-10" x="14605" y="83185"/><use xlink:href="#IRVVJaaPM0uMP0I8duMf_pad-10" x="14605" y="85725"/><use xlink:href="#IRVVJaaPM0uMP0I8duMf_pad-10" x="17145" y="83185"/><use xlink:href="#IRVVJaaPM0uMP0I8duMf_pad-10" x="17145" y="85725"/><use xlink:href="#IRVVJaaPM0uMP0I8duMf_pad-10" x="19685" y="83185"/><use xlink:href="#IRVVJaaPM0uMP0I8duMf_pad-10" x="19685" y="85725"/><use xlink:href="#IRVVJaaPM0uMP0I8duMf_pad-10" x="22225" y="83185"/><use xlink:href="#IRVVJaaPM0uMP0I8duMf_pad-10" x="22225" y="85725"/><use xlink:href="#IRVVJaaPM0uMP0I8duMf_pad-10" x="24765" y="83185"/><use xlink:href="#IRVVJaaPM0uMP0I8duMf_pad-10" x="24765" y="85725"/><use xlink:href="#IRVVJaaPM0uMP0I8duMf_pad-10" x="27305" y="83185"/><use xlink:href="#IRVVJaaPM0uMP0I8duMf_pad-10" x="27305" y="85725"/><use xlink:href="#IRVVJaaPM0uMP0I8duMf_pad-10" x="29845" y="83185"/><use xlink:href="#IRVVJaaPM0uMP0I8duMf_pad-10" x="29845" y="85725"/><use xlink:href="#IRVVJaaPM0uMP0I8duMf_pad-10" x="32385" y="83185"/><path d="M 31534.09 84823.29 31534.98 84824.18 31519.74 84826.72 31504.5 84834.34 31494.34 84844.5 31486.72 84859.74 31484.18 84874.98 31483.29 84874.1 31483.29 86575.89 31484.18 86575.01 31486.72 86590.25 31494.34 86605.49 31504.5 86615.65 31519.74 86623.27 31534.98 86625.81 31534.09 86626.7 33235.9 86626.7 33235.01 86625.81 33250.25 86623.27 33265.49 86615.65 33275.65 86605.49 33283.27 86590.25 33285.81 86575.01 33286.7 86575.89 33286.7 84874.1 33285.81 84874.98 33283.27 84859.74 33275.65 84844.5 33265.49 84834.34 33250.25 84826.72 33235.01 84824.18 33235.9 84823.29"/><use xlink:href="#IRVVJaaPM0uMP0I8duMf_pad-10" x="9525" y="99694.74"/><use xlink:href="#IRVVJaaPM0uMP0I8duMf_pad-10" x="9525" y="102234.74"/><use xlink:href="#IRVVJaaPM0uMP0I8duMf_pad-10" x="12065" y="99694.74"/><use xlink:href="#IRVVJaaPM0uMP0I8duMf_pad-10" x="12065" y="102234.74"/><use xlink:href="#IRVVJaaPM0uMP0I8duMf_pad-10" x="14605" y="99694.74"/><use xlink:href="#IRVVJaaPM0uMP0I8duMf_pad-10" x="14605" y="102234.74"/><use xlink:href="#IRVVJaaPM0uMP0I8duMf_pad-10" x="17145" y="99694.74"/><use xlink:href="#IRVVJaaPM0uMP0I8duMf_pad-10" x="17145" y="102234.74"/><use xlink:href="#IRVVJaaPM0uMP0I8duMf_pad-10" x="19685" y="99694.74"/><use xlink:href="#IRVVJaaPM0uMP0I8duMf_pad-10" x="19685" y="102234.74"/><use xlink:href="#IRVVJaaPM0uMP0I8duMf_pad-10" x="22225" y="99694.74"/><use xlink:href="#IRVVJaaPM0uMP0I8duMf_pad-10" x="22225" y="102234.74"/><use xlink:href="#IRVVJaaPM0uMP0I8duMf_pad-10" x="24765" y="99694.74"/><use xlink:href="#IRVVJaaPM0uMP0I8duMf_pad-10" x="24765" y="102234.74"/><use xlink:href="#IRVVJaaPM0uMP0I8duMf_pad-10" x="27305" y="99694.74"/><use xlink:href="#IRVVJaaPM0uMP0I8duMf_pad-10" x="27305" y="102234.74"/><use xlink:href="#IRVVJaaPM0uMP0I8duMf_pad-10" x="29845" y="99694.74"/><use xlink:href="#IRVVJaaPM0uMP0I8duMf_pad-10" x="29845" y="102234.74"/><use xlink:href="#IRVVJaaPM0uMP0I8duMf_pad-10" x="32385" y="99694.74"/><path d="M 31534.09 101333.29 31534.93 101333.98 31519.69 101336.52 31504.45 101344.14 31494.29 101354.3 31486.67 101369.54 31484.13 101384.78 31483.29 101384.1 31483.29 103085.89 31484.13 103084.8 31486.67 103100.04 31494.29 103115.28 31504.45 103125.44 31519.69 103133.06 31534.93 103135.6 31534.09 103136.7 33235.9 103136.7 33234.96 103135.6 33250.2 103133.06 33265.44 103125.44 33275.6 103115.28 33283.22 103100.04 33285.76 103084.8 33286.7 103085.89 33286.7 101384.1 33285.76 101384.78 33283.22 101369.54 33275.6 101354.3 33265.44 101344.14 33250.2 101336.52 33234.96 101333.98 33235.9 101333.29"/></g><g id="fh6KqiAvias6YVbmdawE_top_silkscreen"><path d="M 8727.44 97345.5 8727.44 97439.47 8821.42 97624.89 8912.86 97716.34 9098.28 97807.78 9466.57 97807.78 9652 97716.34 9743.44 97624.89 9837.42 97439.47 9837.42 97254.05 9743.44 97068.63 9560.55 96791.78 8636 95869.76 9928.86 95869.76 M 11092.18 97807.78 10815.31 97716.34 10629.89 97439.47 10538.45 96977.2 10538.45 96700.34 10629.89 96238.05 10815.31 95961.2 11092.18 95869.76 11277.6 95869.76 11554.45 95961.2 11739.87 96238.05 11831.31 96700.34 11831.31 96977.2 11739.87 97439.47 11554.45 97716.34 11277.6 97807.78 11092.18 97807.78 M 8636 89184.47 8821.42 89275.92 9098.28 89552.78 9098.28 87614.76 M 10261.6 89552.78 9984.73 89461.34 9799.31 89184.47 9707.87 88722.2 9707.87 88445.34 9799.31 87983.05 9984.73 87706.2 10261.6 87614.76 10447.02 87614.76 10723.87 87706.2 10909.29 87983.05 11000.73 88445.34 11000.73 88722.2 10909.29 89184.47 10723.87 89461.34 10447.02 89552.78 10261.6 89552.78 M 31496 89184.47 31681.41 89275.92 31958.27 89552.78 31958.27 87614.76 M 31496 97693.47 31681.41 97784.92 31958.27 98061.78 31958.27 96123.76 M 32567.88 97693.47 32753.29 97784.92 33030.15 98061.78 33030.15 96123.76" fill="none" stroke-width="203.2"/><path d="M 43197.52 99659.82 43093.38 99555.68 43042.58 99400.74 43042.58 99192.46 43093.38 99037.52 43197.52 98933.38 43301.66 98933.38 43405.8 98984.18 43459.14 99037.52 43509.94 99141.66 43614.08 99451.54 43664.88 99555.68 43718.22 99609.02 43822.36 99659.82 43977.3 99659.82 44081.44 99555.68 44134.78 99400.74 44134.78 99192.46 44081.44 99037.52 43977.3 98933.38 M 43042.58 100002.72 44134.78 100002.72 M 43042.58 100002.72 43042.58 100678.36 M 43563.28 100002.72 43563.28 100419.28 M 43042.58 101021.26 44134.78 101021.26 M 43042.58 101021.26 43042.58 101488.62 43093.38 101646.1 43146.72 101696.9 43250.86 101747.7 43405.8 101747.7 43509.94 101696.9 43563.28 101646.1 43614.08 101488.62 43614.08 101021.26 M 20701 87365.84 20701 88145.62 20650.2 88300.55 20546.06 88404.7 20388.58 88455.5 20284.43 88455.5 20129.5 88404.7 20025.36 88300.55 19974.56 88145.62 19974.56 87365.84 M 19631.65 87574.12 19527.52 87520.78 19370.04 87365.84 19370.04 88455.5 M 21208.89 97017.43 21208.89 97797.21 21158.09 97952.15 21053.95 98056.29 20896.47 98109.63 20792.33 98109.63 20637.39 98056.29 20533.25 97952.15 20482.45 97797.21 20482.45 97017.43 M 20086.21 97276.51 20086.21 97225.71 20035.41 97121.57 19982.07 97068.23 19877.93 97017.43 19672.19 97017.43 19568.05 97068.23 19514.71 97121.57 19463.91 97225.71 19463.91 97329.85 19514.71 97433.99 19618.85 97588.93 20139.55 98109.63 19410.57 98109.63" fill="none" stroke-width="152.4"/><path d="M 45606.71 88560.14 44806.61 88259.92 45606.71 87960.2"/><path d="M 32893 86995 33655 86233 33655 86995"/><path d="M 32893 103505 33655 102743 33655 103505"/><path d="M 44486.65 88038.15 42239 88038.15 42239 97369.98 44486.65 97369.98 M 36256.64 87210.01 39620.87 87210.01 M 41306.64 98209.98 44486.65 98209.98 M 41392.52 87210.01 44486.65 87210.01 M 44486.65 87210.03 44486.65 88810 M 44486.65 97010.04 44486.65 98210.01 M 36256.64 98209.98 39706.65 98209.98 M 36256.62 96610.01 36256.62 98209.98 M 36256.64 87210.03 36256.64 88410" fill="none" stroke-width="254"/><path d="M 33655 81915 31750 81915 8255 81915 8255 86995 31750 86995 33655 86995 33655 81915 M 33654.94 98424.79 31749.94 98424.79 8254.94 98424.79 8254.94 103504.79 31749.94 103504.79 33654.94 103504.79 33654.94 98424.79" fill="none" stroke-width="203.2"/></g><g id="fh6KqiAvias6YVbmdawE_top_copper"><path d="M 36112.06 96110.04 32527.31 99694.79 32384.94 99694.79 M 44406.81 96509.84 44406.81 97579.18 42291 99695 40640 99695 M 40513 89535 41887.9 90909.9 44405.93 90909.9 M 40513 90551 41672 91710 44405.93 91710 M 40513 91567 41456.1 92510.1 44405.93 92510.1 M 40513 92583 41239.94 93309.94 44405.93 93309.94 M 40513 93599 41024.04 94110.04 44405.93 94110.04 M 40513 94615 40807.89 94909.89 44405.93 94909.89 M 40513 95758 40561 95709.99 44405.93 95709.99 M 9525 99695 20309.84 88910.15 36111.18 88910.15 M 29845 85725 29845 87884 33909 87884 37211 84582 40767 84582 42418 86233 42418 89535 42992.04 90109.04 44406.81 90109.04 M 32385 83185 41783 83185 44406.81 85808.81 44406.81 89308.94 M 29845 99694.74 34229.8 95309.94 36112.19 95309.94 M 27305 99694.74 32489.9 94509.84 36112.19 94509.84 M 24765 99694.74 30749.74 93709.99 36112.19 93709.99 M 22225 99694.74 29009.84 92909.89 36112.19 92909.89 M 19685 99694.74 27269.69 92110.05 36112.19 92110.05 M 17145 99694.74 25529.79 91309.95 36112.19 91309.95 M 14605 99694.74 23789.89 90509.85 36112.19 90509.85 M 12065 99694.74 22049.74 89710 36112.19 89710" fill="none" stroke-width="254"/><use xlink:href="#jVa5FnKHRwNS5t49kzcT_pad-11" x="44406.05" y="89309.95"/><use xlink:href="#jVa5FnKHRwNS5t49kzcT_pad-11" x="44406.05" y="90110.05"/><use xlink:href="#jVa5FnKHRwNS5t49kzcT_pad-11" x="44406.05" y="90909.9"/><use xlink:href="#jVa5FnKHRwNS5t49kzcT_pad-11" x="44406.05" y="91710"/><use xlink:href="#jVa5FnKHRwNS5t49kzcT_pad-11" x="44406.05" y="92510.1"/><use xlink:href="#jVa5FnKHRwNS5t49kzcT_pad-11" x="44406.05" y="93309.94"/><use xlink:href="#jVa5FnKHRwNS5t49kzcT_pad-11" x="44406.05" y="94110.04"/><use xlink:href="#jVa5FnKHRwNS5t49kzcT_pad-11" x="44406.05" y="94909.89"/><use xlink:href="#jVa5FnKHRwNS5t49kzcT_pad-11" x="44406.05" y="95709.99"/><use xlink:href="#jVa5FnKHRwNS5t49kzcT_pad-11" x="44406.05" y="96510.09"/><use xlink:href="#jVa5FnKHRwNS5t49kzcT_pad-11" x="36112.19" y="96110.04"/><use xlink:href="#jVa5FnKHRwNS5t49kzcT_pad-11" x="36112.19" y="95309.94"/><use xlink:href="#jVa5FnKHRwNS5t49kzcT_pad-11" x="36112.19" y="94509.84"/><use xlink:href="#jVa5FnKHRwNS5t49kzcT_pad-11" x="36112.19" y="93709.99"/><use xlink:href="#jVa5FnKHRwNS5t49kzcT_pad-11" x="36112.19" y="92909.89"/><use xlink:href="#jVa5FnKHRwNS5t49kzcT_pad-11" x="36112.19" y="92110.05"/><use xlink:href="#jVa5FnKHRwNS5t49kzcT_pad-11" x="36112.19" y="91309.95"/><use xlink:href="#jVa5FnKHRwNS5t49kzcT_pad-11" x="36112.19" y="90509.85"/><use xlink:href="#jVa5FnKHRwNS5t49kzcT_pad-11" x="36112.19" y="89710"/><use xlink:href="#jVa5FnKHRwNS5t49kzcT_pad-11" x="36112.19" y="88909.9"/><use xlink:href="#jVa5FnKHRwNS5t49kzcT_pad-12" x="9525" y="83185"/><use xlink:href="#jVa5FnKHRwNS5t49kzcT_pad-12" x="9525" y="85725"/><use xlink:href="#jVa5FnKHRwNS5t49kzcT_pad-12" x="12065" y="83185"/><use xlink:href="#jVa5FnKHRwNS5t49kzcT_pad-12" x="12065" y="85725"/><use xlink:href="#jVa5FnKHRwNS5t49kzcT_pad-12" x="14605" y="83185"/><use xlink:href="#jVa5FnKHRwNS5t49kzcT_pad-12" x="14605" y="85725"/><use xlink:href="#jVa5FnKHRwNS5t49kzcT_pad-12" x="17145" y="83185"/><use xlink:href="#jVa5FnKHRwNS5t49kzcT_pad-12" x="17145" y="85725"/><use xlink:href="#jVa5FnKHRwNS5t49kzcT_pad-12" x="19685" y="83185"/><use xlink:href="#jVa5FnKHRwNS5t49kzcT_pad-12" x="19685" y="85725"/><use xlink:href="#jVa5FnKHRwNS5t49kzcT_pad-12" x="22225" y="83185"/><use xlink:href="#jVa5FnKHRwNS5t49kzcT_pad-12" x="22225" y="85725"/><use xlink:href="#jVa5FnKHRwNS5t49kzcT_pad-12" x="24765" y="83185"/><use xlink:href="#jVa5FnKHRwNS5t49kzcT_pad-12" x="24765" y="85725"/><use xlink:href="#jVa5FnKHRwNS5t49kzcT_pad-12" x="27305" y="83185"/><use xlink:href="#jVa5FnKHRwNS5t49kzcT_pad-12" x="27305" y="85725"/><use xlink:href="#jVa5FnKHRwNS5t49kzcT_pad-12" x="29845" y="83185"/><use xlink:href="#jVa5FnKHRwNS5t49kzcT_pad-12" x="29845" y="85725"/><use xlink:href="#jVa5FnKHRwNS5t49kzcT_pad-12" x="32385" y="83185"/><use xlink:href="#jVa5FnKHRwNS5t49kzcT_pad-13" x="32385" y="85725"/><use xlink:href="#jVa5FnKHRwNS5t49kzcT_pad-12" x="9525" y="99694.74"/><use xlink:href="#jVa5FnKHRwNS5t49kzcT_pad-12" x="9525" y="102234.74"/><use xlink:href="#jVa5FnKHRwNS5t49kzcT_pad-12" x="12065" y="99694.74"/><use xlink:href="#jVa5FnKHRwNS5t49kzcT_pad-12" x="12065" y="102234.74"/><use xlink:href="#jVa5FnKHRwNS5t49kzcT_pad-12" x="14605" y="99694.74"/><use xlink:href="#jVa5FnKHRwNS5t49kzcT_pad-12" x="14605" y="102234.74"/><use xlink:href="#jVa5FnKHRwNS5t49kzcT_pad-12" x="17145" y="99694.74"/><use xlink:href="#jVa5FnKHRwNS5t49kzcT_pad-12" x="17145" y="102234.74"/><use xlink:href="#jVa5FnKHRwNS5t49kzcT_pad-12" x="19685" y="99694.74"/><use xlink:href="#jVa5FnKHRwNS5t49kzcT_pad-12" x="19685" y="102234.74"/><use xlink:href="#jVa5FnKHRwNS5t49kzcT_pad-12" x="22225" y="99694.74"/><use xlink:href="#jVa5FnKHRwNS5t49kzcT_pad-12" x="22225" y="102234.74"/><use xlink:href="#jVa5FnKHRwNS5t49kzcT_pad-12" x="24765" y="99694.74"/><use xlink:href="#jVa5FnKHRwNS5t49kzcT_pad-12" x="24765" y="102234.74"/><use xlink:href="#jVa5FnKHRwNS5t49kzcT_pad-12" x="27305" y="99694.74"/><use xlink:href="#jVa5FnKHRwNS5t49kzcT_pad-12" x="27305" y="102234.74"/><use xlink:href="#jVa5FnKHRwNS5t49kzcT_pad-12" x="29845" y="99694.74"/><use xlink:href="#jVa5FnKHRwNS5t49kzcT_pad-12" x="29845" y="102234.74"/><use xlink:href="#jVa5FnKHRwNS5t49kzcT_pad-12" x="32385" y="99694.74"/><use xlink:href="#jVa5FnKHRwNS5t49kzcT_pad-13" x="32385" y="102234.74"/><use xlink:href="#jVa5FnKHRwNS5t49kzcT_pad-14" x="40513" y="90551"/><use xlink:href="#jVa5FnKHRwNS5t49kzcT_pad-14" x="40513" y="91567"/><use xlink:href="#jVa5FnKHRwNS5t49kzcT_pad-14" x="40513" y="92583"/><use xlink:href="#jVa5FnKHRwNS5t49kzcT_pad-14" x="40513" y="93599"/><use xlink:href="#jVa5FnKHRwNS5t49kzcT_pad-14" x="40513" y="94615"/><use xlink:href="#jVa5FnKHRwNS5t49kzcT_pad-14" x="40513" y="95758"/><use xlink:href="#jVa5FnKHRwNS5t49kzcT_pad-14" x="40640" y="99695"/><use xlink:href="#jVa5FnKHRwNS5t49kzcT_pad-14" x="40513" y="89535"/></g><g id="fh6KqiAvias6YVbmdawE_top_solderpaste"><use xlink:href="#zkasxHAAZyUm4CdvnQ8Q_pad-10" x="44406.05" y="89309.95"/><use xlink:href="#zkasxHAAZyUm4CdvnQ8Q_pad-10" x="44406.05" y="90110.05"/><use xlink:href="#zkasxHAAZyUm4CdvnQ8Q_pad-10" x="44406.05" y="90909.9"/><use xlink:href="#zkasxHAAZyUm4CdvnQ8Q_pad-10" x="44406.05" y="91710"/><use xlink:href="#zkasxHAAZyUm4CdvnQ8Q_pad-10" x="44406.05" y="92510.1"/><use xlink:href="#zkasxHAAZyUm4CdvnQ8Q_pad-10" x="44406.05" y="93309.94"/><use xlink:href="#zkasxHAAZyUm4CdvnQ8Q_pad-10" x="44406.05" y="94110.04"/><use xlink:href="#zkasxHAAZyUm4CdvnQ8Q_pad-10" x="44406.05" y="94909.89"/><use xlink:href="#zkasxHAAZyUm4CdvnQ8Q_pad-10" x="44406.05" y="95709.99"/><use xlink:href="#zkasxHAAZyUm4CdvnQ8Q_pad-10" x="44406.05" y="96510.09"/><use xlink:href="#zkasxHAAZyUm4CdvnQ8Q_pad-10" x="36112.19" y="96110.04"/><use xlink:href="#zkasxHAAZyUm4CdvnQ8Q_pad-10" x="36112.19" y="95309.94"/><use xlink:href="#zkasxHAAZyUm4CdvnQ8Q_pad-10" x="36112.19" y="94509.84"/><use xlink:href="#zkasxHAAZyUm4CdvnQ8Q_pad-10" x="36112.19" y="93709.99"/><use xlink:href="#zkasxHAAZyUm4CdvnQ8Q_pad-10" x="36112.19" y="92909.89"/><use xlink:href="#zkasxHAAZyUm4CdvnQ8Q_pad-10" x="36112.19" y="92110.05"/><use xlink:href="#zkasxHAAZyUm4CdvnQ8Q_pad-10" x="36112.19" y="91309.95"/><use xlink:href="#zkasxHAAZyUm4CdvnQ8Q_pad-10" x="36112.19" y="90509.85"/><use xlink:href="#zkasxHAAZyUm4CdvnQ8Q_pad-10" x="36112.19" y="89710"/><use xlink:href="#zkasxHAAZyUm4CdvnQ8Q_pad-10" x="36112.19" y="88909.9"/></g><g id="fh6KqiAvias6YVbmdawE_top_drill1"><use xlink:href="#Jpe8tmjU_eWG3OMSuomG_pad-1" x="40507" y="97510"/><use xlink:href="#Jpe8tmjU_eWG3OMSuomG_pad-1" x="40507" y="87910"/></g><g id="fh6KqiAvias6YVbmdawE_top_drill2"><use xlink:href="#R4q2nJFlQPk0hg4rX3n1_pad-1" x="40513" y="90551"/><use xlink:href="#R4q2nJFlQPk0hg4rX3n1_pad-1" x="40513" y="91567"/><use xlink:href="#R4q2nJFlQPk0hg4rX3n1_pad-1" x="40513" y="92583"/><use xlink:href="#R4q2nJFlQPk0hg4rX3n1_pad-1" x="40513" y="93599"/><use xlink:href="#R4q2nJFlQPk0hg4rX3n1_pad-1" x="40513" y="94615"/><use xlink:href="#R4q2nJFlQPk0hg4rX3n1_pad-1" x="40513" y="95758"/><use xlink:href="#R4q2nJFlQPk0hg4rX3n1_pad-1" x="40640" y="99695"/><use xlink:href="#R4q2nJFlQPk0hg4rX3n1_pad-1" x="40513" y="89535"/><use xlink:href="#R4q2nJFlQPk0hg4rX3n1_pad-2" x="9525" y="83185"/><use xlink:href="#R4q2nJFlQPk0hg4rX3n1_pad-2" x="9525" y="85725"/><use xlink:href="#R4q2nJFlQPk0hg4rX3n1_pad-2" x="12065" y="83185"/><use xlink:href="#R4q2nJFlQPk0hg4rX3n1_pad-2" x="12065" y="85725"/><use xlink:href="#R4q2nJFlQPk0hg4rX3n1_pad-2" x="14605" y="83185"/><use xlink:href="#R4q2nJFlQPk0hg4rX3n1_pad-2" x="14605" y="85725"/><use xlink:href="#R4q2nJFlQPk0hg4rX3n1_pad-2" x="17145" y="83185"/><use xlink:href="#R4q2nJFlQPk0hg4rX3n1_pad-2" x="17145" y="85725"/><use xlink:href="#R4q2nJFlQPk0hg4rX3n1_pad-2" x="19685" y="83185"/><use xlink:href="#R4q2nJFlQPk0hg4rX3n1_pad-2" x="19685" y="85725"/><use xlink:href="#R4q2nJFlQPk0hg4rX3n1_pad-2" x="22225" y="83185"/><use xlink:href="#R4q2nJFlQPk0hg4rX3n1_pad-2" x="22225" y="85725"/><use xlink:href="#R4q2nJFlQPk0hg4rX3n1_pad-2" x="24765" y="83185"/><use xlink:href="#R4q2nJFlQPk0hg4rX3n1_pad-2" x="24765" y="85725"/><use xlink:href="#R4q2nJFlQPk0hg4rX3n1_pad-2" x="27305" y="83185"/><use xlink:href="#R4q2nJFlQPk0hg4rX3n1_pad-2" x="27305" y="85725"/><use xlink:href="#R4q2nJFlQPk0hg4rX3n1_pad-2" x="29845" y="83185"/><use xlink:href="#R4q2nJFlQPk0hg4rX3n1_pad-2" x="29845" y="85725"/><use xlink:href="#R4q2nJFlQPk0hg4rX3n1_pad-2" x="32385" y="83185"/><use xlink:href="#R4q2nJFlQPk0hg4rX3n1_pad-2" x="32385" y="85725"/><use xlink:href="#R4q2nJFlQPk0hg4rX3n1_pad-2" x="9525" y="99695"/><use xlink:href="#R4q2nJFlQPk0hg4rX3n1_pad-2" x="9525" y="102235"/><use xlink:href="#R4q2nJFlQPk0hg4rX3n1_pad-2" x="12065" y="99695"/><use xlink:href="#R4q2nJFlQPk0hg4rX3n1_pad-2" x="12065" y="102235"/><use xlink:href="#R4q2nJFlQPk0hg4rX3n1_pad-2" x="14605" y="99695"/><use xlink:href="#R4q2nJFlQPk0hg4rX3n1_pad-2" x="14605" y="102235"/><use xlink:href="#R4q2nJFlQPk0hg4rX3n1_pad-2" x="17145" y="99695"/><use xlink:href="#R4q2nJFlQPk0hg4rX3n1_pad-2" x="17145" y="102235"/><use xlink:href="#R4q2nJFlQPk0hg4rX3n1_pad-2" x="19685" y="99695"/><use xlink:href="#R4q2nJFlQPk0hg4rX3n1_pad-2" x="19685" y="102235"/><use xlink:href="#R4q2nJFlQPk0hg4rX3n1_pad-2" x="22225" y="99695"/><use xlink:href="#R4q2nJFlQPk0hg4rX3n1_pad-2" x="22225" y="102235"/><use xlink:href="#R4q2nJFlQPk0hg4rX3n1_pad-2" x="24765" y="99695"/><use xlink:href="#R4q2nJFlQPk0hg4rX3n1_pad-2" x="24765" y="102235"/><use xlink:href="#R4q2nJFlQPk0hg4rX3n1_pad-2" x="27305" y="99695"/><use xlink:href="#R4q2nJFlQPk0hg4rX3n1_pad-2" x="27305" y="102235"/><use xlink:href="#R4q2nJFlQPk0hg4rX3n1_pad-2" x="29845" y="99695"/><use xlink:href="#R4q2nJFlQPk0hg4rX3n1_pad-2" x="29845" y="102235"/><use xlink:href="#R4q2nJFlQPk0hg4rX3n1_pad-2" x="32385" y="99695"/><use xlink:href="#R4q2nJFlQPk0hg4rX3n1_pad-2" x="32385" y="102235"/></g><clipPath id="fh6KqiAvias6YVbmdawE_top_outline"><path d="M 7620 104140 45720 104140 45720 81153 7620 81280 7620 104140" fill="none" stroke-width="254"/></clipPath><mask id="fh6KqiAvias6YVbmdawE_top_mech-mask"><g fill="#000" stroke="#000"><rect x="7620" y="81153" width="38100" height="22987" fill="#fff"/><use xlink:href="#fh6KqiAvias6YVbmdawE_top_drill1"/><use xlink:href="#fh6KqiAvias6YVbmdawE_top_drill2"/></g></mask><mask id="fh6KqiAvias6YVbmdawE_top_cf-mask"><g fill="#fff" stroke="#fff"><use xlink:href="#fh6KqiAvias6YVbmdawE_top_soldermask"/></g></mask><mask id="fh6KqiAvias6YVbmdawE_top_sm-mask"><g fill="#000" stroke="#000"><rect x="7620" y="81153" width="38100" height="22987" fill="#fff"/><use xlink:href="#fh6KqiAvias6YVbmdawE_top_soldermask"/></g></mask></defs><g transform="translate(0,185293) scale(1,-1)"><g mask="url(#fh6KqiAvias6YVbmdawE_top_mech-mask)" clip-path="url(#fh6KqiAvias6YVbmdawE_top_outline)"><rect x="7620" y="81153" width="38100" height="22987" fill="currentColor" class="fh6KqiAvias6YVbmdawE_fr4"/><use xlink:href="#fh6KqiAvias6YVbmdawE_top_copper" fill="currentColor" stroke="currentColor" class="fh6KqiAvias6YVbmdawE_cu"/><use xlink:href="#fh6KqiAvias6YVbmdawE_top_copper" fill="currentColor" stroke="currentColor" class="fh6KqiAvias6YVbmdawE_cf" mask="url(#fh6KqiAvias6YVbmdawE_top_cf-mask)"/><g mask="url(#fh6KqiAvias6YVbmdawE_top_sm-mask)"><rect x="7620" y="81153" width="38100" height="22987" fill="currentColor" class="fh6KqiAvias6YVbmdawE_sm"/><use xlink:href="#fh6KqiAvias6YVbmdawE_top_silkscreen" fill="currentColor" stroke="currentColor" class="fh6KqiAvias6YVbmdawE_ss"/></g><use xlink:href="#fh6KqiAvias6YVbmdawE_top_solderpaste" fill="currentColor" stroke="currentColor" class="fh6KqiAvias6YVbmdawE_sp"/></g></g></svg>