<?xml version="1.0" standalone="no"?>
<!DOCTYPE svg PUBLIC "-//W3C//DTD SVG 20010904//EN"
 "http://www.w3.org/TR/2001/REC-SVG-20010904/DTD/svg10.dtd">
<svg version="1.0" xmlns="http://www.w3.org/2000/svg"
 width="700.000000pt" height="700.000000pt" viewBox="0 0 700.000000 700.000000"
 preserveAspectRatio="xMidYMid meet">
<metadata>
Created by potrace 1.14, written by Peter Selinger 2001-2017
</metadata>
<g transform="translate(0.000000,700.000000) scale(0.100000,-0.100000)"
fill="#000000" stroke="none">
<path d="M2429 3977 c-1 -1 -3 -60 -4 -132 -2 -71 -3 -134 -4 -140 -1 -6 -132
-10 -373 -9 -205 0 -384 -3 -398 -8 -14 -5 -36 -20 -50 -32 -21 -20 -37 -24
-105 -26 -44 -1 -105 -3 -135 -5 -30 -1 -134 -6 -230 -10 -344 -13 -340 -12
-340 -71 l0 -34 -90 0 -90 0 -1 38 c0 20 -1 103 -1 185 l-1 147 -31 0 -32 0 2
-187 c2 -225 0 -208 20 -227 12 -13 38 -16 120 -16 l104 0 0 -34 c0 -59 -5
-58 315 -71 77 -2 201 -8 275 -11 74 -4 149 -7 167 -8 20 -1 43 -12 63 -31
l31 -30 379 -1 c208 -1 385 -4 392 -6 10 -4 13 -39 13 -147 l-1 -141 2088 0
2088 0 1 33 c0 35 0 906 -1 948 l0 27 -2085 0 c-1147 0 -2086 0 -2086 -1z
m671 -66 c4 -1 4 -834 1 -873 -1 -5 -139 -8 -308 -8 l-308 0 0 55 c0 42 4 55
15 56 8 0 115 1 238 1 l222 1 -2 340 -3 341 -232 -1 -231 -1 -5 31 c-9 66 -26
62 306 61 166 -1 304 -2 307 -3z m2551 -11 c4 -43 4 -847 1 -857 -3 -10 -261
-13 -1243 -13 -984 0 -1239 3 -1240 13 -5 56 -3 863 2 867 4 3 563 5 1243 5
1092 0 1236 -2 1237 -15z m887 -427 l2 -443 -410 0 c-455 0 -412 -6 -412 60 0
60 -31 55 352 54 l350 0 -1 323 -2 323 -348 0 c-192 0 -349 3 -350 8 -1 11 -1
106 0 112 1 3 184 5 409 5 l407 0 3 -442z m-3641 12 c1 -208 -2 -285 -10 -286
-37 -4 -397 -3 -398 1 -3 15 -4 556 -1 563 2 4 94 7 206 7 l202 0 1 -285z
m3293 205 l0 -40 -49 0 c-30 0 -51 -5 -53 -12 -10 -26 3 -34 52 -31 45 4 50 2
50 -17 0 -21 -5 -23 -61 -21 -23 1 -39 -4 -42 -12 -9 -23 6 -33 53 -33 38 0
45 -3 48 -21 3 -18 -2 -21 -40 -21 -64 1 -67 0 -61 -22 4 -17 14 -20 54 -20
43 0 49 -3 49 -21 0 -18 -5 -20 -46 -18 -31 2 -48 -1 -54 -11 -14 -23 -2 -30
51 -30 42 0 49 -3 49 -20 0 -17 -7 -20 -49 -20 -34 0 -51 -5 -54 -15 -9 -21
12 -30 61 -27 l43 2 -3 -43 -3 -42 -230 0 -230 0 -5 264 c-3 144 -3 265 -1
267 2 2 109 4 238 4 l233 0 0 -40z m164 -228 c1 -168 -3 -262 -9 -263 -5 -1
-28 -1 -50 -2 l-40 -1 -2 268 -2 267 51 -3 52 -3 0 -263z m-4586 169 c9 -1 12
-38 12 -151 0 -166 6 -152 -65 -152 -46 0 -52 2 -78 28 -45 45 -53 158 -15
226 23 40 55 55 107 52 14 -1 32 -3 39 -3z m136 -155 c1 -153 -1 -158 -45
-148 -15 3 -17 22 -17 152 0 145 0 149 21 152 12 2 26 1 31 -4 5 -4 10 -72 10
-152z m123 3 c-1 -99 -4 -149 -11 -150 -6 0 -19 -2 -28 -4 -10 -2 -18 1 -19 6
0 5 -2 74 -2 154 -2 152 0 158 44 147 14 -3 16 -25 16 -153z m369 1 l-1 -154
-153 -1 -152 0 0 151 c0 83 2 153 4 155 2 2 71 4 153 4 l149 0 0 -155z m-864
10 c2 -44 2 -85 0 -90 -2 -6 -44 -10 -93 -10 l-89 0 0 60 0 60 -32 0 -33 0 0
-52 0 -53 -90 0 -90 0 -3 46 c-3 45 -4 47 -32 45 -28 -1 -30 -4 -30 -38 l0
-38 -93 0 -93 0 1 58 c0 56 1 57 30 57 25 0 30 -4 30 -25 0 -21 5 -26 33 -28
18 -2 32 0 31 5 -1 4 -1 18 0 31 1 21 5 22 91 22 96 0 97 -1 89 -57 -1 -11 26
-22 47 -19 15 2 19 12 20 42 1 21 2 42 3 45 1 3 42 6 91 6 l90 -1 0 -53 c0
-52 0 -53 30 -53 l30 0 0 60 c0 60 0 60 29 60 l29 0 4 -80z"/>
</g>
</svg>
