<?xml version="1.0" encoding="UTF-8" standalone="no"?>
<!-- Created with Inkscape (http://www.inkscape.org/) -->

<svg
   width="86.783997mm"
   height="43.39167mm"
   viewBox="0 0 86.783997 43.39167"
   version="1.1"
   id="svg963"
   xmlns="http://www.w3.org/2000/svg"
   xmlns:svg="http://www.w3.org/2000/svg">
  <path
     id="path18614"
     d="m 0,0 v 43.39167 h 5.291667 v -3.175 H 7.408333 V 38.1 H 17.4625 a 2.6458333,3.7041666 0 0 0 1.812292,-1.06765 L 31.75,36.5125 c 0.529166,0 1.058333,-0.26458 1.058333,-0.52917 V 34.925 c 0.549111,0 1.058333,0.52917 1.058333,1.05833 v 7.40834 H 34.925 v -7.40834 c 0,-1.05833 -1.058334,-2.11666 -2.116667,-2.11666 v -1.05834 c 0,-0.26458 -0.529167,-0.52916 -1.058333,-0.52916 L 19.317168,31.76138 A 2.6458333,3.7041666 0 0 0 17.4625,30.69167 H 7.408333 V 28.575 H 5.291667 V 27.51667 H 7.408333 V 25.4 H 17.4625 a 2.6458333,3.7041666 0 0 0 1.812292,-1.06765 L 31.75,23.8125 c 0.529166,0 1.058333,-0.26458 1.058333,-0.52917 V 22.225 c 3.175,0 5.291666,2.11667 5.291666,5.29167 v 15.875 h 1.058334 v -15.875 c 0,-4.23334 -2.116667,-6.35 -6.35,-6.35 v -1.05834 c 0,-0.26458 -0.529167,-0.52916 -1.058333,-0.52916 L 19.321301,19.06138 A 2.6458333,3.7041666 0 0 0 17.4625,17.99167 H 7.408333 V 15.875 H 5.291667 V 14.81667 H 7.408333 V 12.7 H 17.4625 a 2.6458333,3.7041666 0 0 0 1.812292,-1.06765 L 31.75,11.1125 c 0.529166,0 1.058333,-0.26458 1.058333,-0.52917 V 9.525 c 5.291666,0 9.525,5.29167 9.525,9.525 v 24.34167 h 1.058333 V 19.05 c 0,-5.29167 -4.233333,-10.58333 -10.583333,-10.58333 V 7.40833 c 0,-0.26458 -0.529167,-0.52916 -1.058333,-0.52916 L 19.321301,6.36138 A 2.6458333,3.7041666 0 0 0 17.4625,5.29167 H 7.408333 V 3.175 H 5.291667 V 0 Z m 1.058333,1.05833 h 3.175 v 3.175 H 6.35 V 5.29167 H 4.233333 V 12.7 H 6.35 v 1.05833 H 4.233333 v 3.175 H 6.35 v 1.05834 H 4.233333 V 25.4 H 6.35 v 1.05833 H 4.233333 v 3.175 H 6.35 v 1.05834 H 4.233333 V 38.1 H 6.35 v 1.05833 H 4.233333 v 3.175 h -3.175 z M 5.291667,6.35 h 5.291666 v 5.29167 H 5.291667 Z m 6.349999,0 H 12.7 v 5.29167 h -1.058334 z m 2.116667,0 h 1.058333 v 5.29167 h -1.058333 z m 2.116667,0 h 1.5875 A 1.5875,2.6458333 0 0 1 19.05,8.99583 1.5875,2.6458333 0 0 1 17.4625,11.64167 H 15.875 V 8.99583 Z m 4.233333,1.05833 h 3.175 V 9.525 h 1.058333 V 7.67292 h 3.175 v 1.5875 H 28.575 V 7.9375 h 3.175 v 2.11667 H 30.691666 V 8.99583 h -1.058333 v 1.05834 h -3.175 V 8.73125 H 25.4 v 1.5875 H 22.225 V 8.46667 h -1.058334 v 2.11666 H 20.108333 Z M 5.291667,19.05 h 5.291666 v 5.29167 H 5.291667 Z m 6.349999,0 H 12.7 v 5.29167 h -1.058334 z m 2.116667,0 h 1.058333 v 5.29167 h -1.058333 z m 2.116667,0 h 1.5875 a 1.5875,2.6458333 0 0 1 1.5875,2.64583 1.5875,2.6458333 0 0 1 -1.5875,2.64584 H 15.875 v -2.64584 z m 4.233333,1.05833 h 3.175 V 22.225 h 1.058333 v -1.85208 h 3.175 v 1.5875 H 28.575 V 20.6375 h 3.175 v 2.11667 h -1.058334 v -1.05834 h -1.058333 v 1.05834 h -3.175 V 21.43125 H 25.4 v 1.5875 h -3.175 v -1.85208 h -1.058334 v 2.11666 H 20.108333 Z M 5.291667,31.75 h 5.291666 v 5.29167 H 5.291667 Z m 6.349999,0 H 12.7 v 5.29167 h -1.058334 z m 2.116667,0 h 1.058333 v 5.29167 h -1.058333 z m 2.116667,0 h 1.5875 a 1.5875,2.6458333 0 0 1 1.5875,2.64583 1.5875,2.6458333 0 0 1 -1.5875,2.64584 H 15.875 v -2.64584 z m 4.233333,1.05833 h 3.175 V 34.925 h 1.058333 v -1.85208 h 3.175 v 1.5875 H 28.575 V 33.3375 h 3.175 v 2.11667 h -1.058334 v -1.05834 h -1.058333 v 1.05834 h -3.175 V 34.13125 H 25.4 v 1.5875 h -3.175 v -1.85208 h -1.058334 v 2.11666 h -1.058333 z" />
  <path
     id="path31930-7"
     d="m 51.858732,0 c -2.619395,0 -5.291708,2.64583 -5.291708,5.29167 v 2.64583 2.64583 h -1.058341 c -0.264586,0 -0.529171,0.52917 -0.529171,1.05834 l -0.519857,12.47521 c -0.668581,0.48371 -1.050986,1.13265 -1.067655,1.81229 v 13.22916 h 1.058341 V 41.275 h 1.058342 c 0,1.16901 0.710756,2.11667 1.587512,2.11667 0.876757,0 1.587512,-0.94766 1.587512,-2.11667 h 1.058342 V 39.15833 H 50.80039 V 25.92917 c 0,-0.69599 -0.38476,-1.36382 -1.069719,-1.8588 l -0.517793,-12.4287 c 0,-0.52917 -0.264585,-1.05834 -0.529171,-1.05834 H 47.625365 V 8.73125 7.9375 5.29167 c 0,-1.5875 2.645855,-4.23334 4.233367,-4.23334 h 8.466731 c 1.587512,0 4.233366,2.64584 4.233366,4.23334 V 38.1 c 0,2.64583 2.672311,5.29167 5.291706,5.29167 h 8.46673 c 2.6194,0 5.291711,-2.64584 5.291711,-5.29167 v -2.64583 -2.64584 h 1.058338 c 0.264582,0 0.529174,-0.52916 0.529174,-1.05833 L 85.714282,19.3213 C 86.399237,18.82632 86.78357,18.15849 86.784,17.4625 V 4.23333 H 85.725652 V 2.11667 H 84.667314 C 84.667314,0.94766 83.956558,0 83.079802,0 82.203045,0 81.49229,0.94766 81.49229,2.11667 H 80.433951 V 4.23333 H 79.375613 V 17.4625 c 0.0167,0.67964 0.399073,1.32858 1.067648,1.81229 L 80.963115,31.75 c 0,0.52917 0.264592,1.05833 0.529175,1.05833 h 1.058338 V 35.45417 38.1 c 0,1.5875 -2.645851,4.23333 -4.233363,4.23333 h -8.46673 C 68.263023,42.33333 65.61717,39.6875 65.61717,38.1 V 5.29167 C 65.61717,2.64583 62.944858,0 60.325463,0 Z m 31.22107,1.05833 c 0.292262,0 0.529174,0.49606 0.529174,1.08314 h -1.058348 c 0,-0.58708 0.236911,-1.08314 0.529174,-1.08314 z M 81.49229,3.175 h 3.175024 V 4.23333 H 81.49229 Z m -1.058339,2.11667 h 5.291701 v 5.29166 h -5.291701 z m -34.396098,6.35 h 2.116683 v 3.175 H 46.831609 V 15.875 h 1.587512 v 3.175 h -1.852097 v 1.05833 h 2.116683 v 3.175 H 45.508683 V 22.225 h 2.116682 v -1.05833 h -1.852097 v -3.175 h 1.587512 v -1.05834 h -1.322927 v -3.175 h 1.058342 V 12.7 h -1.058342 z m 34.396098,0 h 5.291701 V 12.7 h -5.291701 z m 0,2.11666 h 5.291701 v 1.05834 h -5.291701 z m 0,2.11667 h 2.645851 2.64585 v 1.5875 c 0,0.87675 -1.184599,1.5875 -2.64585,1.5875 -1.461252,0 -2.645851,-0.71075 -2.645851,-1.5875 z m 1.058339,4.23333 h 3.175024 v 3.175 h -2.116686 v 1.05834 h 1.852104 v 3.175 H 82.81522 V 28.575 h 1.32292 v 3.175 h -2.116676 v -1.05833 h 1.058338 v -1.05834 h -1.058338 v -3.175 h 1.32292 V 25.4 h -1.587512 v -3.175 h 1.852104 V 21.16667 H 81.49229 Z m -34.396095,4.23334 c 1.461253,0 2.645854,0.71075 2.645854,1.5875 v 1.5875 h -2.645854 -2.645854 v -1.5875 c 0,-0.87675 1.184602,-1.5875 2.645854,-1.5875 z M 44.450341,28.575 h 5.291708 v 1.05833 h -5.291708 z m 0,2.11667 h 5.291708 V 31.75 h -5.291708 z m 0,2.11666 h 5.291708 V 38.1 h -5.291708 z m 1.058342,6.35 h 3.175024 v 1.05834 h -3.175024 z m 1.058341,2.09187 h 1.058341 c 0,0.58708 -0.236908,1.08313 -0.52917,1.08313 -0.292261,0 -0.529171,-0.49605 -0.529171,-1.08313 z" />
</svg>
