<?xml version="1.0" encoding="UTF-8" standalone="no"?>
<!-- Generator: Adobe Illustrator 19.0.0, SVG Export Plug-In . SVG Version: 6.00 Build 0)  -->

<svg
   version="1.1"
   id="Layer_1"
   x="0px"
   y="0px"
   viewBox="0 0 512 512"
   style="enable-background:new 0 0 512 512;"
   xml:space="preserve"
   sodipodi:docname="barman.svg"
   inkscape:version="1.1.1 (3bf5ae0d25, 2021-09-20)"
   inkscape:export-filename="C:\Users\simon\source\repos\hack-gpon.github.io\assets\vector\barman.png"
   inkscape:export-xdpi="96"
   inkscape:export-ydpi="96"
   xmlns:inkscape="http://www.inkscape.org/namespaces/inkscape"
   xmlns:sodipodi="http://sodipodi.sourceforge.net/DTD/sodipodi-0.dtd"
   xmlns="http://www.w3.org/2000/svg"
   xmlns:svg="http://www.w3.org/2000/svg"><defs
   id="defs81" /><sodipodi:namedview
   id="namedview79"
   pagecolor="#ffffff"
   bordercolor="#666666"
   borderopacity="1.0"
   inkscape:pageshadow="2"
   inkscape:pageopacity="0.0"
   inkscape:pagecheckerboard="0"
   showgrid="false"
   inkscape:zoom="1.7050781"
   inkscape:cx="133.13173"
   inkscape:cy="227.26232"
   inkscape:window-width="2560"
   inkscape:window-height="1351"
   inkscape:window-x="2551"
   inkscape:window-y="-9"
   inkscape:window-maximized="1"
    />
<rect
   style="fill:#27262b;fill-opacity:1;fill-rule:evenodd;stroke-width:1.65236;stroke-miterlimit:9.33333"
   id="rect1781"
   width="512"
   height="512"
   x="0"
   y="0" /><g
   id="g6"
   style="fill:#ffffff"
   transform="matrix(0.72265625,0,0,0.72265625,71,70.999914)">
	<g
   id="g4"
   style="fill:#ffffff">
		<path
   d="m 347.429,311.388 v 159.705 h -10e-4 c 0,12.515 10.145,22.661 22.661,22.661 12.516,0 22.661,-10.145 22.661,-22.661 V 311.388 Z"
   id="path2"
   style="fill:#ffffff" />
	</g>
</g>
<g
   id="g12"
   style="fill:#ffffff"
   transform="matrix(0.72265625,0,0,0.72265625,71,70.999914)">
	<g
   id="g10"
   style="fill:#ffffff">
		<path
   d="m 402.534,311.388 v 159.705 c 0,12.515 10.145,22.661 22.661,22.661 12.516,0 22.661,-10.145 22.661,-22.661 V 311.388 Z"
   id="path8"
   style="fill:#ffffff" />
	</g>
</g>
<g
   id="g18"
   style="fill:#ffffff"
   transform="matrix(0.72265625,0,0,0.72265625,71,70.999914)">
	<g
   id="g16"
   style="fill:#ffffff">
		<path
   d="m 433.881,108.75 h -16.977 l -19.355,49.768 -19.355,-49.768 h -16.977 c 0.466,17.299 -2.372,46.04 -13.681,58.211 v 66.302 h 100.025 v -66.302 c -11.323,-12.186 -14.144,-40.915 -13.68,-58.211 z m -35.898,103.01 c -3.081,0 -5.58,-2.499 -5.58,-5.58 0,-3.081 2.499,-5.58 5.58,-5.58 3.081,0 5.58,2.499 5.58,5.58 0,3.081 -2.498,5.58 -5.58,5.58 z m 0,-30.27 c -3.081,0 -5.58,-2.499 -5.58,-5.58 0,-3.081 2.499,-5.58 5.58,-5.58 3.081,0 5.58,2.499 5.58,5.58 0.001,3.082 -2.498,5.58 -5.58,5.58 z"
   id="path14"
   style="fill:#ffffff" />
	</g>
</g>
<g
   id="g24"
   style="fill:#ffffff"
   transform="matrix(0.72265625,0,0,0.72265625,71,70.999914)">
	<g
   id="g22"
   style="fill:#ffffff">
		<path
   d="m 450.619,109.051 -0.003,0.148 c -0.323,12.019 0.946,26.304 4.732,37.421 l -0.182,86.643 h 37.768 l 0.192,-79.663 c 0,-0.047 0,-0.093 0,-0.14 -0.118,-23.786 -18.992,-43.267 -42.507,-44.409 z"
   id="path20"
   style="fill:#ffffff" />
	</g>
</g>
<g
   id="g34"
   style="fill:#ffffff"
   transform="matrix(0.72265625,0,0,0.72265625,71,70.999914)">
	<g
   id="g32"
   style="fill:#ffffff">
		<g
   id="g30"
   style="fill:#ffffff">
			<polygon
   points="339.696,233.262 339.696,233.263 "
   id="polygon26"
   style="fill:#ffffff" />
			<path
   d="m 344.48,109.045 c -23.624,1.022 -42.624,20.549 -42.743,44.415 0,0.047 0,0.093 0,0.139 l 0.192,79.663 h 37.768 l -0.18,-85.98 c 4.068,-11.467 5.28,-26.257 4.963,-38.237 z"
   id="path28"
   style="fill:#ffffff" />
		</g>
	</g>
</g>
<g
   id="g40"
   style="fill:#ffffff"
   transform="matrix(0.72265625,0,0,0.72265625,71,70.999914)">
	<g
   id="g38"
   style="fill:#ffffff">
		<path
   d="m 397.431,18.246 c -21.615,0 -39.137,17.522 -39.137,39.137 0,21.74 17.674,39.137 39.137,39.137 21.46,0 39.137,-17.395 39.137,-39.137 0,-21.615 -17.522,-39.137 -39.137,-39.137 z"
   id="path36"
   style="fill:#ffffff" />
	</g>
</g>
<g
   id="g46"
   style="fill:#ffffff"
   transform="matrix(0.72265625,0,0,0.72265625,71,70.999914)">
	<g
   id="g44"
   style="fill:#ffffff">
		<path
   d="M 16.741,255.585 C 7.496,255.585 0,263.08 0,272.326 c 0,9.246 7.496,16.741 16.741,16.741 h 478.518 c 9.246,0 16.741,-7.496 16.741,-16.741 0,-9.246 -7.496,-16.741 -16.741,-16.741 H 273.563 c 0.853,-0.689 1.449,-1.689 1.577,-2.853 0.621,-5.61 4.337,-39.22 5.158,-46.646 h -39.9 c 0.32,2.9 3.828,34.616 5.158,46.646 0.128,1.163 0.724,2.164 1.577,2.853"
   id="path42"
   style="fill:#ffffff"
   sodipodi:nodetypes="cssssscccccc" />
	</g>
</g>
<g
   id="g48"
   transform="matrix(0.78125,0,0,0.78125,62.205957,51.26784)">
</g>
<g
   id="g50"
   transform="matrix(0.78125,0,0,0.78125,62.205957,51.26784)">
</g>
<g
   id="g52"
   transform="matrix(0.78125,0,0,0.78125,62.205957,51.26784)">
</g>
<g
   id="g54"
   transform="matrix(0.78125,0,0,0.78125,62.205957,51.26784)">
</g>
<g
   id="g56"
   transform="matrix(0.78125,0,0,0.78125,62.205957,51.26784)">
</g>
<g
   id="g58"
   transform="matrix(0.78125,0,0,0.78125,62.205957,51.26784)">
</g>
<g
   id="g60"
   transform="matrix(0.78125,0,0,0.78125,62.205957,51.26784)">
</g>
<g
   id="g62"
   transform="matrix(0.78125,0,0,0.78125,62.205957,51.26784)">
</g>
<g
   id="g64"
   transform="matrix(0.78125,0,0,0.78125,62.205957,51.26784)">
</g>
<g
   id="g66"
   transform="matrix(0.78125,0,0,0.78125,62.205957,51.26784)">
</g>
<g
   id="g68"
   transform="matrix(0.78125,0,0,0.78125,62.205957,51.26784)">
</g>
<g
   id="g70"
   transform="matrix(0.78125,0,0,0.78125,62.205957,51.26784)">
</g>
<g
   id="g72"
   transform="matrix(0.78125,0,0,0.78125,62.205957,51.26784)">
</g>
<g
   id="g74"
   transform="matrix(0.78125,0,0,0.78125,62.205957,51.26784)">
</g>
<g
   id="g76"
   transform="matrix(0.78125,0,0,0.78125,62.205957,51.26784)">
</g>
<path
   d="m 88.314033,174.40335 v 78.78584 H 107.3313 v -78.78584 z m 1.164323,12.80754 v -11.64322 h 2.13459 v 8.92648 h 12.789824 v -8.92648 h 1.76421 v 11.64322 z m 0,48.12534 v -46.96101 h 16.688624 v 46.96101 z m 0,16.68863 v -15.5243 h 2.13459 v 13.23447 l 12.225384,-0.0388 v -13.19567 h 2.32865 v 15.52432 z M 103.45022,183.32983 H 92.583215 v -7.76216 h 10.867005 v 4.19157 z m -1.55243,62.0972 h -0.77621 v -1.94054 h -0.77622 v 1.94054 h -0.776207 v -1.94054 h -0.776217 v 1.94054 h -0.776215 v -1.94054 h -0.776215 v 1.94054 h -0.776215 v -1.94054 h -0.776215 v 1.94054 h -0.776215 v -1.94054 h -0.776215 v 1.94054 h -1.552431 v -8.92647 l 4.61848,0.0777 5.472315,-0.0777 v 8.92647 z m -9.314575,3.10487 v -1.94053 h 10.090795 l 0.0182,1.93325"
   id="path2-9"
   style="fill:#ffffff;stroke-width:1.10015" /><path
   d="m 114.93821,174.40335 v 78.78584 h 19.01727 v -78.78584 z m 1.16433,12.80754 v -11.64322 h 2.13458 v 8.92648 h 12.78983 v -8.92648 h 1.76421 v 11.64322 z m 0,48.12534 v -46.96101 h 16.68862 v 46.96101 z m 0,16.68863 v -15.5243 h 2.13458 v 13.23447 l 12.22539,-0.0388 v -13.19567 h 2.32865 v 15.52432 z m 13.97186,-68.69503 h -10.86701 v -7.76216 h 10.86701 v 4.19156 z m -1.55243,62.0972 h -0.77622 v -1.94054 h -0.77621 v 1.94054 h -0.77621 v -1.94054 h -0.77622 v 1.94054 h -0.77621 v -1.94054 h -0.77622 v 1.94054 h -0.77621 v -1.94054 h -0.77621 v 1.94054 h -0.77622 v -1.94054 h -0.77621 v 1.94054 h -1.55244 v -8.92647 l 4.61848,0.0777 5.47232,-0.0777 v 8.92647 z m -9.31458,3.10487 v -1.94053 h 10.0908 l 0.0182,1.93325"
   id="path2-9-9"
   style="fill:#ffffff;stroke-width:1.10015" /><path
   d="m 141.56239,174.40335 v 78.78584 h 19.01727 v -78.78584 z m 1.16432,12.80754 v -11.64322 h 2.1346 v 8.92648 h 12.78981 v -8.92648 h 1.76422 v 11.64322 z m 0,48.12534 v -46.96101 h 16.68863 v 46.96101 z m 0,16.68863 v -15.5243 h 2.1346 v 13.23447 l 12.22538,-0.0388 v -13.19567 h 2.32865 v 15.52432 z m 13.97187,-68.69503 h -10.86701 v -7.76216 h 10.86701 v 4.19157 z m -1.55243,62.0972 h -0.77621 v -1.94054 h -0.77622 v 1.94054 h -0.77621 v -1.94054 h -0.77622 v 1.94054 h -0.77621 v -1.94054 h -0.77621 v 1.94054 h -0.77622 v -1.94054 h -0.77622 v 1.94054 h -0.77621 v -1.94054 H 147.384 v 1.94054 h -1.55243 v -8.92647 l 4.61848,0.0777 5.47231,-0.0777 v 8.92647 z m -9.31458,3.10487 v -1.94053 h 10.09079 l 0.0182,1.93325"
   id="path2-9-2"
   style="fill:#ffffff;stroke-width:1.10015" /><path
   id="path31930-7"
   d="m 176.26666,179.3903 c -4.36237,0 -8.81288,4.40641 -8.81288,8.81282 v 4.4064 4.40641 h -1.76257 c -0.44065,0 -0.88129,0.88128 -0.88129,1.76257 l -0.86577,20.77637 c -1.11347,0.80558 -1.75033,1.88634 -1.77809,3.01821 v 22.03203 h 1.76257 v 3.52513 h 1.76258 c 0,1.94689 1.1837,3.52514 2.64387,3.52514 1.46016,0 2.64386,-1.57825 2.64386,-3.52514 h 1.76258 v -3.52513 h 1.76257 v -22.03203 c 0,-1.1591 -0.64078,-2.27131 -1.78153,-3.09566 l -0.86234,-20.69892 c 0,-0.88129 -0.44064,-1.76257 -0.88128,-1.76257 h -1.76258 v -3.08449 -1.32192 -4.4064 c 0,-2.64385 4.40644,-7.05026 7.0503,-7.05026 h 14.10061 c 2.64387,0 7.05032,4.40641 7.05032,7.05026 v 54.63943 c 0,4.40641 4.45049,8.81283 8.81287,8.81283 h 14.10061 c 4.36239,0 8.81289,-4.40642 8.81289,-8.81283 v -4.4064 -4.40641 h 1.76257 c 0.44064,0 0.88129,-0.88127 0.88129,-1.76256 l 0.86234,-20.69892 c 1.14074,-0.82435 1.78081,-1.93656 1.78152,-3.09568 v -22.03203 h -1.76259 v -3.52512 h -1.76256 c 0,-1.94688 -1.18371,-3.52513 -2.64387,-3.52513 -1.46016,0 -2.64387,1.57825 -2.64387,3.52513 h -1.76256 v 3.52512 h -1.76258 v 22.03203 c 0.0279,1.13188 0.66462,2.21264 1.77808,3.01821 l 0.86577,20.77639 c 0,0.88129 0.44066,1.76256 0.88129,1.76256 h 1.76258 v 4.40641 4.4064 c 0,2.64385 -4.40643,7.05025 -7.0503,7.05025 h -14.10061 c -2.64386,0 -7.0503,-4.4064 -7.0503,-7.05025 v -54.63943 c 0,-4.40641 -4.4505,-8.81282 -8.81289,-8.81282 z m 51.996,1.76256 c 0.48674,0 0.8813,0.82614 0.8813,1.80387 h -1.76259 c 0,-0.97773 0.39455,-1.80387 0.88129,-1.80387 z m -2.64387,3.52513 h 5.28774 v 1.76256 h -5.28774 z m -1.76256,3.52513 h 8.81286 v 8.81281 h -8.81286 z M 166.5725,198.7785 h 3.52515 v 5.28768 h -2.20322 v 1.76255 h 2.64386 v 5.28769 h -3.08451 v 1.76256 h 3.52516 v 5.28769 h -5.28773 v -1.76255 h 3.52515 v -1.76256 h -3.0845 v -5.28769 h 2.64386 v -1.76258 h -2.20322 v -5.28768 h 1.76258 v -1.76256 h -1.76258 z m 57.28373,0 h 8.81286 v 1.76255 h -8.81286 z m 0,3.52511 h 8.81286 v 1.76257 h -8.81286 z m 0,3.52512 h 4.40643 4.40643 v 2.64385 c 0,1.46015 -1.97284,2.64384 -4.40643,2.64384 -2.43359,0 -4.40643,-1.18369 -4.40643,-2.64384 z m 1.76256,7.05025 h 5.28774 v 5.28769 h -3.52516 v 1.76258 h 3.08451 v 5.28768 h -2.64386 v 1.76256 h 2.2032 v 5.28769 h -3.52513 v -1.76255 h 1.76257 v -1.76258 h -1.76257 v -5.28769 h 2.20321 v -1.76256 h -2.64387 v -5.28768 h 3.08453 v -1.76256 h -3.52517 z m -57.28371,7.05027 c 2.43359,0 4.40644,1.18369 4.40644,2.64383 v 2.64385 h -4.40644 -4.40645 v -2.64385 c 0,-1.46014 1.97285,-2.64383 4.40645,-2.64383 z m -4.40645,7.05024 h 8.81289 v 1.76256 h -8.81289 z m 0,3.52514 h 8.81289 v 1.76255 h -8.81289 z m 0,3.52511 h 8.81289 v 8.81281 h -8.81289 z m 1.76258,10.57537 h 5.28773 v 1.76257 h -5.28773 z m 1.76257,3.48383 h 1.76258 c 0,0.97773 -0.39456,1.80386 -0.88128,1.80386 -0.48674,0 -0.8813,-0.82613 -0.8813,-1.80386 z"
   style="fill:#0055d4;fill-opacity:1;stroke-width:1.66542" /><path
   id="path31930-7-7"
   d="m 185.04508,174.9769 c -4.36237,0 -8.81288,4.40641 -8.81288,8.81281 v 4.40641 4.4064 h -1.76258 c -0.44064,0 -0.88128,0.88129 -0.88128,1.76258 l -0.86578,20.77638 c -1.11346,0.80557 -1.75033,1.88632 -1.77809,3.01821 v 22.03203 h 1.76257 v 3.52513 h 1.76258 c 0,1.94688 1.18371,3.52512 2.64387,3.52512 1.46016,0 2.64387,-1.57824 2.64387,-3.52512 h 1.76257 v -3.52513 h 1.76257 v -22.03203 c 0,-1.15911 -0.64077,-2.27132 -1.78152,-3.09567 l -0.86234,-20.69892 c 0,-0.88129 -0.44064,-1.76258 -0.88128,-1.76258 h -1.76258 v -3.08448 -1.32192 -4.40641 c 0,-2.64383 4.40644,-7.05025 7.0503,-7.05025 h 14.10061 c 2.64387,0 7.05031,4.40642 7.05031,7.05025 v 54.63945 c 0,4.4064 4.4505,8.81281 8.81287,8.81281 h 14.10061 c 4.36239,0 8.81289,-4.40641 8.81289,-8.81281 v -4.40641 -4.40642 h 1.76257 c 0.44064,0 0.8813,-0.88127 0.8813,-1.76255 l 0.86234,-20.69893 c 1.14073,-0.82434 1.7808,-1.93655 1.78152,-3.09567 v -22.03203 h -1.76259 v -3.52512 h -1.76257 c 0,-1.94688 -1.1837,-3.52513 -2.64386,-3.52513 -1.46017,0 -2.64387,1.57825 -2.64387,3.52513 h -1.76256 v 3.52512 h -1.76258 v 22.03203 c 0.0278,1.13189 0.66462,2.21264 1.77807,3.01821 l 0.86577,20.77639 c 0,0.88128 0.44066,1.76255 0.8813,1.76255 h 1.76258 v 4.40642 4.40641 c 0,2.64384 -4.40644,7.05025 -7.05031,7.05025 h -14.10061 c -2.64386,0 -7.05029,-4.40641 -7.05029,-7.05025 v -54.63945 c 0,-4.4064 -4.45051,-8.81281 -8.81289,-8.81281 z m 51.996,1.76256 c 0.48673,0 0.88129,0.82614 0.88129,1.80387 h -1.76258 c 0,-0.97773 0.39455,-1.80387 0.88129,-1.80387 z m -2.64387,3.52513 h 5.28773 v 1.76256 h -5.28773 z m -1.76256,3.52512 h 8.81286 v 8.81281 h -8.81286 z m -57.28374,10.57539 h 3.52515 v 5.28768 h -2.20322 v 1.76256 h 2.64386 v 5.28769 h -3.0845 v 1.76256 h 3.52516 v 5.28768 h -5.28774 v -1.76256 h 3.52516 v -1.76255 h -3.08451 v -5.28769 h 2.64387 v -1.76257 h -2.20323 v -5.28769 h 1.76258 v -1.76256 h -1.76258 z m 57.28374,0 h 8.81286 v 1.76255 h -8.81286 z m 0,3.52511 h 8.81286 v 1.76257 h -8.81286 z m 0,3.52513 h 4.40643 4.40643 v 2.64384 c 0,1.46015 -1.97285,2.64385 -4.40643,2.64385 -2.43359,0 -4.40643,-1.1837 -4.40643,-2.64385 z m 1.76256,7.05025 h 5.28773 v 5.28768 h -3.52515 v 1.76258 h 3.08451 v 5.28768 h -2.64386 v 1.76256 h 2.2032 v 5.28769 h -3.52513 v -1.76256 h 1.76257 v -1.76257 h -1.76257 v -5.28769 h 2.2032 v -1.76256 h -2.64386 v -5.28769 h 3.08452 v -1.76255 h -3.52516 z m -57.28372,7.05026 c 2.43359,0 4.40644,1.18369 4.40644,2.64384 v 2.64384 h -4.40644 -4.40645 v -2.64384 c 0,-1.46015 1.97286,-2.64384 4.40645,-2.64384 z m -4.40645,7.05024 h 8.81289 v 1.76256 h -8.81289 z m 0,3.52513 h 8.81289 v 1.76256 h -8.81289 z m 0,3.52511 h 8.81289 v 8.81283 h -8.81289 z m 1.76258,10.57539 h 5.28774 v 1.76257 h -5.28774 z m 1.76258,3.48382 h 1.76258 c 0,0.97773 -0.39456,1.80387 -0.88129,1.80387 -0.48673,0 -0.88129,-0.82614 -0.88129,-1.80387 z"
   style="fill:#3cc285;fill-opacity:1;stroke-width:1.66542" /></svg>
