<?xml version="1.0" encoding="UTF-8" standalone="no"?>
<!-- Created with Inkscape (http://www.inkscape.org/) -->

<svg
   width="512mm"
   height="512mm"
   viewBox="0 0 512 512"
   version="1.1"
   id="svg916"
   inkscape:version="1.1.1 (3bf5ae0d25, 2021-09-20)"
   sodipodi:docname="fiber-1.svg"
   xmlns:inkscape="http://www.inkscape.org/namespaces/inkscape"
   xmlns:sodipodi="http://sodipodi.sourceforge.net/DTD/sodipodi-0.dtd"
   xmlns="http://www.w3.org/2000/svg"
   xmlns:svg="http://www.w3.org/2000/svg">
  <sodipodi:namedview
     id="namedview918"
     pagecolor="#ffffff"
     bordercolor="#666666"
     borderopacity="1.0"
     inkscape:pageshadow="2"
     inkscape:pageopacity="0.0"
     inkscape:pagecheckerboard="0"
     inkscape:document-units="mm"
     showgrid="false"
     fit-margin-top="0"
     fit-margin-left="0"
     fit-margin-right="0"
     fit-margin-bottom="0"
     inkscape:zoom="0.097214331"
     inkscape:cx="3096.2513"
     inkscape:cy="3296.839"
     inkscape:window-width="2560"
     inkscape:window-height="1351"
     inkscape:window-x="2551"
     inkscape:window-y="-9"
     inkscape:window-maximized="1"
     inkscape:current-layer="layer1" />
  <defs
     id="defs913" />
  <g
     inkscape:label="Layer 1"
     inkscape:groupmode="layer"
     id="layer1"
     transform="translate(-36.819631,-79.005196)">
    <path
       id="path18614"
       d="M 36.819631,79.005196 V 591.00529 H 99.25866 v -37.46341 h 24.9756 v -24.97565 h 118.63415 a 31.219512,43.707317 0 0 0 21.38415,-12.59774 l 147.20122,-6.13397 c 6.2439,0 12.4878,-3.12191 12.4878,-6.24394 v -12.48777 c 6.47924,0 12.48781,6.24394 12.48781,12.48777 v 87.41471 h 12.48781 v -87.41471 c 0,-12.48777 -12.48781,-24.97554 -24.97562,-24.97554 v -12.48788 c 0,-3.12191 -6.2439,-6.24382 -12.4878,-6.24382 L 264.75257,453.77367 A 31.219512,43.707317 0 0 0 242.86841,441.15163 H 124.23426 v -24.97565 h -24.9756 v -12.48777 h 24.9756 v -24.97565 h 118.63415 a 31.219512,43.707317 0 0 0 21.38415,-12.59773 l 147.20122,-6.13397 c 6.2439,0 12.4878,-3.12191 12.4878,-6.24394 v -12.48777 c 37.46342,0 62.43902,24.97565 62.43902,62.43906 v 187.31708 h 12.48781 V 403.68821 c 0,-49.95129 -24.97561,-74.92683 -74.92683,-74.92683 v -12.48793 c 0,-3.12191 -6.2439,-6.24382 -12.4878,-6.24382 L 264.80134,303.91997 A 31.219512,43.707317 0 0 0 242.86841,291.29792 H 124.23426 v -24.97565 h -24.9756 v -12.48776 h 24.9756 v -24.97565 h 118.63415 a 31.219512,43.707317 0 0 0 21.38415,-12.59774 l 147.20122,-6.13397 c 6.2439,0 12.4878,-3.12191 12.4878,-6.24394 v -12.48777 c 62.43902,0 112.39025,62.43907 112.39025,112.39025 v 287.2196 h 12.4878 v -287.2196 c 0,-62.43907 -49.95122,-124.87801 -124.87805,-124.87801 v -12.48789 c 0,-3.12191 -6.2439,-6.24382 -12.4878,-6.24382 L 264.80134,154.0663 A 31.219512,43.707317 0 0 0 242.86841,141.44426 H 124.23426 V 116.46861 H 99.25866 V 79.005196 Z m 12.487801,12.487766 h 37.463415 v 37.463418 h 24.975613 v 12.48788 H 86.770847 v 87.4146 h 24.975613 v 12.48776 H 86.770847 v 37.46342 h 24.975613 v 12.48788 H 86.770847 v 87.41464 h 24.975613 v 12.48777 H 86.770847 v 37.46342 h 24.975613 v 12.48788 H 86.770847 v 87.4146 h 24.975613 v 12.48776 H 86.770847 v 37.46342 H 49.307432 Z M 99.25866,153.93203 h 62.43902 v 62.43906 H 99.25866 Z m 74.92682,0 h 12.48781 v 62.43906 h -12.48781 z m 24.97561,0 h 12.4878 v 62.43906 h -12.4878 z m 24.97562,0 h 18.7317 a 18.731708,31.219512 0 0 1 18.73171,31.21947 18.731708,31.219512 0 0 1 -18.73171,31.21959 h -18.7317 V 185.1515 Z m 49.95121,12.48776 h 37.46342 v 24.97565 h 12.4878 v -21.85362 h 37.46341 v 18.73171 h 12.48782 v -15.6098 h 37.46341 v 24.97565 H 398.96597 V 185.1515 h -12.4878 v 12.48788 h -37.46342 v -15.60979 h -12.4878 v 18.73171 h -37.46341 v -21.85362 h -12.48782 v 24.97553 h -12.4878 z M 99.25866,303.78569 h 62.43902 V 366.2248 H 99.25866 Z m 74.92682,0 h 12.48781 v 62.43911 h -12.48781 z m 24.97561,0 h 12.4878 v 62.43911 h -12.4878 z m 24.97562,0 h 18.7317 a 18.731708,31.219512 0 0 1 18.73171,31.21952 18.731708,31.219512 0 0 1 -18.73171,31.21959 h -18.7317 v -31.21959 z m 49.95121,12.48776 h 37.46342 v 24.9757 h 12.4878 v -21.85367 h 37.46341 v 18.73176 h 12.48782 v -15.60985 h 37.46341 v 24.9757 h -12.48781 v -12.48788 h -12.4878 v 12.48788 H 349.01475 V 331.8833 h -12.4878 v 18.7317 h -37.46341 v -21.85362 h -12.48782 v 24.97554 h -12.4878 z M 99.25866,453.6394 h 62.43902 v 62.43906 H 99.25866 Z m 74.92682,0 h 12.48781 v 62.43906 h -12.48781 z m 24.97561,0 h 12.4878 v 62.43906 h -12.4878 z m 24.97562,0 h 18.7317 a 18.731708,31.219512 0 0 1 18.73171,31.21947 18.731708,31.219512 0 0 1 -18.73171,31.21959 h -18.7317 v -31.21959 z m 49.95121,12.48776 h 37.46342 v 24.97565 h 12.4878 v -21.85362 h 37.46341 v 18.73171 h 12.48782 v -15.6098 h 37.46341 v 24.97565 h -12.48781 v -12.48788 h -12.4878 v 12.48788 h -37.46342 v -15.60979 h -12.4878 v 18.7317 h -37.46341 v -21.85362 h -12.48782 v 24.97554 h -12.4878 z"
       style="stroke-width:11.7995" />
  </g>
</svg>
