<?xml version="1.0" encoding="UTF-8" standalone="no"?>
<!-- Created with Inkscape (http://www.inkscape.org/) -->

<svg
   width="512mm"
   height="512mm"
   viewBox="0 0 512 512"
   version="1.1"
   id="svg963"
   sodipodi:docname="fiber.svg"
   inkscape:version="1.1.1 (3bf5ae0d25, 2021-09-20)"
   xmlns:inkscape="http://www.inkscape.org/namespaces/inkscape"
   xmlns:sodipodi="http://sodipodi.sourceforge.net/DTD/sodipodi-0.dtd"
   xmlns="http://www.w3.org/2000/svg"
   xmlns:svg="http://www.w3.org/2000/svg">
  <defs
     id="defs7" />
  <sodipodi:namedview
     id="namedview5"
     pagecolor="#ffffff"
     bordercolor="#666666"
     borderopacity="1.0"
     inkscape:pageshadow="2"
     inkscape:pageopacity="0.0"
     inkscape:pagecheckerboard="0"
     inkscape:document-units="mm"
     showgrid="false"
     fit-margin-top="0"
     fit-margin-left="0"
     fit-margin-right="0"
     fit-margin-bottom="0"
     inkscape:zoom="0.23856525"
     inkscape:cx="2854.5649"
     inkscape:cy="1309.9142"
     inkscape:window-width="2560"
     inkscape:window-height="1351"
     inkscape:window-x="2551"
     inkscape:window-y="-9"
     inkscape:window-maximized="1"
     inkscape:current-layer="svg963" />
  <path
     id="path31930-7"
     d="M 99.90244,0 C 68.99513,0 37.46341,31.21947 37.46341,62.439058 V 93.658528 124.878 H 24.975611 c -3.121959,0 -6.243906,6.24394 -6.243906,12.48788 L 12.597699,284.56712 C 4.708838,290.27466 0.196684,297.93182 0,305.95123 V 462.0487 h 12.487799 v 24.97565 H 24.975611 C 24.975611,500.81809 33.362112,512 43.707316,512 54.052531,512 62.43902,500.81809 62.43902,487.02435 H 74.92683 V 462.0487 h 12.4878 V 305.95123 c 0,-8.21233 -4.53994,-16.09239 -12.62205,-21.9329 L 68.68293,137.36588 c 0,-6.24394 -3.12195,-12.48788 -6.24391,-12.48788 H 49.951209 v -21.85362 -9.365852 -31.21947 c 0,-18.731705 31.219531,-49.951293 49.951231,-49.951293 h 99.90243 c 18.73171,0 49.95121,31.219588 49.95121,49.951293 V 449.56094 c 0,31.21947 31.53171,62.43906 62.43902,62.43906 h 99.90242 c 30.90738,0 62.43907,-31.21959 62.43907,-62.43906 v -31.21947 -31.21959 h 12.48775 c 3.12193,0 6.24394,-6.24383 6.24394,-12.48776 l 6.10968,-146.65245 C 507.46001,222.14116 511.99493,214.2611 512,206.04877 V 49.951175 H 499.51212 V 24.975647 H 487.02434 C 487.02434,11.181914 478.63784,0 468.29265,0 457.94742,0 449.56093,11.181914 449.56093,24.975647 H 437.07317 V 49.951175 H 424.58539 V 206.04877 c 0.19705,8.01941 4.70884,15.67657 12.59763,21.38411 l 6.13397,147.20124 c 0,6.24393 3.12203,12.48776 6.24394,12.48776 h 12.48778 v 31.21959 31.21947 c 0,18.73171 -31.21948,49.95118 -49.95119,49.95118 H 312.1951 c -18.7317,0 -49.95121,-31.21947 -49.95121,-49.95118 V 62.439058 C 262.24389,31.21947 230.71219,0 199.80487,0 Z m 368.39021,12.487765 c 3.44852,0 6.24394,5.853259 6.24394,12.78051 h -12.48788 c 0,-6.927251 2.79541,-12.78051 6.24394,-12.78051 z m -18.73172,24.975647 h 37.46341 v 12.487763 h -37.46341 z m -12.48776,24.975646 h 62.43895 V 124.878 H 437.07317 Z M 31.219504,137.36588 h 24.975611 v 37.4634 H 40.585357 v 12.48777 H 59.31706 v 37.46342 H 37.46341 v 12.48776 h 24.97561 v 37.46342 H 24.975611 V 262.24388 H 49.951209 V 249.75612 H 28.097558 V 212.2927 H 46.829263 V 199.80482 H 31.219504 V 162.34141 H 43.707316 V 149.85365 H 31.219504 Z m 405.853666,0 h 62.43895 v 12.48777 h -62.43895 z m 0,24.97553 h 62.43895 v 12.48787 h -62.43895 z m 0,24.97564 h 31.21948 31.21947 v 18.73172 c 0,10.3452 -13.97757,18.7317 -31.21947,18.7317 -17.24191,0 -31.21948,-8.3865 -31.21948,-18.7317 z m 12.48776,49.95118 h 37.46341 v 37.46342 h -24.97563 v 12.48788 h 21.85372 v 37.46341 h -18.73169 v 12.48776 h 15.60966 v 37.46342 h -24.97553 v -12.48777 h 12.48778 v -12.48788 h -12.48778 v -37.46343 h 15.60969 v -12.48776 h -18.7317 v -37.4634 h 21.85373 v -12.48776 h -24.97566 z m -405.853614,49.9513 c 17.241924,0 31.219514,8.3865 31.219514,18.7317 v 18.73171 H 43.707316 12.487799 v -18.73171 c 0,-10.3452 13.977605,-18.7317 31.219517,-18.7317 z M 12.487799,337.1707 H 74.92683 v 12.48777 H 12.487799 Z m 0,24.97565 H 74.92683 v 12.48777 H 12.487799 Z m 0,24.97553 H 74.92683 v 62.43906 H 12.487799 Z M 24.975611,462.0487 H 62.43902 v 12.48789 H 24.975611 Z m 12.487799,24.68301 h 12.487799 c 0,6.92726 -2.795374,12.78041 -6.243893,12.78041 -3.448508,0 -6.243906,-5.85315 -6.243906,-12.78041 z"
     style="stroke-width:11.7994" />
</svg>
