<?xml version="1.0" encoding="UTF-8" standalone="no"?>
<!-- Created with Inkscape (http://www.inkscape.org/) -->

<svg
   width="120mm"
   height="120mm"
   viewBox="0 0 120 120"
   version="1.1"
   id="svg28164"
   sodipodi:docname="ont-found-no-bg.svg"
   inkscape:version="1.1.1 (3bf5ae0d25, 2021-09-20)"
   xmlns:inkscape="http://www.inkscape.org/namespaces/inkscape"
   xmlns:sodipodi="http://sodipodi.sourceforge.net/DTD/sodipodi-0.dtd"
   xmlns="http://www.w3.org/2000/svg"
   xmlns:svg="http://www.w3.org/2000/svg">
  <defs
     id="defs11" />
  <sodipodi:namedview
     id="namedview9"
     pagecolor="#ffffff"
     bordercolor="#666666"
     borderopacity="1.0"
     inkscape:pageshadow="2"
     inkscape:pageopacity="0.0"
     inkscape:pagecheckerboard="0"
     inkscape:document-units="mm"
     showgrid="false"
     fit-margin-top="0"
     fit-margin-left="0"
     fit-margin-right="0"
     fit-margin-bottom="0"
     inkscape:zoom="1.0051205"
     inkscape:cx="-90.536408"
     inkscape:cy="8.4566975"
     inkscape:window-width="2560"
     inkscape:window-height="1351"
     inkscape:window-x="2551"
     inkscape:window-y="-9"
     inkscape:window-maximized="1"
     inkscape:current-layer="svg28164" />
  <path
     id="path31930"
     d="m 9.3495634,53.470131 v 6.35 c 0,0.584491 0.473832,1.058334 1.0583346,1.058334 h 0.290938 2.884063 v 1.058333 c 0,0.264583 0.529167,0.529167 1.058334,0.529167 l 12.428702,0.517789 c 0.49499,0.684954 1.162822,1.069287 1.858801,1.069711 h 13.229166 c 0,-2.469445 0,-4.938889 0,-7.408334 H 28.928736 c -0.67963,0.01667 -1.328582,0.399071 -1.812293,1.067647 l -12.47521,0.519853 c -0.529167,0 -1.058334,0.264584 -1.058334,0.529167 v 1.058333 h -2.742987 c -0.131088,-0.0042 -0.276807,0 -0.432014,0 v -6.35 z m 19.5791726,4.233334 h 1.5875 v 2.645833 2.645833 h -1.5875 c -0.876753,0 -1.5875,-1.184592 -1.5875,-2.645833 0,-1.461241 0.710747,-2.645833 1.5875,-2.645833 z m 2.645833,0 h 1.058333 v 5.291666 h -1.058333 z m 2.116667,0 h 1.058333 v 5.291666 h -1.058333 z m 2.116666,0 h 5.291667 v 5.291666 h -5.291667 z m -10.583333,1.058333 h 1.058333 v 3.175 h -3.175 v -2.116667 h -1.058333 v 1.852084 h -3.175001 v -1.5875 h -1.058333 v 1.322916 h -3.175002 v -2.116666 h 1.058334 v 1.058333 H 16.7579 v -1.058333 h 3.175002 v 1.322916 h 1.058334 v -1.5875 h 3.175 v 1.852084 h 1.058333 z"
     sodipodi:nodetypes="cssccsccccccccscccccscccssscccccccccccccccccccccccccccccccccccccccc"
     style="fill:#0055d4" />
  <path
     d="m 41.55654,69.101362 h 71.6139 V 51.815249 H 41.55654 Z M 53.198204,68.043028 H 42.614874 V 66.10275 h 8.11389 V 54.477194 h -8.11389 v -1.603611 h 10.58333 z m 43.744457,0 H 54.256544 V 52.873583 h 42.686117 z m 15.169449,0 H 98.000991 V 66.10275 h 12.029729 l -0.0353,-11.1125 H 98.000971 V 52.873583 H 112.11209 Z M 49.670434,55.343027 v 9.877779 h -7.05556 v -9.877779 h 3.81 z m 56.444446,1.411112 v 0.705555 h -1.76389 v 0.705556 h 1.76389 v 0.705555 h -1.76389 v 0.705556 h 1.76389 v 0.705556 h -1.76389 v 0.705555 h 1.76389 v 0.705556 h -1.76389 v 0.705555 h 1.76389 v 0.705556 h -1.76389 v 0.705556 h 1.76389 v 1.411111 h -8.113889 l 0.0706,-4.198056 -0.0706,-4.974167 h 8.113889 z m 2.82223,8.466667 h -1.76389 v -9.172223 l 1.75727,-0.01654"
     id="path2"
     style="fill:#ffffff" />
</svg>
