<?xml version="1.0" encoding="iso-8859-1"?>
<!-- Generator: Adobe Illustrator 11.0, SVG Export Plug-In . SVG Version: 6.0.0 Build 78)  -->
<!DOCTYPE svg PUBLIC "-//W3C//DTD SVG 1.0//EN"    "http://www.w3.org/TR/2001/REC-SVG-20010904/DTD/svg10.dtd" [
	<!ENTITY ns_flows "http://ns.adobe.com/Flows/1.0/">
	<!ENTITY ns_extend "http://ns.adobe.com/Extensibility/1.0/">
	<!ENTITY ns_ai "http://ns.adobe.com/AdobeIllustrator/10.0/">
	<!ENTITY ns_graphs "http://ns.adobe.com/Graphs/1.0/">
	<!ENTITY ns_vars "http://ns.adobe.com/Variables/1.0/">
	<!ENTITY ns_imrep "http://ns.adobe.com/ImageReplacement/1.0/">
	<!ENTITY ns_sfw "http://ns.adobe.com/SaveForWeb/1.0/">
	<!ENTITY ns_custom "http://ns.adobe.com/GenericCustomNamespace/1.0/">
	<!ENTITY ns_adobe_xpath "http://ns.adobe.com/XPath/1.0/">
	<!ENTITY ns_svg "http://www.w3.org/2000/svg">
	<!ENTITY ns_xlink "http://www.w3.org/1999/xlink">
	<!ENTITY st0 "fill:none;stroke:#000000;stroke-width:2;stroke-miterlimit:1;">
	<!ENTITY st1 "adobe-knockout:false;">
	<!ENTITY st2 "fill:#8080FF;">
	<!ENTITY st3 "adobe-knockout:true;">
	<!ENTITY st4 "fill:none;stroke:#000000;stroke-width:1.9358983;adobe-knockout:false;">
	<!ENTITY st5 "fill:#FF8080;">
	<!ENTITY st6 "fill:none;stroke:#000000;stroke-width:2;">
	<!ENTITY st7 "fill:#A2FF80;">
	<!ENTITY st8 "opacity:0.39;fill:#FFFFFF;">
]>
<svg 
	 xmlns:x="&ns_extend;" xmlns:i="&ns_ai;" xmlns:graph="&ns_graphs;" i:viewOrigin="6.4765625 366.5009766" i:rulerOrigin="1 0" i:pageBounds="-1 400 599 0"
	 xmlns="&ns_svg;" xmlns:xlink="&ns_xlink;" xmlns:a="http://ns.adobe.com/AdobeSVGViewerExtensions/3.0/"
	 width="571.0244141" height="352.0048828" viewBox="0 0 571.0244141 352.0048828"
	 style="overflow:visible;enable-background:new 0 0 571.0244141 352.0048828" xml:space="preserve">
	<metadata>
		<variableSets  xmlns="&ns_vars;">
			<variableSet  varSetName="binding1" locked="none">
				<variables></variables>
				<v:sampleDataSets  xmlns="&ns_custom;" xmlns:v="&ns_vars;"></v:sampleDataSets>
			</variableSet>
		</variableSets>
		<sfw  xmlns="&ns_sfw;">
			<slices></slices>
			<sliceSourceBounds  y="14.4960938" x="6.4765625" width="571.0244141" height="352.0048828" bottomLeftOrigin="true">
				</sliceSourceBounds>
		</sfw>
	</metadata>
	<g id="Livello_5" i:layer="yes" i:dimmedPercent="50" i:rgbTrio="#FFFFFFFF4F00">
		<g id="Livello_3" i:layer="yes" i:dimmedPercent="50" i:rgbTrio="#4F00FFFF4F00">
			<rect x="196.0234375" y="6.5009766" i:knockout="Off" style="&st5;" width="78.5029297" height="300"/> 
			<rect x="346.0234375" y="6.5009766" i:knockout="Off" style="&st7;" width="22.2529297" height="300"/> 
			<rect x="425.0205078" y="6.5009766" i:knockout="Off" style="&st2;" width="22.2529297" height="300"/> 
		</g>
		<g id="Livello_2" i:layer="yes" i:dimmedPercent="50" i:rgbTrio="#FFFF4F004F00">
			<g i:knockout="Off">
				<g i:knockout="On" style="&st3;">
					<polyline i:knockout="Off" style="&st4;" points="564.1904297,305.5009766 113.8413086,305.5009766 113.8413086,6.8344727 "/>
					<polygon i:knockout="Off" style="&st1;" points="113.8413086,0 117.7758789,9.6308594 113.8413086,7.3452148 
						109.9072266,9.6308594 "/>
					<polygon i:knockout="Off" style="&st1;" points="571.0244141,305.5009766 561.3935547,309.4355469 563.6796875,305.5009766 
						561.3935547,301.5664063 "/>
				</g>
			</g>
			<g i:knockout="Off">
				<path i:knockout="Off" d="M241.0800781,337.0048828h1.5957031l2.4550781,9.8525391l2.4482422-9.8525391h1.7753906
					l2.4560547,9.8525391l2.4472656-9.8525391h1.6035156l-2.9326172,11.65625h-1.9873047l-2.4628906-10.1181641
					l-2.4863281,10.1181641h-1.9873047L241.0800781,337.0048828z"/>
				<path i:knockout="Off" d="M263.7207031,343.6611328v5h-1.4375v-1.34375
					c-0.3291016,0.5341797-0.7392578,0.9277344-1.2304688,1.1816406c-0.4902344,0.2539063-1.0908203,0.3808594-1.8007813,0.3808594
					c-0.8984375,0-1.6123047-0.2509766-2.1425781-0.7539063s-0.7949219-1.1757813-0.7949219-2.0195313
					c0-0.984375,0.3300781-1.7265625,0.9902344-2.2265625s1.6455078-0.75,2.9560547-0.75h2.0224609v-0.140625
					c0-0.6611328-0.2177734-1.1728516-0.6523438-1.5351563c-0.4355469-0.3623047-1.0458984-0.5429688-1.8320313-0.5429688
					c-0.5,0-0.9873047,0.0595703-1.4609375,0.1796875c-0.4746094,0.1201172-0.9296875,0.2998047-1.3671875,0.5390625v-1.34375
					c0.5253906-0.1982422,1.0361328-0.3466797,1.53125-0.4453125c0.4941406-0.0986328,0.9765625-0.1484375,1.4453125-0.1484375
					c1.265625,0,2.2109375,0.328125,2.8359375,0.984375S263.7207031,342.328125,263.7207031,343.6611328z M260.8486328,344.2548828
					c-1.1650391,0-1.9736328,0.1318359-2.4228516,0.3974609c-0.4492188,0.2636719-0.6738281,0.7148438-0.6738281,1.3525391
					c0,0.5078125,0.1679688,0.9111328,0.5058594,1.2089844c0.3359375,0.2978516,0.7949219,0.4472656,1.375,0.4472656
					c0.8007813,0,1.4414063-0.28125,1.9257813-0.84375c0.4824219-0.5625,0.7246094-1.3095703,0.7246094-2.2431641v-0.3193359
					H260.8486328z"/>
				<path i:knockout="Off" d="M265.6191406,339.9111328h1.5263672l2.7392578,7.34375l2.7392578-7.34375h1.5263672l-3.2871094,8.75
					H268.90625L265.6191406,339.9111328z"/>
				<path i:knockout="Off" d="M283.6191406,343.9267578v0.703125h-6.625c0.0625,0.9873047,0.3613281,1.7392578,0.8955078,2.2558594
					s1.2783203,0.7753906,2.2333984,0.7753906c0.5527344,0,1.0878906-0.0673828,1.6074219-0.203125
					c0.5185547-0.1357422,1.0332031-0.3388672,1.5449219-0.609375v1.375
					c-0.5166016,0.2138672-1.0458984,0.3759766-1.5878906,0.4882813s-1.0917969,0.1679688-1.6503906,0.1679688
					c-1.3964844,0-2.5039063-0.40625-3.3193359-1.21875s-1.2236328-1.9111328-1.2236328-3.296875
					c0-1.4326172,0.3867188-2.5693359,1.1621094-3.4101563s1.8203125-1.2617188,3.1347656-1.2617188
					c1.1796875,0,2.1123047,0.3798828,2.7988281,1.1396484
					C283.2753906,341.5908203,283.6191406,342.6230469,283.6191406,343.9267578z M282.1816406,343.5048828
					c-0.0107422-0.7880859-0.2314453-1.4179688-0.6621094-1.8876953c-0.4316406-0.4707031-1.0019531-0.7060547-1.7128906-0.7060547
					c-0.8046875,0-1.4472656,0.2275391-1.9316406,0.6816406c-0.4824219,0.4541016-0.7607422,1.0947266-0.8339844,1.9199219
					L282.1816406,343.5048828z"/>
				<path i:knockout="Off" d="M285.9628906,336.5048828h1.4375v12.15625h-1.4375V336.5048828z"/>
				<path i:knockout="Off" d="M297.9082031,343.9267578v0.703125h-6.625c0.0625,0.9873047,0.3613281,1.7392578,0.8955078,2.2558594
					s1.2783203,0.7753906,2.2333984,0.7753906c0.5527344,0,1.0878906-0.0673828,1.6074219-0.203125
					c0.5185547-0.1357422,1.0332031-0.3388672,1.5449219-0.609375v1.375
					c-0.5166016,0.2138672-1.0458984,0.3759766-1.5878906,0.4882813s-1.0917969,0.1679688-1.6503906,0.1679688
					c-1.3964844,0-2.5039063-0.40625-3.3193359-1.21875s-1.2236328-1.9111328-1.2236328-3.296875
					c0-1.4326172,0.3867188-2.5693359,1.1621094-3.4101563s1.8203125-1.2617188,3.1347656-1.2617188
					c1.1796875,0,2.1123047,0.3798828,2.7988281,1.1396484
					C297.5644531,341.5908203,297.9082031,342.6230469,297.9082031,343.9267578z M296.4707031,343.5048828
					c-0.0107422-0.7880859-0.2314453-1.4179688-0.6621094-1.8876953c-0.4316406-0.4707031-1.0019531-0.7060547-1.7128906-0.7060547
					c-0.8046875,0-1.4472656,0.2275391-1.9316406,0.6816406c-0.4824219,0.4541016-0.7607422,1.0947266-0.8339844,1.9199219
					L296.4707031,343.5048828z"/>
				<path i:knockout="Off" d="M307.5644531,343.3691406v5.2919922h-1.4375v-5.2451172
					c0-0.8271484-0.1621094-1.4453125-0.4863281-1.8574219c-0.3251953-0.4101563-0.8125-0.6162109-1.4609375-0.6162109
					c-0.78125,0-1.3964844,0.2470703-1.8457031,0.7412109c-0.4511719,0.4941406-0.6757813,1.1679688-0.6757813,2.0214844v4.9560547
					h-1.4375v-8.75h1.4375v1.34375c0.3447266-0.5234375,0.7519531-0.9150391,1.2197266-1.1738281
					s1.0078125-0.3886719,1.6201172-0.3886719c1.0078125,0,1.7714844,0.3115234,2.2890625,0.9326172
					C307.3046875,341.2470703,307.5644531,342.1621094,307.5644531,343.3691406z"/>
				<path i:knockout="Off" d="M317.5800781,347.5605469c0,1.5-0.3300781,2.6152344-0.9902344,3.3476563
					c-0.6601563,0.7304688-1.6699219,1.0966797-3.03125,1.0966797c-0.5039063,0-0.9804688-0.0380859-1.4267578-0.1152344
					c-0.4472656-0.0771484-0.8808594-0.1943359-1.3017578-0.3535156v-1.40625
					c0.4199219,0.234375,0.8359375,0.4072266,1.2460938,0.5195313s0.828125,0.1679688,1.2539063,0.1679688
					c0.9394531,0,1.6435547-0.2490234,2.1113281-0.7451172c0.4667969-0.4960938,0.7011719-1.2460938,0.7011719-2.25v-0.6923828
					c-0.296875,0.5126953-0.6757813,0.8964844-1.1386719,1.1503906s-1.0175781,0.3808594-1.6621094,0.3808594
					c-1.0722656,0-1.9355469-0.4091797-2.5917969-1.2275391c-0.6542969-0.8183594-0.9824219-1.9023438-0.9824219-3.2529297
					c0-1.3554688,0.328125-2.4423828,0.9824219-3.2607422c0.65625-0.8183594,1.5195313-1.2275391,2.5917969-1.2275391
					c0.6445313,0,1.1992188,0.1269531,1.6621094,0.3808594s0.8417969,0.6376953,1.1386719,1.1503906v-1.3125h1.4375V347.5605469z
					 M316.1425781,344.1806641c0-1.0380859-0.2138672-1.8427734-0.6416016-2.4130859s-1.0273438-0.8564453-1.7998047-0.8564453
					c-0.7675781,0-1.3652344,0.2861328-1.7929688,0.8564453s-0.640625,1.375-0.640625,2.4130859
					c0,1.0332031,0.2128906,1.8349609,0.640625,2.4052734c0.4277344,0.5712891,1.0253906,0.8564453,1.7929688,0.8564453
					c0.7724609,0,1.3720703-0.2851563,1.7998047-0.8564453C315.9287109,346.015625,316.1425781,345.2138672,316.1425781,344.1806641
					z"/>
				<path i:knockout="Off" d="M327.8613281,343.3691406v5.2919922h-1.4375v-5.2451172
					c0-0.8271484-0.1621094-1.4453125-0.4863281-1.8574219c-0.3251953-0.4101563-0.8125-0.6162109-1.4609375-0.6162109
					c-0.78125,0-1.3964844,0.2470703-1.8457031,0.7412109c-0.4511719,0.4941406-0.6757813,1.1679688-0.6757813,2.0214844v4.9560547
					h-1.4375v-12.15625h1.4375v4.75c0.3447266-0.5234375,0.7519531-0.9150391,1.2197266-1.1738281
					s1.0078125-0.3886719,1.6201172-0.3886719c1.0078125,0,1.7714844,0.3115234,2.2890625,0.9326172
					C327.6015625,341.2470703,327.8613281,342.1621094,327.8613281,343.3691406z"/>
				<path i:knockout="Off" d="M332.1269531,337.4111328v2.5h2.96875v1.125h-2.96875v4.7333984
					c0,0.7109375,0.0976563,1.1679688,0.2929688,1.3691406c0.1962891,0.203125,0.5947266,0.3037109,1.1953125,0.3037109h1.4804688
					v1.21875h-1.4804688c-1.1074219,0-1.8730469-0.2080078-2.2939453-0.6230469s-0.6318359-1.1708984-0.6318359-2.2685547
					v-4.7333984h-1.0625v-1.125h1.0625v-2.5H332.1269531z"/>
				<path i:knockout="Off" d="M345.5175781,336.5048828c-0.6982422,1.1982422-1.2167969,2.3828125-1.5546875,3.5546875
					c-0.3388672,1.171875-0.5078125,2.359375-0.5078125,3.5625s0.1699219,2.3945313,0.5117188,3.5742188
					c0.3408203,1.1796875,0.8574219,2.3662109,1.5507813,3.5585938h-1.25
					c-0.7841797-1.2236328-1.3710938-2.4267578-1.7597656-3.609375c-0.3896484-1.1826172-0.5839844-2.3564453-0.5839844-3.5234375
					c0-1.1611328,0.1933594-2.3310547,0.5800781-3.5078125s0.9746094-2.3798828,1.7636719-3.609375H345.5175781z"/>
				<path i:knockout="Off" d="M348.1660156,352.0048828v-12.09375h1.4375v5.4150391
					c0,0.7597656,0.1796875,1.3339844,0.5410156,1.7216797c0.3603516,0.3876953,0.8935547,0.5820313,1.5996094,0.5820313
					c0.7734375,0,1.3544922-0.2197266,1.7441406-0.6591797c0.3886719-0.4394531,0.5839844-1.0996094,0.5839844-1.9794922v-5.0800781
					h1.4375v6.7060547c0,0.3144531,0.0449219,0.5458984,0.1357422,0.6953125s0.2314453,0.2236328,0.4228516,0.2236328
					c0.046875,0,0.1113281-0.0146484,0.1933594-0.0449219c0.0830078-0.0302734,0.1972656-0.0771484,0.3417969-0.1425781v1.1796875
					c-0.2128906,0.1201172-0.4140625,0.2080078-0.6035156,0.265625s-0.375,0.0859375-0.5566406,0.0859375
					c-0.3583984,0-0.6445313-0.1015625-0.8574219-0.3046875s-0.3574219-0.5126953-0.4355469-0.9296875
					c-0.2617188,0.4111328-0.5820313,0.7197266-0.9609375,0.9257813s-0.8242188,0.3085938-1.3359375,0.3085938
					c-0.5332031,0-0.9863281-0.1015625-1.3603516-0.3046875s-0.6708984-0.5078125-0.8896484-0.9140625v4.34375H348.1660156z"/>
				<path i:knockout="Off" d="M365.3242188,341.5761719c0.359375-0.6435547,0.7910156-1.1181641,1.2929688-1.4238281
					c0.5019531-0.3066406,1.0927734-0.4599609,1.7724609-0.4599609c0.9150391,0,1.6201172,0.3193359,2.1171875,0.9560547
					c0.4970703,0.6376953,0.7451172,1.5449219,0.7451172,2.7207031v5.2919922h-1.4375v-5.2451172
					c0-0.8378906-0.1503906-1.4589844-0.4492188-1.8652344c-0.2988281-0.4052734-0.7558594-0.6083984-1.3691406-0.6083984
					c-0.75,0-1.3427734,0.2470703-1.7783203,0.7412109s-0.6533203,1.1679688-0.6533203,2.0214844v4.9560547h-1.4375v-5.2451172
					c0-0.8427734-0.1503906-1.4648438-0.4492188-1.8691406c-0.2988281-0.4023438-0.7607422-0.6044922-1.3847656-0.6044922
					c-0.7402344,0-1.3271484,0.2490234-1.7626953,0.7451172c-0.4355469,0.4980469-0.6533203,1.1699219-0.6533203,2.0175781
					v4.9560547h-1.4375v-8.75h1.4375v1.34375c0.3300781-0.5341797,0.7246094-0.9277344,1.1855469-1.1816406
					c0.4599609-0.2539063,1.0068359-0.3808594,1.6396484-0.3808594c0.6376953,0,1.1806641,0.1611328,1.6279297,0.4824219
					S365.109375,340.9628906,365.3242188,341.5761719z"/>
				<path i:knockout="Off" d="M373.8378906,336.5048828h1.25c0.7832031,1.2294922,1.3701172,2.4326172,1.7597656,3.609375
					c0.3886719,1.1767578,0.5839844,2.3466797,0.5839844,3.5078125c0,1.1669922-0.1953125,2.3408203-0.5839844,3.5234375
					c-0.3896484,1.1826172-0.9765625,2.3857422-1.7597656,3.609375h-1.25
					c0.6923828-1.1923828,1.2089844-2.3789063,1.5507813-3.5585938c0.3408203-1.1796875,0.5117188-2.3710938,0.5117188-3.5742188
					s-0.1708984-2.390625-0.5117188-3.5625C375.046875,338.8876953,374.5302734,337.703125,373.8378906,336.5048828z"/>
			</g>
			<g i:knockout="Off">
				<path i:knockout="Off" d="M4.453125,23.7163086h1.7890625l4.4453125,11.65625H9.046875l-1.0625-3H2.7265625l-1.0625,3H0
					L4.453125,23.7163086z M5.34375,25.2680664l-2.140625,5.7919922h4.2890625L5.34375,25.2680664z"/>
				<path i:knockout="Off" d="M13.4765625,24.1225586v2.5h2.96875v1.125h-2.96875v4.7333984
					c0,0.7109375,0.0976563,1.1679688,0.2929688,1.3691406c0.1962891,0.203125,0.5947266,0.3037109,1.1953125,0.3037109h1.4804688
					v1.21875h-1.4804688c-1.1074219,0-1.8730469-0.2080078-2.2939453-0.6230469s-0.6318359-1.1708984-0.6318359-2.2685547
					v-4.7333984h-1.0625v-1.125h1.0625v-2.5H13.4765625z"/>
				<path i:knockout="Off" d="M19.75,24.1225586v2.5h2.96875v1.125H19.75v4.7333984
					c0,0.7109375,0.0976563,1.1679688,0.2929688,1.3691406c0.1962891,0.203125,0.5947266,0.3037109,1.1953125,0.3037109H22.71875
					v1.21875h-1.4804688c-1.1074219,0-1.8730469-0.2080078-2.2939453-0.6230469S18.3125,33.5786133,18.3125,32.480957v-4.7333984
					H17.25v-1.125h1.0625v-2.5H19.75z"/>
				<path i:knockout="Off" d="M32.0859375,30.6381836v0.703125h-6.625c0.0625,0.9873047,0.3613281,1.7392578,0.8955078,2.2558594
					s1.2783203,0.7753906,2.2333984,0.7753906c0.5527344,0,1.0878906-0.0673828,1.6074219-0.203125
					c0.5185547-0.1357422,1.0332031-0.3388672,1.5449219-0.609375v1.375
					c-0.5166016,0.2138672-1.0458984,0.3759766-1.5878906,0.4882813s-1.0917969,0.1679688-1.6503906,0.1679688
					c-1.3964844,0-2.5039063-0.40625-3.3193359-1.21875s-1.2236328-1.9111328-1.2236328-3.296875
					c0-1.4326172,0.3867188-2.5693359,1.1621094-3.4101563s1.8203125-1.2617188,3.1347656-1.2617188
					c1.1796875,0,2.1123047,0.3798828,2.7988281,1.1396484C31.7421875,28.3022461,32.0859375,29.3344727,32.0859375,30.6381836z
					 M30.6484375,30.2163086c-0.0107422-0.7880859-0.2314453-1.4179688-0.6621094-1.8876953
					c-0.4316406-0.4707031-1.0019531-0.7060547-1.7128906-0.7060547c-0.8046875,0-1.4472656,0.2275391-1.9316406,0.6816406
					c-0.4824219,0.4541016-0.7607422,1.0947266-0.8339844,1.9199219L30.6484375,30.2163086z"/>
				<path i:knockout="Off" d="M41.7421875,30.0805664v5.2919922h-1.4375v-5.2451172
					c0-0.8271484-0.1621094-1.4453125-0.4863281-1.8574219c-0.3251953-0.4101563-0.8125-0.6162109-1.4609375-0.6162109
					c-0.78125,0-1.3964844,0.2470703-1.8457031,0.7412109c-0.4511719,0.4941406-0.6757813,1.1679688-0.6757813,2.0214844v4.9560547
					h-1.4375v-8.75h1.4375v1.34375c0.3447266-0.5234375,0.7519531-0.9150391,1.2197266-1.1738281
					s1.0078125-0.3886719,1.6201172-0.3886719c1.0078125,0,1.7714844,0.3115234,2.2890625,0.9326172
					C41.4824219,27.9584961,41.7421875,28.8735352,41.7421875,30.0805664z"/>
				<path i:knockout="Off" d="M44.4453125,31.9194336v-5.296875h1.4375v5.2421875
					c0,0.8251953,0.1621094,1.4443359,0.4863281,1.8574219s0.8095703,0.6191406,1.4580078,0.6191406
					c0.7783203,0,1.3935547-0.2470703,1.8466797-0.7392578c0.4511719-0.4941406,0.6777344-1.1660156,0.6777344-2.0185547v-4.9609375
					h1.4375v8.75h-1.4375v-1.34375c-0.3496094,0.5283203-0.7558594,0.9208984-1.21875,1.1777344
					c-0.4609375,0.2568359-0.9980469,0.3847656-1.609375,0.3847656c-1.0078125,0-1.7734375-0.3115234-2.2949219-0.9355469
					C44.7060547,34.0317383,44.4453125,33.1196289,44.4453125,31.9194336z"/>
				<path i:knockout="Off" d="M61.5859375,30.3725586v5h-1.4375v-1.34375
					c-0.3291016,0.5341797-0.7392578,0.9277344-1.2304688,1.1816406c-0.4902344,0.2539063-1.0908203,0.3808594-1.8007813,0.3808594
					c-0.8984375,0-1.6123047-0.2509766-2.1425781-0.7539063s-0.7949219-1.1757813-0.7949219-2.0195313
					c0-0.984375,0.3300781-1.7265625,0.9902344-2.2265625s1.6455078-0.75,2.9560547-0.75h2.0224609v-0.140625
					c0-0.6611328-0.2177734-1.1728516-0.6523438-1.5351563c-0.4355469-0.3623047-1.0458984-0.5429688-1.8320313-0.5429688
					c-0.5,0-0.9873047,0.0595703-1.4609375,0.1796875c-0.4746094,0.1201172-0.9296875,0.2998047-1.3671875,0.5390625v-1.34375
					c0.5253906-0.1982422,1.0361328-0.3466797,1.53125-0.4453125c0.4941406-0.0986328,0.9765625-0.1484375,1.4453125-0.1484375
					c1.265625,0,2.2109375,0.328125,2.8359375,0.984375S61.5859375,29.0395508,61.5859375,30.3725586z M58.7138672,30.9663086
					c-1.1650391,0-1.9736328,0.1318359-2.4228516,0.3974609c-0.4492188,0.2636719-0.6738281,0.7148438-0.6738281,1.3525391
					c0,0.5078125,0.1679688,0.9111328,0.5058594,1.2089844c0.3359375,0.2978516,0.7949219,0.4472656,1.375,0.4472656
					c0.8007813,0,1.4414063-0.28125,1.9257813-0.84375c0.4824219-0.5625,0.7246094-1.3095703,0.7246094-2.2431641v-0.3193359
					H58.7138672z"/>
				<path i:knockout="Off" d="M65.953125,24.1225586v2.5h2.96875v1.125h-2.96875v4.7333984
					c0,0.7109375,0.0976563,1.1679688,0.2929688,1.3691406c0.1962891,0.203125,0.5947266,0.3037109,1.1953125,0.3037109h1.4804688
					v1.21875h-1.4804688c-1.1074219,0-1.8730469-0.2080078-2.2939453-0.6230469s-0.6318359-1.1708984-0.6318359-2.2685547
					v-4.7333984h-1.0625v-1.125h1.0625v-2.5H65.953125z"/>
				<path i:knockout="Off" d="M70.7890625,23.2163086h1.4375v1.8125h-1.4375V23.2163086z M70.7890625,26.6225586h1.4375v8.75
					h-1.4375V26.6225586z"/>
				<path i:knockout="Off" d="M78.625,26.4038086c1.25,0,2.2314453,0.40625,2.9453125,1.21875
					c0.7128906,0.8125,1.0703125,1.9375,1.0703125,3.375c0,1.4326172-0.3574219,2.5556641-1.0703125,3.3710938
					C80.8564453,35.184082,79.875,35.5913086,78.625,35.5913086c-1.2558594,0-2.2382813-0.4072266-2.9492188-1.2226563
					s-1.0664063-1.9384766-1.0664063-3.3710938c0-1.4375,0.3554688-2.5625,1.0664063-3.375S77.3691406,26.4038086,78.625,26.4038086
					z M78.6289063,27.6225586c-0.7675781,0-1.3740234,0.3007813-1.8203125,0.9023438
					c-0.4453125,0.6015625-0.6679688,1.4257813-0.6679688,2.4726563s0.2207031,1.8710938,0.6640625,2.4726563
					s1.0517578,0.9023438,1.8242188,0.9023438c0.7617188,0,1.3652344-0.3017578,1.8115234-0.90625
					s0.6689453-1.4267578,0.6689453-2.46875c0-1.0361328-0.2226563-1.8583984-0.6689453-2.4648438
					S79.390625,27.6225586,78.6289063,27.6225586z"/>
				<path i:knockout="Off" d="M92.3359375,30.0805664v5.2919922h-1.4375v-5.2451172
					c0-0.8271484-0.1621094-1.4453125-0.4863281-1.8574219c-0.3251953-0.4101563-0.8125-0.6162109-1.4609375-0.6162109
					c-0.78125,0-1.3964844,0.2470703-1.8457031,0.7412109c-0.4511719,0.4941406-0.6757813,1.1679688-0.6757813,2.0214844v4.9560547
					h-1.4375v-8.75h1.4375v1.34375c0.3447266-0.5234375,0.7519531-0.9150391,1.2197266-1.1738281
					s1.0078125-0.3886719,1.6201172-0.3886719c1.0078125,0,1.7714844,0.3115234,2.2890625,0.9326172
					C92.0761719,27.9584961,92.3359375,28.8735352,92.3359375,30.0805664z"/>
				<path i:knockout="Off" d="M4.84375,42.4165039c-0.6982422,1.1982422-1.2167969,2.3828125-1.5546875,3.5546875
					c-0.3388672,1.171875-0.5078125,2.359375-0.5078125,3.5625s0.1699219,2.3945313,0.5117188,3.5742188
					c0.3408203,1.1796875,0.8574219,2.3652344,1.5507813,3.5585938h-1.25
					c-0.7841797-1.2246094-1.3710938-2.4267578-1.7597656-3.609375C1.4443359,51.8754883,1.25,50.7006836,1.25,49.5336914
					c0-1.1611328,0.1933594-2.3300781,0.5800781-3.5078125c0.3867188-1.1767578,0.9746094-2.3798828,1.7636719-3.609375H4.84375z"/>
				<path i:knockout="Off" d="M13.3671875,47.1352539v-4.71875h1.4375v12.15625h-1.4375v-1.3125
					c-0.3017578,0.5185547-0.6835938,0.9033203-1.1425781,1.1542969c-0.4609375,0.2509766-1.0136719,0.3769531-1.6582031,0.3769531
					c-1.0566406,0-1.9160156-0.421875-2.5800781-1.265625c-0.6621094-0.84375-0.9941406-1.953125-0.9941406-3.328125
					s0.3320313-2.484375,0.9941406-3.328125c0.6640625-0.84375,1.5234375-1.265625,2.5800781-1.265625
					c0.6445313,0,1.1972656,0.1259766,1.6582031,0.3769531C12.6835938,46.2329102,13.0654297,46.6176758,13.3671875,47.1352539z
					 M8.4921875,50.1977539c0,1.0527344,0.2167969,1.8789063,0.6484375,2.4765625
					c0.4335938,0.5996094,1.0283203,0.8984375,1.7851563,0.8984375s1.3525391-0.2988281,1.7880859-0.8984375
					c0.4355469-0.5976563,0.6533203-1.4238281,0.6533203-2.4765625s-0.2177734-1.8779297-0.6533203-2.4765625
					s-1.03125-0.8984375-1.7880859-0.8984375s-1.3515625,0.2998047-1.7851563,0.8984375
					C8.7089844,48.3198242,8.4921875,49.1450195,8.4921875,50.1977539z"/>
				<path i:knockout="Off" d="M17.8359375,42.9165039h4.0302734c1.2001953,0,2.1259766,0.25,2.7763672,0.75
					c0.6494141,0.5,0.9746094,1.2109375,0.9746094,2.1328125c0,0.7138672-0.1679688,1.28125-0.5019531,1.703125
					s-0.8242188,0.6855469-1.4726563,0.7890625c0.7832031,0.1660156,1.390625,0.5136719,1.8242188,1.0410156
					c0.4335938,0.5292969,0.6503906,1.1875,0.6503906,1.9785156c0,1.0410156-0.3554688,1.84375-1.0644531,2.4111328
					c-0.7109375,0.5673828-1.7207031,0.8505859-3.03125,0.8505859h-4.1855469V42.9165039z M19.4296875,44.2290039v3.5H21.75
					c0.765625,0,1.3359375-0.1435547,1.7109375-0.4316406c0.375-0.2871094,0.5625-0.7265625,0.5625-1.3183594
					c0-0.5859375-0.1875-1.0234375-0.5625-1.3144531c-0.375-0.2900391-0.9453125-0.4355469-1.7109375-0.4355469H19.4296875z
					 M19.4296875,49.0102539v4.25h2.5136719c0.8554688,0,1.4882813-0.1748047,1.9003906-0.5244141
					c0.4111328-0.3496094,0.6171875-0.8837891,0.6171875-1.6044922c0-0.7246094-0.2060547-1.2597656-0.6171875-1.6044922
					c-0.4121094-0.3447266-1.0449219-0.5166016-1.9003906-0.5166016H19.4296875z"/>
				<path i:knockout="Off" d="M31.3242188,42.9165039H32.65625l-4.0742188,13.15625H27.25L31.3242188,42.9165039z"/>
				<path i:knockout="Off" d="M34.109375,42.4165039h1.4375v7.1796875l4.3105469-3.7734375h1.8457031l-4.6640625,4.09375
					l4.8515625,4.65625h-1.8818359l-4.4619141-4.2734375v4.2734375h-1.4375V42.4165039z"/>
				<path i:knockout="Off" d="M50.2597656,47.4868164c0.359375-0.6425781,0.7910156-1.1171875,1.2929688-1.4238281
					c0.5019531-0.3056641,1.0927734-0.4589844,1.7724609-0.4589844c0.9150391,0,1.6201172,0.3183594,2.1171875,0.9560547
					S56.1875,48.1040039,56.1875,49.2797852v5.2929688H54.75v-5.2460938c0-0.8359375-0.1503906-1.4580078-0.4492188-1.8632813
					c-0.2988281-0.40625-0.7558594-0.609375-1.3691406-0.609375c-0.75,0-1.3427734,0.2480469-1.7783203,0.7421875
					S50.5,48.7641602,50.5,49.6176758v4.9550781h-1.4375v-5.2460938c0-0.8417969-0.1503906-1.4648438-0.4492188-1.8671875
					c-0.2988281-0.4042969-0.7607422-0.6054688-1.3847656-0.6054688c-0.7402344,0-1.3271484,0.2480469-1.7626953,0.7460938
					C45.0302734,48.0961914,44.8125,48.769043,44.8125,49.6176758v4.9550781H43.375v-8.75h1.4375v1.34375
					c0.3300781-0.5332031,0.7246094-0.9277344,1.1855469-1.1816406c0.4599609-0.2539063,1.0068359-0.3808594,1.6396484-0.3808594
					c0.6376953,0,1.1806641,0.1611328,1.6279297,0.4824219C49.7128906,46.4086914,50.0449219,46.8754883,50.2597656,47.4868164z"/>
				<path i:knockout="Off" d="M58.7734375,42.4165039h1.25c0.7832031,1.2294922,1.3701172,2.4326172,1.7597656,3.609375
					c0.3886719,1.1777344,0.5839844,2.3466797,0.5839844,3.5078125c0,1.1669922-0.1953125,2.3417969-0.5839844,3.5234375
					c-0.3896484,1.1826172-0.9765625,2.3847656-1.7597656,3.609375h-1.25
					c0.6923828-1.1933594,1.2089844-2.3789063,1.5507813-3.5585938c0.3408203-1.1796875,0.5117188-2.3710938,0.5117188-3.5742188
					s-0.1708984-2.390625-0.5117188-3.5625C59.9824219,44.7993164,59.4658203,43.6147461,58.7734375,42.4165039z"/>
			</g>
			<g i:knockout="Off">
				<path i:knockout="Off" d="M139.84375,314.2148438c0.9804688,0,1.7294922,0.3876953,2.2470703,1.1630859
					s0.7763672,1.9023438,0.7763672,3.3789063c0,1.4726563-0.2587891,2.5976563-0.7763672,3.3730469
					s-1.2666016,1.1630859-2.2470703,1.1630859s-1.7294922-0.3876953-2.2470703-1.1630859s-0.7763672-1.9003906-0.7763672-3.3730469
					c0-1.4765625,0.2587891-2.6035156,0.7763672-3.3789063S138.8632813,314.2148438,139.84375,314.2148438z
					 M139.8408203,315.1523438c-0.609375,0-1.0668945,0.2998047-1.3730469,0.8994141
					c-0.3066406,0.5996094-0.4599609,1.5019531-0.4599609,2.7050781c0,1.1992188,0.1533203,2.0996094,0.4599609,2.6992188
					c0.3061523,0.5996094,0.7636719,0.8994141,1.3730469,0.8994141c0.612793,0,1.0722656-0.2998047,1.3789063-0.8994141
					s0.4599609-1.5,0.4599609-2.6992188c0-1.203125-0.1533203-2.1054688-0.4599609-2.7050781
					S140.4536133,315.1523438,139.8408203,315.1523438z"/>
				<path i:knockout="Off" d="M145.0644531,321.6367188h1.234375v1.0107422l-0.96875,1.8798828h-0.75l0.484375-1.8798828
					V321.6367188z"/>
				<path i:knockout="Off" d="M153.8007813,314.5742188v1.078125c-0.2978516-0.1416016-0.5991211-0.25-0.9033203-0.3251953
					c-0.3037109-0.0742188-0.6049805-0.1123047-0.902832-0.1123047c-0.784668,0-1.3837891,0.2636719-1.7973633,0.7900391
					c-0.4140625,0.5273438-0.6503906,1.3242188-0.7089844,2.3896484c0.230957-0.3398438,0.5205078-0.6005859,0.8691406-0.7822266
					s0.7324219-0.2724609,1.1513672-0.2724609c0.8808594,0,1.5771484,0.2666016,2.0878906,0.7998047
					s0.7666016,1.2587891,0.7666016,2.1767578c0,0.8984375-0.265625,1.6191406-0.7978516,2.1621094
					c-0.53125,0.5429688-1.2392578,0.8144531-2.1230469,0.8144531c-1.0126953,0-1.7871094-0.3876953-2.3222656-1.1630859
					c-0.5361328-0.7753906-0.8037109-1.9003906-0.8037109-3.3730469c0-1.3828125,0.3286133-2.4863281,0.9863281-3.3085938
					s1.5405273-1.2333984,2.6484375-1.2333984c0.2973633,0,0.5976563,0.0302734,0.9013672,0.0898438
					C153.1557617,314.3642578,153.4716797,314.4541016,153.8007813,314.5742188z M151.4414063,318.2773438
					c-0.5332031,0-0.9555664,0.1816406-1.2670898,0.5449219s-0.4672852,0.8613281-0.4672852,1.4941406
					c0,0.6289063,0.1557617,1.1259766,0.4672852,1.4912109s0.7338867,0.5478516,1.2670898,0.5478516
					s0.9550781-0.1826172,1.2666016-0.5478516s0.4677734-0.8623047,0.4677734-1.4912109
					c0-0.6328125-0.15625-1.1308594-0.4677734-1.4941406S151.9746094,318.2773438,151.4414063,318.2773438z"/>
			</g>
			<g i:knockout="Off">
				<path i:knockout="Off" d="M497.5078125,322.1210938h1.9375v-6.671875l-2.109375,0.421875v-1.078125l2.0957031-0.421875
					h1.1855469v7.75h1.9375v1h-5.046875V322.1210938z"/>
				<path i:knockout="Off" d="M505.0644531,321.6367188h1.234375v1.0107422l-0.96875,1.8798828h-0.75l0.484375-1.8798828
					V321.6367188z"/>
				<path i:knockout="Off" d="M510.0947266,318.4580078c-0.5058594-0.125-0.9003906-0.3613281-1.1826172-0.7080078
					c-0.2832031-0.3476563-0.4238281-0.7705078-0.4238281-1.2705078c0-0.6982422,0.2490234-1.25,0.7480469-1.65625
					c0.4980469-0.4052734,1.1806641-0.6083984,2.0488281-0.6083984c0.8710938,0,1.5556641,0.203125,2.0527344,0.6083984
					c0.4960938,0.40625,0.7441406,0.9580078,0.7441406,1.65625c0,0.5-0.1416016,0.9228516-0.4257813,1.2705078
					c-0.2832031,0.3466797-0.6767578,0.5830078-1.1806641,0.7080078c0.5693359,0.1328125,1.0136719,0.3925781,1.3320313,0.7802734
					s0.4775391,0.8603516,0.4775391,1.4199219c0,0.8486328-0.2587891,1.5009766-0.7763672,1.9541016
					c-0.5175781,0.4541016-1.2587891,0.6806641-2.2236328,0.6806641s-1.7060547-0.2265625-2.2236328-0.6806641
					c-0.5175781-0.453125-0.7763672-1.1054688-0.7763672-1.9541016c0-0.5595703,0.1591797-1.0322266,0.4785156-1.4199219
					S509.5263672,318.5908203,510.0947266,318.4580078z M511.2822266,318.9648438
					c-0.5625,0-1.0048828,0.1503906-1.3261719,0.4521484c-0.3222656,0.3007813-0.4833984,0.7148438-0.4833984,1.2431641
					s0.1611328,0.9423828,0.4833984,1.2431641c0.3212891,0.3017578,0.7636719,0.4521484,1.3261719,0.4521484
					c0.5615234,0,1.0048828-0.1513672,1.3291016-0.4541016c0.3242188-0.3037109,0.4863281-0.7167969,0.4863281-1.2412109
					c0-0.5283203-0.1611328-0.9423828-0.4833984-1.2431641
					C512.2919922,319.1152344,511.8476563,318.9648438,511.2822266,318.9648438z M509.6601563,316.5898438
					c0,0.4521484,0.1416016,0.8046875,0.4257813,1.0576172c0.2841797,0.2539063,0.6826172,0.3798828,1.1962891,0.3798828
					c0.5087891,0,0.9072266-0.1259766,1.1962891-0.3798828c0.2871094-0.2529297,0.4316406-0.6054688,0.4316406-1.0576172
					s-0.1445313-0.8037109-0.4316406-1.0576172c-0.2890625-0.2529297-0.6875-0.3798828-1.1962891-0.3798828
					c-0.5136719,0-0.9121094,0.1269531-1.1962891,0.3798828
					C509.8017578,315.7861328,509.6601563,316.1376953,509.6601563,316.5898438z"/>
			</g>
			<g i:knockout="Off">
				<path i:knockout="Off" d="M437.5078125,322.1210938h1.9375v-6.671875l-2.109375,0.421875v-1.078125l2.0957031-0.421875
					h1.1855469v7.75h1.9375v1h-5.046875V322.1210938z"/>
				<path i:knockout="Off" d="M445.0644531,321.6367188h1.234375v1.0107422l-0.96875,1.8798828h-0.75l0.484375-1.8798828
					V321.6367188z"/>
				<path i:knockout="Off" d="M453.8007813,314.5742188v1.078125c-0.2978516-0.1416016-0.5996094-0.25-0.9033203-0.3251953
					c-0.3037109-0.0742188-0.6044922-0.1123047-0.9033203-0.1123047c-0.7841797,0-1.3828125,0.2636719-1.796875,0.7900391
					c-0.4140625,0.5273438-0.6503906,1.3242188-0.7089844,2.3896484c0.2304688-0.3398438,0.5205078-0.6005859,0.8691406-0.7822266
					s0.7324219-0.2724609,1.1513672-0.2724609c0.8808594,0,1.5771484,0.2666016,2.0878906,0.7998047
					s0.7666016,1.2587891,0.7666016,2.1767578c0,0.8984375-0.265625,1.6191406-0.7978516,2.1621094
					c-0.53125,0.5429688-1.2392578,0.8144531-2.1230469,0.8144531c-1.0126953,0-1.7871094-0.3876953-2.3222656-1.1630859
					c-0.5361328-0.7753906-0.8037109-1.9003906-0.8037109-3.3730469c0-1.3828125,0.328125-2.4863281,0.9863281-3.3085938
					s1.5410156-1.2333984,2.6484375-1.2333984c0.296875,0,0.5976563,0.0302734,0.9013672,0.0898438
					S453.4716797,314.4541016,453.8007813,314.5742188z M451.4414063,318.2773438
					c-0.5332031,0-0.9550781,0.1816406-1.2675781,0.5449219c-0.3105469,0.3632813-0.4667969,0.8613281-0.4667969,1.4941406
					c0,0.6289063,0.15625,1.1259766,0.4667969,1.4912109c0.3125,0.3652344,0.734375,0.5478516,1.2675781,0.5478516
					s0.9550781-0.1826172,1.2666016-0.5478516s0.4677734-0.8623047,0.4677734-1.4912109
					c0-0.6328125-0.15625-1.1308594-0.4677734-1.4941406S451.9746094,318.2773438,451.4414063,318.2773438z"/>
			</g>
			<g i:knockout="Off">
				<path i:knockout="Off" d="M377.5078125,322.1210938h1.9375v-6.671875l-2.109375,0.421875v-1.078125l2.0957031-0.421875
					h1.1855469v7.75h1.9375v1h-5.046875V322.1210938z"/>
				<path i:knockout="Off" d="M385.0644531,321.6367188h1.234375v1.0107422l-0.96875,1.8798828h-0.75l0.484375-1.8798828
					V321.6367188z"/>
				<path i:knockout="Off" d="M391.703125,314.3710938h1.4882813v5.703125h1.25v0.984375h-1.25v2.0625h-1.171875v-2.0625h-3.953125
					v-1.1425781L391.703125,314.3710938z M392.0195313,315.4023438l-2.9912109,4.671875h2.9912109V315.4023438z"/>
			</g>
			<g i:knockout="Off">
				<path i:knockout="Off" d="M317.5078125,322.1210938h1.9375v-6.671875l-2.109375,0.421875v-1.078125l2.0957031-0.421875
					h1.1855469v7.75h1.9375v1h-5.046875V322.1210938z"/>
				<path i:knockout="Off" d="M325.0644531,321.6367188h1.234375v1.0107422l-0.96875,1.8798828h-0.75l0.484375-1.8798828
					V321.6367188z"/>
				<path i:knockout="Off" d="M329.7773438,322.1210938h4.1328125v1h-5.5625v-1
					c0.4501953-0.4638672,1.0634766-1.0878906,1.8408203-1.8701172s1.265625-1.2861328,1.4658203-1.5126953
					c0.3789063-0.4248047,0.6445313-0.7851563,0.7949219-1.0800781c0.1513672-0.2939453,0.2265625-0.5839844,0.2265625-0.8691406
					c0-0.4638672-0.1630859-0.8427734-0.4902344-1.1357422c-0.3261719-0.2919922-0.7519531-0.4384766-1.2753906-0.4384766
					c-0.3720703,0-0.7646484,0.0644531-1.1767578,0.1943359c-0.4130859,0.1289063-0.8544922,0.3242188-1.3232422,0.5869141
					v-1.203125c0.4765625-0.1904297,0.921875-0.3349609,1.3369141-0.4326172
					c0.4140625-0.0966797,0.7939453-0.1455078,1.1376953-0.1455078c0.90625,0,1.6298828,0.2265625,2.1689453,0.6796875
					c0.5400391,0.4521484,0.8095703,1.0576172,0.8095703,1.8154297c0,0.359375-0.0673828,0.6992188-0.2021484,1.0214844
					s-0.3798828,0.7021484-0.7353516,1.1396484c-0.0976563,0.1132813-0.4091797,0.4404297-0.9326172,0.9804688
					C331.4697266,320.3925781,330.7304688,321.1494141,329.7773438,322.1210938z"/>
			</g>
			<g i:knockout="Off">
				<path i:knockout="Off" d="M257.5078125,322.1210938h1.9375v-6.671875l-2.109375,0.421875v-1.078125l2.0957031-0.421875
					h1.1855469v7.75h1.9375v1h-5.046875V322.1210938z"/>
				<path i:knockout="Off" d="M265.0644531,321.6367188h1.234375v1.0107422l-0.96875,1.8798828h-0.75l0.484375-1.8798828
					V321.6367188z"/>
				<path i:knockout="Off" d="M271.2929688,314.2148438c0.9804688,0,1.7294922,0.3876953,2.2470703,1.1630859
					s0.7763672,1.9023438,0.7763672,3.3789063c0,1.4726563-0.2587891,2.5976563-0.7763672,3.3730469
					s-1.2666016,1.1630859-2.2470703,1.1630859s-1.7294922-0.3876953-2.2470703-1.1630859s-0.7763672-1.9003906-0.7763672-3.3730469
					c0-1.4765625,0.2587891-2.6035156,0.7763672-3.3789063S270.3125,314.2148438,271.2929688,314.2148438z M271.2900391,315.1523438
					c-0.609375,0-1.0668945,0.2998047-1.3730469,0.8994141c-0.3066406,0.5996094-0.4599609,1.5019531-0.4599609,2.7050781
					c0,1.1992188,0.1533203,2.0996094,0.4599609,2.6992188c0.3061523,0.5996094,0.7636719,0.8994141,1.3730469,0.8994141
					c0.612793,0,1.0722656-0.2998047,1.3789063-0.8994141s0.4599609-1.5,0.4599609-2.6992188
					c0-1.203125-0.1533203-2.1054688-0.4599609-2.7050781S271.902832,315.1523438,271.2900391,315.1523438z"/>
			</g>
			<g i:knockout="Off">
				<path i:knockout="Off" d="M199.84375,314.2148438c0.9804688,0,1.7294922,0.3876953,2.2470703,1.1630859
					s0.7763672,1.9023438,0.7763672,3.3789063c0,1.4726563-0.2587891,2.5976563-0.7763672,3.3730469
					s-1.2666016,1.1630859-2.2470703,1.1630859s-1.7294922-0.3876953-2.2470703-1.1630859s-0.7763672-1.9003906-0.7763672-3.3730469
					c0-1.4765625,0.2587891-2.6035156,0.7763672-3.3789063S198.8632813,314.2148438,199.84375,314.2148438z
					 M199.8408203,315.1523438c-0.609375,0-1.0668945,0.2998047-1.3730469,0.8994141
					c-0.3066406,0.5996094-0.4599609,1.5019531-0.4599609,2.7050781c0,1.1992188,0.1533203,2.0996094,0.4599609,2.6992188
					c0.3061523,0.5996094,0.7636719,0.8994141,1.3730469,0.8994141c0.612793,0,1.0722656-0.2998047,1.3789063-0.8994141
					s0.4599609-1.5,0.4599609-2.6992188c0-1.203125-0.1533203-2.1054688-0.4599609-2.7050781
					S200.4536133,315.1523438,199.8408203,315.1523438z"/>
				<path i:knockout="Off" d="M205.0644531,321.6367188h1.234375v1.0107422l-0.96875,1.8798828h-0.75l0.484375-1.8798828
					V321.6367188z"/>
				<path i:knockout="Off" d="M210.0947266,318.4580078c-0.5058594-0.125-0.9003906-0.3613281-1.1826172-0.7080078
					c-0.2827148-0.3476563-0.4238281-0.7705078-0.4238281-1.2705078c0-0.6982422,0.2490234-1.25,0.7475586-1.65625
					c0.4985352-0.4052734,1.1811523-0.6083984,2.0493164-0.6083984c0.871582,0,1.5556641,0.203125,2.0522461,0.6083984
					c0.496582,0.40625,0.7446289,0.9580078,0.7446289,1.65625c0,0.5-0.1416016,0.9228516-0.425293,1.2705078
					c-0.2836914,0.3466797-0.6772461,0.5830078-1.1811523,0.7080078c0.5698242,0.1328125,1.0136719,0.3925781,1.3320313,0.7802734
					s0.4775391,0.8603516,0.4775391,1.4199219c0,0.8486328-0.2587891,1.5009766-0.7763672,1.9541016
					c-0.5175781,0.4541016-1.2587891,0.6806641-2.2236328,0.6806641s-1.7060547-0.2265625-2.2236328-0.6806641
					c-0.5175781-0.453125-0.7763672-1.1054688-0.7763672-1.9541016c0-0.5595703,0.1591797-1.0322266,0.4785156-1.4199219
					S209.5263672,318.5908203,210.0947266,318.4580078z M211.2822266,318.9648438
					c-0.5625,0-1.0043945,0.1503906-1.3261719,0.4521484c-0.3222656,0.3007813-0.4833984,0.7148438-0.4833984,1.2431641
					s0.1611328,0.9423828,0.4833984,1.2431641c0.3217773,0.3017578,0.7636719,0.4521484,1.3261719,0.4521484
					c0.5620117,0,1.0048828-0.1513672,1.3291016-0.4541016c0.3242188-0.3037109,0.4863281-0.7167969,0.4863281-1.2412109
					c0-0.5283203-0.1611328-0.9423828-0.4833984-1.2431641
					C212.2919922,319.1152344,211.8481445,318.9648438,211.2822266,318.9648438z M209.6601563,316.5898438
					c0,0.4521484,0.1416016,0.8046875,0.4257813,1.0576172c0.2841797,0.2539063,0.6826172,0.3798828,1.1962891,0.3798828
					c0.5092773,0,0.9077148-0.1259766,1.1958008-0.3798828c0.2880859-0.2529297,0.4321289-0.6054688,0.4321289-1.0576172
					s-0.144043-0.8037109-0.4321289-1.0576172c-0.2880859-0.2529297-0.6865234-0.3798828-1.1958008-0.3798828
					c-0.5136719,0-0.9121094,0.1269531-1.1962891,0.3798828
					C209.8017578,315.7861328,209.6601563,316.1376953,209.6601563,316.5898438z"/>
			</g>
			<line i:knockout="Off" style="&st0;" x1="143.5234375" y1="298.0009766" x2="143.5234375" y2="305.5009766"/>
			<line i:knockout="Off" style="&st6;" x1="203.5234375" y1="298.0009766" x2="203.5234375" y2="305.5009766"/>
			<line i:knockout="Off" style="&st6;" x1="263.5234375" y1="298.0009766" x2="263.5234375" y2="305.5009766"/>
			<line i:knockout="Off" style="&st6;" x1="323.5234375" y1="298.0009766" x2="323.5234375" y2="305.5009766"/>
			<line i:knockout="Off" style="&st6;" x1="383.5234375" y1="298.0009766" x2="383.5234375" y2="305.5009766"/>
			<line i:knockout="Off" style="&st6;" x1="113.8413086" y1="246.5009766" x2="121.3413086" y2="246.5009766"/>
			<line i:knockout="Off" style="&st6;" x1="113.8413086" y1="167.7509766" x2="121.3413086" y2="167.7509766"/>
			<line i:knockout="Off" style="&st6;" x1="113.8413086" y1="92.7509766" x2="121.3413086" y2="92.7509766"/>
			<line i:knockout="Off" style="&st6;" x1="443.5234375" y1="298.0009766" x2="443.5234375" y2="305.5009766"/>
			<line i:knockout="Off" style="&st6;" x1="503.5234375" y1="298.0009766" x2="503.5234375" y2="305.5009766"/>
			<g i:knockout="Off">
				<path i:knockout="Off" d="M92.5078125,97.1210938h1.9375v-6.671875l-2.109375,0.421875v-1.078125l2.0957031-0.421875h1.1855469
					v7.75h1.9375v1h-5.046875V97.1210938z"/>
				<path i:knockout="Off" d="M102.4785156,89.2148438c0.9804688,0,1.7294922,0.3876953,2.2470703,1.1630859
					c0.5175781,0.7758789,0.7763672,1.9023438,0.7763672,3.3789063c0,1.4731445-0.2587891,2.5976563-0.7763672,3.3730469
					s-1.2666016,1.1630859-2.2470703,1.1630859s-1.7294922-0.3876953-2.2470703-1.1630859s-0.7763672-1.8999023-0.7763672-3.3730469
					c0-1.4765625,0.2587891-2.6030273,0.7763672-3.3789063C100.7490234,89.6025391,101.4980469,89.2148438,102.4785156,89.2148438z
					 M102.4755859,90.1523438c-0.609375,0-1.0668945,0.2998047-1.3730469,0.8994141
					c-0.3066406,0.6000977-0.4599609,1.5019531-0.4599609,2.7050781c0,1.199707,0.1533203,2.0996094,0.4599609,2.6992188
					c0.3061523,0.5996094,0.7636719,0.8994141,1.3730469,0.8994141c0.612793,0,1.0722656-0.2998047,1.3789063-0.8994141
					s0.4599609-1.4995117,0.4599609-2.6992188c0-1.203125-0.1533203-2.1049805-0.4599609-2.7050781
					C103.5478516,90.4521484,103.0883789,90.1523438,102.4755859,90.1523438z"/>
			</g>
			<g i:knockout="Off">
				<path i:knockout="Off" d="M100.0078125,172.1210938h1.9375v-6.671875l-2.109375,0.421875v-1.078125l2.0957031-0.421875
					h1.1855469v7.75h1.9375v1h-5.046875V172.1210938z"/>
			</g>
			<g i:knockout="Off">
				<path i:knockout="Off" d="M91.09375,242.9648438c0.9804688,0,1.7294922,0.3876953,2.2470703,1.1630859
					s0.7763672,1.9023438,0.7763672,3.3789063c0,1.4726563-0.2587891,2.5976563-0.7763672,3.3730469
					s-1.2666016,1.1630859-2.2470703,1.1630859s-1.7294922-0.3876953-2.2470703-1.1630859s-0.7763672-1.9003906-0.7763672-3.3730469
					c0-1.4765625,0.2587891-2.6035156,0.7763672-3.3789063S90.1132813,242.9648438,91.09375,242.9648438z M91.0908203,243.9023438
					c-0.609375,0-1.0668945,0.2998047-1.3730469,0.8994141c-0.3066406,0.5996094-0.4599609,1.5019531-0.4599609,2.7050781
					c0,1.1992188,0.1533203,2.0996094,0.4599609,2.6992188c0.3061523,0.5996094,0.7636719,0.8994141,1.3730469,0.8994141
					c0.612793,0,1.0722656-0.2998047,1.3789063-0.8994141s0.4599609-1.5,0.4599609-2.6992188
					c0-1.203125-0.1533203-2.1054688-0.4599609-2.7050781S91.7036133,243.9023438,91.0908203,243.9023438z"/>
				<path i:knockout="Off" d="M96.3144531,250.3867188h1.234375v1.0107422l-0.96875,1.8798828h-0.75l0.484375-1.8798828V250.3867188
					z"/>
				<path i:knockout="Off" d="M100.2070313,250.8710938h1.9375v-6.671875l-2.109375,0.421875v-1.078125l2.0957031-0.421875
					h1.1855469v7.75h1.9375v1h-5.046875V250.8710938z"/>
			</g>
		</g>
		<g id="Livello_4" i:layer="yes" i:dimmedPercent="3" i:rgbTrio="#FFFF99999999">
			<path i:knockout="Off" style="&st6;" d="M141.8569336,142.5009766
				c16.3334961,6.6665039,68.6669922,45.6660156,102.3334961,50.3330078s24.6660156,9.6660156,41.6665039,12
				s39.6665039-27.6660156,51.6665039-27.6660156s12,24.6660156,18.6669922,24.6660156
				s33.9990234-166.6665039,43.3330078-166.6665039s18.6660156,194.0004883,36,194.0004883
				s81.3339844-177.0004883,84.3339844-193.6669922"/>
			<rect x="329.0234375" y="209.0009766" i:knockout="Off" style="&st8;" width="56.25" height="37.1669922"/> 
			<g i:knockout="Off">
				<path i:knockout="Off" d="M329.5234375,223.5224609h1.609375v-5.5625l-1.75,0.359375v-0.90625l1.7460938-0.359375h0.9882813
					v6.46875h1.609375v0.828125h-4.203125V223.5224609z"/>
				<path i:knockout="Off" d="M335.8076172,223.1162109h1.03125v0.8417969l-0.8125,1.5644531h-0.625l0.40625-1.5644531V223.1162109z
					"/>
				<path i:knockout="Off" d="M341.8710938,220.4257813c0.4726563,0.1005859,0.8417969,0.3105469,1.1074219,0.6289063
					s0.3984375,0.7119141,0.3984375,1.1796875c0,0.7177734-0.2470703,1.2744141-0.7421875,1.6669922
					c-0.4941406,0.3935547-1.1972656,0.5898438-2.1074219,0.5898438c-0.3066406,0-0.6210938-0.0302734-0.9443359-0.0898438
					c-0.3242188-0.0595703-0.6582031-0.1494141-1.0029297-0.2695313v-0.953125
					c0.2734375,0.1601563,0.5722656,0.2802734,0.8964844,0.3623047c0.3251953,0.0810547,0.6650391,0.1220703,1.0195313,0.1220703
					c0.6171875,0,1.0878906-0.1220703,1.4111328-0.3652344c0.3232422-0.2441406,0.4853516-0.5976563,0.4853516-1.0625
					c0-0.4287109-0.1503906-0.7636719-0.4501953-1.0058594s-0.7167969-0.3632813-1.2519531-0.3632813h-0.8447266v-0.8125h0.8837891
					c0.4824219,0,0.8515625-0.0966797,1.1074219-0.2910156s0.3837891-0.4746094,0.3837891-0.8398438
					c0-0.3759766-0.1318359-0.6640625-0.3964844-0.8652344c-0.2636719-0.2001953-0.6416016-0.3007813-1.1337891-0.3007813
					c-0.2705078,0-0.5605469,0.0292969-0.8701172,0.0878906c-0.3095703,0.0576172-0.6503906,0.1484375-1.0214844,0.2714844v-0.875
					c0.3740234-0.1035156,0.7246094-0.1816406,1.0517578-0.234375c0.3271484-0.0517578,0.6347656-0.078125,0.9248047-0.078125
					c0.7480469,0,1.3398438,0.1699219,1.7753906,0.5117188c0.4365234,0.3398438,0.6542969,0.8007813,0.6542969,1.3808594
					c0,0.4042969-0.1152344,0.7460938-0.3466797,1.0253906C342.6269531,220.125,342.2978516,220.3183594,341.8710938,220.4257813z"
					/>
				<path i:knockout="Off" d="M348.1992188,226.4287109v-7.546875h0.90625v3.4013672
					c0,0.4707031,0.1113281,0.8261719,0.3349609,1.0664063c0.2226563,0.2402344,0.5527344,0.3603516,0.9892578,0.3603516
					c0.4785156,0,0.8388672-0.1367188,1.0800781-0.4091797c0.2402344-0.2724609,0.3613281-0.6826172,0.3613281-1.2275391v-3.1914063
					h0.90625v4.2128906c0,0.1943359,0.0283203,0.3378906,0.0849609,0.4296875
					c0.0576172,0.0927734,0.1455078,0.1386719,0.2666016,0.1386719c0.0292969,0,0.0693359-0.0087891,0.1210938-0.0263672
					c0.0527344-0.0166016,0.1240234-0.0449219,0.2148438-0.0830078v0.7177734
					c-0.1337891,0.0751953-0.2607422,0.1298828-0.3798828,0.1660156s-0.2363281,0.0537109-0.3505859,0.0537109
					c-0.2255859,0-0.4052734-0.0634766-0.5390625-0.1904297c-0.1347656-0.1269531-0.2265625-0.3203125-0.2753906-0.5810547
					c-0.1611328,0.2578125-0.359375,0.4501953-0.59375,0.578125c-0.234375,0.1289063-0.5107422,0.1933594-0.828125,0.1933594
					c-0.3300781,0-0.6103516-0.0634766-0.8417969-0.1904297s-0.4150391-0.3173828-0.5507813-0.5712891v2.6992188H348.1992188z"/>
				<path i:knockout="Off" d="M358.9101563,219.9404297c0.2236328-0.4042969,0.4912109-0.7021484,0.8027344-0.8945313
					c0.3125-0.1923828,0.6796875-0.2890625,1.1015625-0.2890625c0.5683594,0,1.0068359,0.1992188,1.3154297,0.5986328
					c0.3085938,0.3984375,0.4628906,0.9658203,0.4628906,1.7011719v3.2939453h-0.90625v-3.2646484
					c0-0.5244141-0.0927734-0.9130859-0.2773438-1.1669922s-0.4667969-0.3808594-0.8457031-0.3808594
					c-0.4638672,0-0.8291016,0.1542969-1.0986328,0.4638672s-0.4033203,0.7304688-0.4033203,1.2646484v3.0839844h-0.90625
					v-3.2646484c0-0.5273438-0.0927734-0.9169922-0.2773438-1.1689453
					c-0.1845703-0.2529297-0.4697266-0.3789063-0.8554688-0.3789063c-0.4570313,0-0.8193359,0.1552734-1.0888672,0.4667969
					c-0.2695313,0.3105469-0.4033203,0.7304688-0.4033203,1.2617188v3.0839844h-0.90625v-5.46875h0.90625v0.859375
					c0.2041016-0.3359375,0.4501953-0.5839844,0.7353516-0.7441406s0.625-0.2402344,1.0175781-0.2402344
					c0.3964844,0,0.7324219,0.1015625,1.0107422,0.3037109
					C358.5712891,219.2626953,358.7763672,219.5556641,358.9101563,219.9404297z"/>
				<path i:knockout="Off" d="M335.6015625,231.4003906v0.8691406c-0.3417969,0.2568359-0.6591797,0.4414063-0.9511719,0.5537109
					c-0.2910156,0.1123047-0.5947266,0.1679688-0.9111328,0.1679688c-0.3583984,0-0.7753906-0.0957031-1.2509766-0.2871094
					c-0.0332031-0.0126953-0.0605469-0.0234375-0.0830078-0.0332031c-0.0195313-0.0068359-0.0537109-0.0195313-0.1025391-0.0390625
					c-0.5058594-0.1982422-0.9111328-0.296875-1.2167969-0.296875c-0.2871094,0-0.5703125,0.0625-0.8505859,0.1855469
					s-0.5800781,0.3203125-0.8994141,0.5898438v-0.8710938c0.3417969-0.2539063,0.6591797-0.4365234,0.9501953-0.5488281
					c0.2919922-0.1113281,0.5957031-0.1679688,0.9121094-0.1679688c0.3583984,0,0.7763672,0.0957031,1.2558594,0.2871094
					c0.0322266,0.0126953,0.0566406,0.0224609,0.0732422,0.0292969c0.0224609,0.0097656,0.0585938,0.0234375,0.1074219,0.0429688
					c0.5048828,0.1982422,0.9111328,0.296875,1.2167969,0.296875c0.2802734,0,0.5585938-0.0605469,0.8339844-0.1826172
					C334.9609375,231.875,335.265625,231.6767578,335.6015625,231.4003906z M335.6015625,233.3046875v0.8759766
					c-0.3417969,0.2539063-0.6591797,0.4365234-0.9511719,0.5488281c-0.2910156,0.1123047-0.5947266,0.1679688-0.9111328,0.1679688
					c-0.3583984,0-0.7753906-0.0957031-1.2509766-0.2871094c-0.0332031-0.0126953-0.0605469-0.0234375-0.0830078-0.0332031
					c-0.0195313-0.0068359-0.0537109-0.0195313-0.1025391-0.0390625c-0.5058594-0.1982422-0.9111328-0.296875-1.2167969-0.296875
					c-0.2871094,0-0.5703125,0.0625-0.8505859,0.1855469c-0.2802734,0.1240234-0.5800781,0.3222656-0.8994141,0.5957031v-0.8769531
					c0.3417969-0.2539063,0.6591797-0.4365234,0.9501953-0.5488281c0.2919922-0.1113281,0.5957031-0.1679688,0.9121094-0.1679688
					c0.3583984,0,0.7763672,0.0957031,1.2558594,0.2871094c0.0361328,0.015625,0.0615234,0.0273438,0.078125,0.0332031
					c0.0195313,0.0068359,0.0537109,0.0195313,0.1025391,0.0390625c0.5048828,0.1982422,0.9111328,0.296875,1.2167969,0.296875
					c0.2802734,0,0.5585938-0.0605469,0.8339844-0.1826172S335.265625,233.5810547,335.6015625,233.3046875z"/>
				<path i:knockout="Off" d="M339.8320313,228.9287109c0.8183594,0,1.4433594,0.3232422,1.875,0.96875
					c0.4326172,0.6464844,0.6484375,1.5849609,0.6484375,2.8144531c0,1.2275391-0.2158203,2.1640625-0.6484375,2.8105469
					c-0.4316406,0.6455078-1.0566406,0.96875-1.875,0.96875s-1.4433594-0.3232422-1.875-0.96875
					c-0.4326172-0.6464844-0.6484375-1.5830078-0.6484375-2.8105469c0-1.2294922,0.2158203-2.1679688,0.6484375-2.8144531
					C338.3886719,229.2519531,339.0136719,228.9287109,339.8320313,228.9287109z M339.8300781,229.7099609
					c-0.5117188,0-0.8945313,0.25-1.1523438,0.75c-0.2558594,0.4990234-0.3847656,1.25-0.3847656,2.2519531
					c0,1,0.1289063,1.7490234,0.3847656,2.2490234c0.2578125,0.4990234,0.640625,0.7490234,1.1523438,0.7490234
					c0.5136719,0,0.8984375-0.25,1.1552734-0.7490234c0.2568359-0.5,0.3857422-1.2490234,0.3857422-2.2490234
					c0-1.0019531-0.1289063-1.7529297-0.3857422-2.2519531C340.7285156,229.9599609,340.34375,229.7099609,339.8300781,229.7099609z
					"/>
				<path i:knockout="Off" d="M344.1865234,235.1162109h1.03125v0.8417969l-0.8125,1.5644531h-0.625l0.40625-1.5644531V235.1162109z
					"/>
				<path i:knockout="Off" d="M347.2714844,229.0537109h3.875v0.828125h-2.96875v1.8027344
					c0.1425781-0.0488281,0.2861328-0.0859375,0.4287109-0.109375c0.1435547-0.0253906,0.2861328-0.0371094,0.4287109-0.0371094
					c0.8125,0,1.4560547,0.2226563,1.9306641,0.6679688s0.7119141,1.0478516,0.7119141,1.8085938
					c0,0.7832031-0.2441406,1.3916016-0.7324219,1.8261719c-0.4882813,0.4335938-1.1777344,0.6503906-2.0664063,0.6503906
					c-0.3066406,0-0.6181641-0.0263672-0.9355469-0.078125c-0.3173828-0.0527344-0.6455078-0.1298828-0.984375-0.234375v-0.984375
					c0.2929688,0.1582031,0.5957031,0.2753906,0.9091797,0.3525391c0.3125,0.0771484,0.6435547,0.1162109,0.9921875,0.1162109
					c0.5634766,0,1.0107422-0.1484375,1.3388672-0.4433594c0.3300781-0.296875,0.4941406-0.6972656,0.4941406-1.2050781
					c0-0.5068359-0.1640625-0.9082031-0.4931641-1.2050781c-0.3291016-0.2949219-0.7744141-0.4433594-1.3369141-0.4433594
					c-0.2636719,0-0.5273438,0.0292969-0.7890625,0.0878906c-0.2617188,0.0576172-0.5292969,0.1484375-0.8027344,0.2714844
					V229.0537109z"/>
				<path i:knockout="Off" d="M360.265625,231.7255859v-2.96875h0.90625v7.59375h-0.90625v-0.828125
					c-0.1884766,0.328125-0.4267578,0.5712891-0.7148438,0.7304688c-0.2871094,0.1582031-0.6328125,0.2382813-1.0361328,0.2382813
					c-0.6601563,0-1.1972656-0.2636719-1.6113281-0.7900391c-0.4150391-0.5263672-0.6220703-1.21875-0.6220703-2.0771484
					s0.2070313-1.5507813,0.6220703-2.0771484c0.4140625-0.5263672,0.9511719-0.7900391,1.6113281-0.7900391
					c0.4033203,0,0.7490234,0.0800781,1.0361328,0.2382813C359.8388672,231.1542969,360.0771484,231.3974609,360.265625,231.7255859
					z M357.203125,233.6240234c0,0.6601563,0.1357422,1.1777344,0.4082031,1.5537109
					c0.2714844,0.3759766,0.6445313,0.5634766,1.1210938,0.5634766c0.4746094,0,0.8496094-0.1875,1.1230469-0.5634766
					s0.4101563-0.8935547,0.4101563-1.5537109s-0.1367188-1.1777344-0.4101563-1.5537109s-0.6484375-0.5634766-1.1230469-0.5634766
					c-0.4765625,0-0.8496094,0.1875-1.1210938,0.5634766C357.3388672,232.4462891,357.203125,232.9638672,357.203125,233.6240234z"
					/>
				<path i:knockout="Off" d="M363.0664063,229.0537109h2.5253906c0.7519531,0,1.3320313,0.15625,1.7392578,0.4697266
					s0.6103516,0.7578125,0.6103516,1.3349609c0,0.4472656-0.1035156,0.8027344-0.3105469,1.0664063
					c-0.2080078,0.2646484-0.5126953,0.4296875-0.9140625,0.4941406c0.4814453,0.1044922,0.8554688,0.3222656,1.1210938,0.6523438
					c0.2675781,0.3300781,0.4003906,0.7431641,0.4003906,1.2382813c0,0.6503906-0.2207031,1.1542969-0.6621094,1.5087891
					c-0.4423828,0.3544922-1.0703125,0.5322266-1.8857422,0.5322266h-2.6240234V229.0537109z M364.0507813,229.8662109v2.203125
					h1.4677734c0.484375,0,0.8447266-0.0908203,1.0830078-0.2714844c0.2363281-0.1816406,0.3554688-0.4580078,0.3554688-0.8300781
					c0-0.3691406-0.1191406-0.6445313-0.3554688-0.8271484c-0.2382813-0.1826172-0.5986328-0.2744141-1.0830078-0.2744141
					H364.0507813z M364.0507813,232.8662109v2.671875h1.5908203c0.5263672,0,0.9160156-0.109375,1.1689453-0.3300781
					c0.2539063-0.21875,0.3808594-0.5556641,0.3808594-1.0078125c0-0.4560547-0.1269531-0.7929688-0.3808594-1.0087891
					c-0.2529297-0.2167969-0.6425781-0.3251953-1.1689453-0.3251953H364.0507813z"/>
				<path i:knockout="Off" d="M371.4863281,229.0537109h0.8310547l-2.5439453,8.21875h-0.8310547L371.4863281,229.0537109z"/>
				<path i:knockout="Off" d="M373.2177734,228.7568359h0.90625v4.4833984l2.6806641-2.3583984h1.1474609l-2.9003906,2.5585938
					l3.0253906,2.9101563h-1.1728516l-2.7802734-2.6708984v2.6708984h-0.90625V228.7568359z"/>
				<path i:knockout="Off" d="M383.2949219,231.9404297c0.2236328-0.4042969,0.4912109-0.7021484,0.8027344-0.8945313
					c0.3125-0.1923828,0.6796875-0.2890625,1.1015625-0.2890625c0.5683594,0,1.0068359,0.1992188,1.3154297,0.5986328
					c0.3085938,0.3984375,0.4628906,0.9658203,0.4628906,1.7011719v3.2939453h-0.90625v-3.2646484
					c0-0.5244141-0.0927734-0.9130859-0.2773438-1.1669922s-0.4667969-0.3808594-0.8457031-0.3808594
					c-0.4638672,0-0.8291016,0.1542969-1.0986328,0.4638672s-0.4033203,0.7304688-0.4033203,1.2646484v3.0839844h-0.90625
					v-3.2646484c0-0.5273438-0.0927734-0.9169922-0.2773438-1.1689453
					c-0.1845703-0.2529297-0.4697266-0.3789063-0.8554688-0.3789063c-0.4570313,0-0.8193359,0.1552734-1.0888672,0.4667969
					c-0.2695313,0.3105469-0.4033203,0.7304688-0.4033203,1.2617188v3.0839844h-0.90625v-5.46875h0.90625v0.859375
					c0.2041016-0.3359375,0.4501953-0.5839844,0.7353516-0.7441406s0.625-0.2402344,1.0175781-0.2402344
					c0.3964844,0,0.7324219,0.1015625,1.0107422,0.3037109
					C382.9560547,231.2626953,383.1611328,231.5556641,383.2949219,231.9404297z"/>
			</g>
			<rect x="413.7734375" y="239.0009766" i:knockout="Off" style="&st8;" width="56.25" height="37.1669922"/> 
			<g i:knockout="Off">
				<path i:knockout="Off" d="M410.2734375,253.5224609h1.609375v-5.5625l-1.75,0.359375v-0.90625l1.7460938-0.359375h0.9882813
					v6.46875h1.609375v0.828125h-4.203125V253.5224609z"/>
				<path i:knockout="Off" d="M416.5576172,253.1162109h1.03125v0.8417969l-0.8125,1.5644531h-0.625l0.40625-1.5644531V253.1162109z
					"/>
				<path i:knockout="Off" d="M419.6425781,247.0537109h3.875v0.828125h-2.96875v1.8027344
					c0.1425781-0.0488281,0.2861328-0.0859375,0.4287109-0.109375c0.1435547-0.0253906,0.2861328-0.0371094,0.4287109-0.0371094
					c0.8125,0,1.4560547,0.2226563,1.9306641,0.6679688s0.7119141,1.0478516,0.7119141,1.8085938
					c0,0.7832031-0.2441406,1.3916016-0.7324219,1.8261719c-0.4882813,0.4335938-1.1777344,0.6503906-2.0664063,0.6503906
					c-0.3066406,0-0.6181641-0.0263672-0.9355469-0.078125c-0.3173828-0.0527344-0.6455078-0.1298828-0.984375-0.234375v-0.984375
					c0.2929688,0.1582031,0.5957031,0.2753906,0.9091797,0.3525391c0.3125,0.0771484,0.6435547,0.1162109,0.9921875,0.1162109
					c0.5634766,0,1.0107422-0.1484375,1.3388672-0.4433594c0.3300781-0.296875,0.4941406-0.6972656,0.4941406-1.2050781
					c0-0.5068359-0.1640625-0.9082031-0.4931641-1.2050781c-0.3291016-0.2949219-0.7744141-0.4433594-1.3369141-0.4433594
					c-0.2636719,0-0.5273438,0.0292969-0.7890625,0.0878906c-0.2617188,0.0576172-0.5292969,0.1484375-0.8027344,0.2714844
					V247.0537109z"/>
				<path i:knockout="Off" d="M426.0048828,247.0537109h3.875v0.828125h-2.96875v1.8027344
					c0.1435547-0.0488281,0.2861328-0.0859375,0.4287109-0.109375c0.1435547-0.0253906,0.2861328-0.0371094,0.4296875-0.0371094
					c0.8125,0,1.4550781,0.2226563,1.9296875,0.6679688s0.7119141,1.0478516,0.7119141,1.8085938
					c0,0.7832031-0.2441406,1.3916016-0.7324219,1.8261719c-0.4892578,0.4335938-1.1777344,0.6503906-2.0664063,0.6503906
					c-0.3066406,0-0.6181641-0.0263672-0.9355469-0.078125c-0.3173828-0.0527344-0.6455078-0.1298828-0.984375-0.234375v-0.984375
					c0.2929688,0.1582031,0.5966797,0.2753906,0.9091797,0.3525391s0.6435547,0.1162109,0.9921875,0.1162109
					c0.5634766,0,1.0097656-0.1484375,1.3398438-0.4433594c0.328125-0.296875,0.4931641-0.6972656,0.4931641-1.2050781
					c0-0.5068359-0.1650391-0.9082031-0.4931641-1.2050781c-0.328125-0.2949219-0.7744141-0.4433594-1.3378906-0.4433594
					c-0.2636719,0-0.5253906,0.0292969-0.7880859,0.0878906c-0.2617188,0.0576172-0.5292969,0.1484375-0.8027344,0.2714844
					V247.0537109z"/>
				<path i:knockout="Off" d="M435.3115234,256.4287109v-7.546875h0.90625v3.4013672
					c0,0.4707031,0.1113281,0.8261719,0.3349609,1.0664063c0.2226563,0.2402344,0.5527344,0.3603516,0.9902344,0.3603516
					c0.4785156,0,0.8378906-0.1367188,1.0791016-0.4091797s0.3613281-0.6826172,0.3613281-1.2275391v-3.1914063h0.90625v4.2128906
					c0,0.1943359,0.0283203,0.3378906,0.0849609,0.4296875c0.0566406,0.0927734,0.1455078,0.1386719,0.265625,0.1386719
					c0.0292969,0,0.0703125-0.0087891,0.1220703-0.0263672c0.0517578-0.0166016,0.1240234-0.0449219,0.2148438-0.0830078v0.7177734
					c-0.1337891,0.0751953-0.2607422,0.1298828-0.3798828,0.1660156s-0.2363281,0.0537109-0.3505859,0.0537109
					c-0.2255859,0-0.4052734-0.0634766-0.5400391-0.1904297c-0.1337891-0.1269531-0.2246094-0.3203125-0.2734375-0.5810547
					c-0.1621094,0.2578125-0.3603516,0.4501953-0.5947266,0.578125c-0.2353516,0.1289063-0.5107422,0.1933594-0.828125,0.1933594
					c-0.3300781,0-0.6103516-0.0634766-0.8417969-0.1904297s-0.4150391-0.3173828-0.5507813-0.5712891v2.6992188H435.3115234z"/>
				<path i:knockout="Off" d="M446.0214844,249.9404297c0.2246094-0.4042969,0.4921875-0.7021484,0.8046875-0.8945313
					c0.3115234-0.1923828,0.6777344-0.2890625,1.1005859-0.2890625c0.5683594,0,1.0068359,0.1992188,1.3154297,0.5986328
					c0.3085938,0.3984375,0.4628906,0.9658203,0.4628906,1.7011719v3.2939453h-0.90625v-3.2646484
					c0-0.5244141-0.0927734-0.9130859-0.2773438-1.1669922s-0.4667969-0.3808594-0.8457031-0.3808594
					c-0.4628906,0-0.8300781,0.1542969-1.0986328,0.4638672s-0.4033203,0.7304688-0.4033203,1.2646484v3.0839844h-0.90625
					v-3.2646484c0-0.5273438-0.0927734-0.9169922-0.2773438-1.1689453
					c-0.1845703-0.2529297-0.4697266-0.3789063-0.8554688-0.3789063c-0.4570313,0-0.8203125,0.1552734-1.0888672,0.4667969
					c-0.2685547,0.3105469-0.4033203,0.7304688-0.4033203,1.2617188v3.0839844h-0.90625v-5.46875h0.90625v0.859375
					c0.2050781-0.3359375,0.4492188-0.5839844,0.7353516-0.7441406s0.625-0.2402344,1.0175781-0.2402344
					c0.3955078,0,0.7333984,0.1015625,1.0107422,0.3037109S445.8886719,249.5556641,446.0214844,249.9404297z"/>
				<path i:knockout="Off" d="M416.3515625,261.4003906v0.8691406c-0.3417969,0.2568359-0.6591797,0.4414063-0.9511719,0.5537109
					c-0.2910156,0.1123047-0.5947266,0.1679688-0.9111328,0.1679688c-0.3583984,0-0.7753906-0.0957031-1.2509766-0.2871094
					c-0.0332031-0.0126953-0.0605469-0.0234375-0.0830078-0.0332031c-0.0195313-0.0068359-0.0537109-0.0195313-0.1025391-0.0390625
					c-0.5058594-0.1982422-0.9111328-0.296875-1.2167969-0.296875c-0.2871094,0-0.5703125,0.0625-0.8505859,0.1855469
					s-0.5800781,0.3203125-0.8994141,0.5898438v-0.8710938c0.3417969-0.2539063,0.6591797-0.4365234,0.9501953-0.5488281
					c0.2919922-0.1113281,0.5957031-0.1679688,0.9121094-0.1679688c0.3583984,0,0.7763672,0.0957031,1.2558594,0.2871094
					c0.0322266,0.0126953,0.0566406,0.0224609,0.0732422,0.0292969c0.0224609,0.0097656,0.0585938,0.0234375,0.1074219,0.0429688
					c0.5048828,0.1982422,0.9111328,0.296875,1.2167969,0.296875c0.2802734,0,0.5585938-0.0605469,0.8339844-0.1826172
					C415.7109375,261.875,416.015625,261.6767578,416.3515625,261.4003906z M416.3515625,263.3046875v0.8759766
					c-0.3417969,0.2539063-0.6591797,0.4365234-0.9511719,0.5488281c-0.2910156,0.1123047-0.5947266,0.1679688-0.9111328,0.1679688
					c-0.3583984,0-0.7753906-0.0957031-1.2509766-0.2871094c-0.0332031-0.0126953-0.0605469-0.0234375-0.0830078-0.0332031
					c-0.0195313-0.0068359-0.0537109-0.0195313-0.1025391-0.0390625c-0.5058594-0.1982422-0.9111328-0.296875-1.2167969-0.296875
					c-0.2871094,0-0.5703125,0.0625-0.8505859,0.1855469c-0.2802734,0.1240234-0.5800781,0.3222656-0.8994141,0.5957031v-0.8769531
					c0.3417969-0.2539063,0.6591797-0.4365234,0.9501953-0.5488281c0.2919922-0.1113281,0.5957031-0.1679688,0.9121094-0.1679688
					c0.3583984,0,0.7763672,0.0957031,1.2558594,0.2871094c0.0361328,0.015625,0.0615234,0.0273438,0.078125,0.0332031
					c0.0195313,0.0068359,0.0537109,0.0195313,0.1025391,0.0390625c0.5048828,0.1982422,0.9111328,0.296875,1.2167969,0.296875
					c0.2802734,0,0.5585938-0.0605469,0.8339844-0.1826172S416.015625,263.5810547,416.3515625,263.3046875z"/>
				<path i:knockout="Off" d="M420.5820313,258.9287109c0.8183594,0,1.4433594,0.3232422,1.875,0.96875
					c0.4326172,0.6464844,0.6484375,1.5849609,0.6484375,2.8144531c0,1.2275391-0.2158203,2.1640625-0.6484375,2.8105469
					c-0.4316406,0.6455078-1.0566406,0.96875-1.875,0.96875s-1.4433594-0.3232422-1.875-0.96875
					c-0.4326172-0.6464844-0.6484375-1.5830078-0.6484375-2.8105469c0-1.2294922,0.2158203-2.1679688,0.6484375-2.8144531
					C419.1386719,259.2519531,419.7636719,258.9287109,420.5820313,258.9287109z M420.5800781,259.7099609
					c-0.5117188,0-0.8945313,0.25-1.1523438,0.75c-0.2558594,0.4990234-0.3847656,1.25-0.3847656,2.2519531
					c0,1,0.1289063,1.7490234,0.3847656,2.2490234c0.2578125,0.4990234,0.640625,0.7490234,1.1523438,0.7490234
					c0.5136719,0,0.8984375-0.25,1.1552734-0.7490234c0.2568359-0.5,0.3857422-1.2490234,0.3857422-2.2490234
					c0-1.0019531-0.1289063-1.7529297-0.3857422-2.2519531C421.4785156,259.9599609,421.09375,259.7099609,420.5800781,259.7099609z
					"/>
				<path i:knockout="Off" d="M424.9365234,265.1162109h1.03125v0.8417969l-0.8125,1.5644531h-0.625l0.40625-1.5644531V265.1162109z
					"/>
				<path i:knockout="Off" d="M428.8662109,265.5224609h3.4443359v0.828125h-4.6328125v-0.828125
					c0.375-0.3876953,0.8867188-0.9082031,1.5351563-1.5605469c0.6484375-0.6533203,1.0556641-1.0742188,1.2226563-1.2636719
					c0.3164063-0.3554688,0.5371094-0.6552734,0.6630859-0.9013672s0.1884766-0.4873047,0.1884766-0.7255859
					c0-0.3876953-0.1367188-0.703125-0.4091797-0.9482422c-0.2724609-0.2441406-0.6279297-0.3662109-1.0654297-0.3662109
					c-0.3105469,0-0.6386719,0.0546875-0.9824219,0.1630859c-0.3457031,0.1083984-0.7128906,0.2724609-1.1054688,0.4931641v-1
					c0.3974609-0.1601563,0.7695313-0.2802734,1.1152344-0.3623047c0.3447266-0.0810547,0.6611328-0.1220703,0.9482422-0.1220703
					c0.7558594,0,1.3583984,0.1894531,1.8085938,0.5664063c0.4501953,0.3779297,0.6748047,0.8828125,0.6748047,1.5146484
					c0,0.2998047-0.0566406,0.5830078-0.1689453,0.8525391c-0.1123047,0.2675781-0.3164063,0.5849609-0.6123047,0.9492188
					c-0.0820313,0.0947266-0.3408203,0.3671875-0.7773438,0.8183594S429.6611328,264.7119141,428.8662109,265.5224609z"/>
				<path i:knockout="Off" d="M441.015625,261.7255859v-2.96875h0.90625v7.59375h-0.90625v-0.828125
					c-0.1884766,0.328125-0.4267578,0.5712891-0.7148438,0.7304688c-0.2871094,0.1582031-0.6328125,0.2382813-1.0361328,0.2382813
					c-0.6601563,0-1.1972656-0.2636719-1.6113281-0.7900391c-0.4150391-0.5263672-0.6220703-1.21875-0.6220703-2.0771484
					s0.2070313-1.5507813,0.6220703-2.0771484c0.4140625-0.5263672,0.9511719-0.7900391,1.6113281-0.7900391
					c0.4033203,0,0.7490234,0.0800781,1.0361328,0.2382813C440.5888672,261.1542969,440.8271484,261.3974609,441.015625,261.7255859
					z M437.953125,263.6240234c0,0.6601563,0.1357422,1.1777344,0.4082031,1.5537109
					c0.2714844,0.3759766,0.6445313,0.5634766,1.1210938,0.5634766c0.4746094,0,0.8496094-0.1875,1.1230469-0.5634766
					s0.4101563-0.8935547,0.4101563-1.5537109s-0.1367188-1.1777344-0.4101563-1.5537109s-0.6484375-0.5634766-1.1230469-0.5634766
					c-0.4765625,0-0.8496094,0.1875-1.1210938,0.5634766C438.0888672,262.4462891,437.953125,262.9638672,437.953125,263.6240234z"
					/>
				<path i:knockout="Off" d="M443.8164063,259.0537109h2.5253906c0.7519531,0,1.3320313,0.15625,1.7392578,0.4697266
					s0.6103516,0.7578125,0.6103516,1.3349609c0,0.4472656-0.1035156,0.8027344-0.3105469,1.0664063
					c-0.2080078,0.2646484-0.5126953,0.4296875-0.9140625,0.4941406c0.4814453,0.1044922,0.8554688,0.3222656,1.1210938,0.6523438
					c0.2675781,0.3300781,0.4003906,0.7431641,0.4003906,1.2382813c0,0.6503906-0.2207031,1.1542969-0.6621094,1.5087891
					c-0.4423828,0.3544922-1.0703125,0.5322266-1.8857422,0.5322266h-2.6240234V259.0537109z M444.8007813,259.8662109v2.203125
					h1.4677734c0.484375,0,0.8447266-0.0908203,1.0830078-0.2714844c0.2363281-0.1816406,0.3554688-0.4580078,0.3554688-0.8300781
					c0-0.3691406-0.1191406-0.6445313-0.3554688-0.8271484c-0.2382813-0.1826172-0.5986328-0.2744141-1.0830078-0.2744141
					H444.8007813z M444.8007813,262.8662109v2.671875h1.5908203c0.5263672,0,0.9160156-0.109375,1.1689453-0.3300781
					c0.2539063-0.21875,0.3808594-0.5556641,0.3808594-1.0078125c0-0.4560547-0.1269531-0.7929688-0.3808594-1.0087891
					c-0.2529297-0.2167969-0.6425781-0.3251953-1.1689453-0.3251953H444.8007813z"/>
				<path i:knockout="Off" d="M452.2363281,259.0537109h0.8310547l-2.5439453,8.21875h-0.8310547L452.2363281,259.0537109z"/>
				<path i:knockout="Off" d="M453.9677734,258.7568359h0.90625v4.4833984l2.6806641-2.3583984h1.1474609l-2.9003906,2.5585938
					l3.0253906,2.9101563h-1.1728516l-2.7802734-2.6708984v2.6708984h-0.90625V258.7568359z"/>
				<path i:knockout="Off" d="M464.0449219,261.9404297c0.2236328-0.4042969,0.4912109-0.7021484,0.8027344-0.8945313
					c0.3125-0.1923828,0.6796875-0.2890625,1.1015625-0.2890625c0.5683594,0,1.0068359,0.1992188,1.3154297,0.5986328
					c0.3085938,0.3984375,0.4628906,0.9658203,0.4628906,1.7011719v3.2939453h-0.90625v-3.2646484
					c0-0.5244141-0.0927734-0.9130859-0.2773438-1.1669922s-0.4667969-0.3808594-0.8457031-0.3808594
					c-0.4638672,0-0.8291016,0.1542969-1.0986328,0.4638672s-0.4033203,0.7304688-0.4033203,1.2646484v3.0839844h-0.90625
					v-3.2646484c0-0.5273438-0.0927734-0.9169922-0.2773438-1.1689453
					c-0.1845703-0.2529297-0.4697266-0.3789063-0.8554688-0.3789063c-0.4570313,0-0.8193359,0.1552734-1.0888672,0.4667969
					c-0.2695313,0.3105469-0.4033203,0.7304688-0.4033203,1.2617188v3.0839844h-0.90625v-5.46875h0.90625v0.859375
					c0.2041016-0.3359375,0.4501953-0.5839844,0.7353516-0.7441406s0.625-0.2402344,1.0175781-0.2402344
					c0.3964844,0,0.7324219,0.1015625,1.0107422,0.3037109
					C463.7060547,261.2626953,463.9111328,261.5556641,464.0449219,261.9404297z"/>
			</g>
		</g>
	</g>
</svg>
